/* XPM */
static char *result[] = {
/* columns rows colors chars-per-pixel */
"40 40 73 1 ",
"  c #DB831F",
". c #DF8B1C",
"X c #DF901B",
"o c #E08C1B",
"O c #E3931A",
"+ c #E69A1D",
"@ c #EA9E1D",
"# c #F49D15",
"$ c #F6A40F",
"% c #ECA21E",
"& c #F6A211",
"* c #F8A513",
"= c #F6A31B",
"- c #F9A51C",
"; c #F7AA1F",
": c #FAAA1C",
"> c #FBB11D",
", c #DB8220",
"< c #DD8823",
"1 c #DD8A2B",
"2 c #DC8C33",
"3 c #E28626",
"4 c #E28A24",
"5 c #E38A28",
"6 c #E59420",
"7 c #EB9523",
"8 c #EA9922",
"9 c #EE9F29",
"0 c #F09D21",
"q c #E19131",
"w c #EDA521",
"e c #EFA926",
"r c #EFA62A",
"t c #EEAC2E",
"y c #F4A421",
"u c #FBA723",
"i c #F4AB23",
"p c #F9AE24",
"a c #F5A52B",
"s c #F6B425",
"d c #FAB523",
"f c #FBBB26",
"g c #F6B528",
"h c #F8B42C",
"j c #FABC2A",
"k c #EFAE31",
"l c #F1AE35",
"z c #F9AC30",
"x c #F2B535",
"c c #F5BA34",
"v c #F9BB33",
"b c #F3B83E",
"n c #FBC31D",
"m c #F7C222",
"M c #FAC423",
"N c #FBCA21",
"B c #FBC32B",
"V c #FBCA2C",
"C c #FCD02F",
"Z c #FDC332",
"A c #FDCC32",
"S c #FBCD3A",
"D c #FED336",
"F c #FED53A",
"G c #F3BA41",
"H c #FDCD40",
"J c #FDD547",
"K c #FFD148",
"L c #FDD849",
"P c #FCD059",
"I c #FBD863",
"U c #F9D874",
"Y c None",
/* pixels */
"YYYYYYYYYYYYYYYYYYYYYYYYYYYYYYYYYYYYYYYY",
"YYYYYYYYYYYYYYYYYYYYYYYYYYYYYYYYYYYYYYYY",
"YYYYYYYYYYYYYYYYYYYYYYYYYYYYYYYYYYYYYYYY",
"YYYYYYYYYYYYYYYYYYYYYYYYYYYYYYYYYYYYYYYY",
"YYYYYYYYYYYYYYYYYYYYYYYYYYYYYYYYYYYYYYYY",
"YYYYYYYYYYYYYYYYJKb@+%wtYYYYYYYYYYYYYYYY",
"YYYYYYYYYYYYYYYLFFKx%%%%tYYYYYYYYYYYYYYY",
"YYYYYYYYYYYYYYYDMmVPbsssgYYYYYYYYYYYYYYY",
"YYYYYYYYYYYYYYFMnnnJUBBBBZYYYYYYYYYYYYYY",
"YYYYYYYYYYYYYYAnDDVVIvffjgYYYYYYYYYYYYYY",
"YYYYYYYYYYYYYYVAFFDmScsggsYYYYYYYYYYYYYY",
"YYYYYYYYYYYYYJVDDDFVZvesiekYYYYYYYYYYYYY",
"YYYYYYYYYYYYYSVFCNFVjcww@%rYYYYYYYYYYYYY",
"YYYYYYYYYYYYYAVDCVDAfc8@+@9YYYYYYYYYYYYY",
"YYYYYYYYYYYYYZADAAAAfjOOO+8YYYYYYYYYYYYY",
"YYYYYYYYYYYYYVAAZBAZggOOoO+YYYYYYYYYYYYY",
"YYYYYYYYYYYYYBAjVjjjgg+OOO6YYYYYYYYYYYYY",
"YYYYYYYYYYYYYBABjfjjjh+oXO+YYYYYYYYYYYYY",
"YYYYYYYYYYYYYBABfdjZdp+oXOoYYYYYYYYYYYYY",
"YYYYYYYYYYYYYfAj>:sZju+oXo.YYYYYYYYYYYYY",
"YYYYYYYYYYYYYdZf$*dZj:6o.<<YYYYYYYYYYYYY",
"YYYYYYYYYYYYY:df$*fBp-6o ,,YYYYYYYYYYYYY",
"YYYYYYYYYYYYYpp:&$ff--4  ,,YYYYYYYYYYYYY",
"YYYYYYYYYYYYY:::##::--4 ,,,YYYYYYYYYYYYY",
"YYYYYYYYYYYYY-:-##::-03,,,<YYYYYYYYYYYYY",
"YYYYYYYYYYYYYi::::::-#o,,,,YYYYYYYYYYYYY",
"YYYYYYYYYYYYYa-:::::-@ ,,,,YYYYYYYYYYYYY",
"YYYYYYYYYYYYYa-:::-:-7 ,,,1YYYYYYYYYYYYY",
"YYYYYYYYYYYYYl-::::--4 ,,,2YYYYYYYYYYYYY",
"YYYYYYYYYYYYYY=-:::-y, ,,,YYYYYYYYYYYYYY",
"YYYYYYYYYYYYYYe=:::#9,,,,<YYYYYYYYYYYYYY",
"YYYYYYYYYYYYYYl=-:#-6,,,,1YYYYYYYYYYYYYY",
"YYYYYYYYYYYYYYYp##=y33335YYYYYYYYYYYYYYY",
"YYYYYYYYYYYYYYYzppu65335qYYYYYYYYYYYYYYY",
"YYYYYYYYYYYYYYYYli75555qYYYYYYYYYYYYYYYY",
"YYYYYYYYYYYYYYYYYYYYYYYYYYYYYYYYYYYYYYYY",
"YYYYYYYYYYYYYYYYYYYYYYYYYYYYYYYYYYYYYYYY",
"YYYYYYYYYYYYYYYYYYYYYYYYYYYYYYYYYYYYYYYY",
"YYYYYYYYYYYYYYYYYYYYYYYYYYYYYYYYYYYYYYYY",
"YYYYYYYYYYYYYYYYYYYYYYYYYYYYYYYYYYYYYYYY"
};
