/* XPM */
static char *result[] = {
/* columns rows colors chars-per-pixel */
"40 40 38 1 ",
"  c #F49D14",
". c #F89C12",
"X c #F39C19",
"o c #F6A417",
"O c #F6A51B",
"+ c #F9A61B",
"@ c #F6AA1B",
"# c #FAAB1C",
"$ c #FAB21C",
"% c #E7A52D",
"& c #EDAD2E",
"* c #F2A427",
"= c #F4AC23",
"- c #F9AE24",
"; c #F3AD2A",
": c #F6B323",
"> c #FAB323",
", c #F9B925",
"< c #F6B22B",
"1 c #FAB42A",
"2 c #FCBB2C",
"3 c #F3AC32",
"4 c #F6B434",
"5 c #FBB232",
"6 c #F7BA31",
"7 c #FCBD31",
"8 c #F2BD3B",
"9 c #FEC02F",
"0 c #FFC232",
"q c #FBC43A",
"w c #FBCB3C",
"e c #F9BF41",
"r c #F5C245",
"t c #FCC142",
"y c #F9C74D",
"u c #FBD264",
"i c #FDD16E",
"p c None",
/* pixels */
"pppppppppppppppppppppppppppppppppppppppp",
"pppppppppppppppppppppppppppppppppppppppp",
"pppppppppppppppppppppppppppppppppppppppp",
"pppppppppppppppppppppppppppppppppppppppp",
"pppppppppppppppppppppppppppppppppppppppp",
"pppppppppppppppp6tiuytqqpppppppppppppppp",
"ppppppppppppppp5>,62,770wppppppppppppppp",
"ppppppppppppppp1>,,$2-XO7ppppppppppppppp",
"pppppppppppppp;@@@@@2o#@O8pppppppppppppp",
"pppppppppppppp<$$$$>=,90@6pppppppppppppp",
"pppppppppppppp$$>$$2@7002:pppppppppppppp",
"ppppppppppppp;ooooO<10279=rppppppppppppp",
"ppppppppppppp<$##$>-20>2014ppppppppppppp",
"ppppppppppppp<$$$$>>202202<ppppppppppppp",
"ppppppppppppp=@@++>>002707<ppppppppppppp",
"ppppppppppppp=oooo-1772772>ppppppppppppp",
"ppppppppppppp$$$$$$121<2>2>ppppppppppppp",
"ppppppppppppp$$$$$:126-1221ppppppppppppp",
"ppppppppppppp$o+o@>101#-10>ppppppppppppp",
"pppppppppppppoooo@@10=OO10>ppppppppppppp",
"ppppppppppppp$#$$$@20: .27>ppppppppppppp",
"ppppppppppppp>$$$$@>01  1>+ppppppppppppp",
"ppppppppppppp@oo+o@@11. +#*ppppppppppppp",
"ppppppppppppp@oooo@o##  +#+ppppppppppppp",
"ppppppppppppp-$$$$++#+ X+#Oppppppppppppp",
"ppppppppppppp=#$$$#+##--#+=ppppppppppppp",
"ppppppppppppp*oooo+++##+#+*ppppppppppppp",
"ppppppppppppp5$$##-O+##+#+;ppppppppppppp",
"ppppppppppppp4$$$$$@X-+#++4ppppppppppppp",
"pppppppppppppp@o+o+@+####*pppppppppppppp",
"pppppppppppppp:$$$$$X+#-+*pppppppppppppp",
"pppppppppppppp%o####+.+.+3pppppppppppppp",
"ppppppppppppppp@@+#@#+oo=ppppppppppppppp",
"ppppppppppppppp6$@@$###=1ppppppppppppppp",
"pppppppppppppppp&;>=$-;3pppppppppppppppp",
"pppppppppppppppppppppppppppppppppppppppp",
"pppppppppppppppppppppppppppppppppppppppp",
"pppppppppppppppppppppppppppppppppppppppp",
"pppppppppppppppppppppppppppppppppppppppp",
"pppppppppppppppppppppppppppppppppppppppp"
};
