/* XPM */
static char *result[] = {
/* columns rows colors chars-per-pixel */
"40 40 76 1 ",
"  c #D77F24",
". c #D97F20",
"X c #DF7D2A",
"o c #E07F29",
"O c #DC841F",
"+ c #E98B1E",
"@ c #EF9715",
"# c #EE9A16",
"$ c #E1931C",
"% c #EA931F",
"& c #E69819",
"* c #E8991D",
"= c #F29714",
"- c #F39C15",
"; c #F89E10",
": c #F29E1A",
"> c #F7A20F",
", c #FAA60F",
"< c #F6A414",
"1 c #F8A512",
"2 c #F7A913",
"3 c #F9AA16",
"4 c #F5A31B",
"5 c #F9A61B",
"6 c #F6AB1C",
"7 c #FBAA1D",
"8 c #FBB41C",
"9 c #FCB81F",
"0 c #DC8324",
"q c #DE8B23",
"w c #DB812C",
"e c #DD8D2D",
"r c #DE9A2A",
"t c #DA8530",
"y c #DE9F33",
"u c #E58E20",
"i c #E29621",
"p c #EA9220",
"a c #E39921",
"s c #ED9921",
"d c #E19829",
"f c #EC9B2C",
"g c #F09521",
"h c #F29E20",
"j c #EFAA25",
"k c #EDA82E",
"l c #F4A120",
"z c #F8A726",
"x c #F6AE23",
"c c #FAAB21",
"v c #F6A72F",
"b c #F2AB2B",
"n c #FAAD2A",
"m c #F6B223",
"M c #FBB423",
"N c #FABA25",
"B c #F4B22D",
"V c #FBB62A",
"C c #FBBC2B",
"Z c #FBAF33",
"A c #F7B633",
"S c #FDBE30",
"D c #FABC3C",
"F c #FDC32D",
"G c #FEC631",
"H c #FFC832",
"J c #FEC53A",
"K c #FECB3A",
"L c #F2B347",
"P c #F6BA41",
"I c #F8BF46",
"U c #F5C747",
"Y c #F8C143",
"T c #FECA42",
"R c #FDC549",
"E c None",
/* pixels */
"EEEEEEEEEEEEEEEEEEEEEEEEEEEEEEEEEEEEEEEE",
"EEEEEEEEEEEEEEEEEEEEEEEEEEEEEEEEEEEEEEEE",
"EEEEEEEEEEEEEEEEEEEEEEEEEEEEEEEEEEEEEEEE",
"EEEEEEEEEEEEEEEEEEEEEEEEEEEEEEEEEEEEEEEE",
"EEEEEEEEEEEEEEEEEEEEEEEEEEEEEEEEEEEEEEEE",
"EEEEEEEEEEEEEEEERTKHJTILEEEEEEEEEEEEEEEE",
"EEEEEEEEEEEEEKKHJHHFGHJJYPAEEEEEEEEEEEEE",
"EEEEEEEEEEETKHFm662366mFHKJJKEEEEEEEEEEE",
"EEEEEEEEEEJJF8<<389M883<xFHHHFEEEEEEEEEE",
"EEEEEEEEEJGC6,9FHHHHHHHN6<mHJCAEEEEEEEEE",
"EEEEEEEEKJV<2FHHHHHHHHHHFm2xFJBBEEEEEEEE",
"EEEEEEEKHV<8FHHHHHFNHHHHHHN2mGIjbEEEEEEE",
"EEEEEEEJF43HHHFHHH22FHHHHHHN<MJBaEEEEEEE",
"EEEEEEUJm2FHHFHHFHN9FHHHHHHHM2FDarEEEEEE",
"EEEEEEKF<8HHHHHFGHFCHGHHHHHHF28Jk$EEEEEE",
"EEEEEEGm2FHHHCHHHHVmHGHHGHHHHm6FB$yEEEEE",
"EEEEEKF68HHHN:FHHG66GGHG6mHHHF<CC&dEEEEE",
"EEEEEJF<9HHHF9FGHF22FGHF8CHFHG2mF&iEEEEE",
"EEEEEHN<NHHFHFmFHN2<CHCmFGGHHH66F*$EEEEE",
"EEEEEHN<FHHFGHm4N6,<BV:6GFHGGH66mpqEEEEE",
"EEEEESm19CFFGGV;-<,,<<1MGGGGFF647p0EEEEE",
"EEEEEc74<77cMVV1;1>>>><SGGFCCV-47pwEEEEE",
"EEEEEc7:3777777;;;;>>;7GVVVc75@4cuwEEEEE",
"EEEEEV7:<7777771@==-@=37777774@c40wEEEEE",
"EEEEEZc4-7757775------7777577::7:.eEEEEE",
"EEEEEEc7-4777777cc77777777777=4cp EEEEEE",
"EEEEEEnc4-777777777777777777:-c40tEEEEEE",
"EEEEEEEc7-<75777777777577775#4cs EEEEEEE",
"EEEEEEEnc4=4577775777777774#:760tEEEEEEE",
"EEEEEEEEbc4-;7777777777774#:77+XEEEEEEEE",
"EEEEEEEEEcc4:-77377777c5:=:7zpXEEEEEEEEE",
"EEEEEEEEEEz5c5--155544-@-475guEEEEEEEEEE",
"EEEEEEEEEEEnc7744#-----4cchuuEEEEEEEEEEE",
"EEEEEEEEEEEEEnccc7cc7zcclseEEEEEEEEEEEEE",
"EEEEEEEEEEEEEEEnnnccczvfEEEEEEEEEEEEEEEE",
"EEEEEEEEEEEEEEEEEEEEEEEEEEEEEEEEEEEEEEEE",
"EEEEEEEEEEEEEEEEEEEEEEEEEEEEEEEEEEEEEEEE",
"EEEEEEEEEEEEEEEEEEEEEEEEEEEEEEEEEEEEEEEE",
"EEEEEEEEEEEEEEEEEEEEEEEEEEEEEEEEEEEEEEEE",
"EEEEEEEEEEEEEEEEEEEEEEEEEEEEEEEEEEEEEEEE"
};
