/* XPM */
static char *result[] = {
/* columns rows colors chars-per-pixel */
"40 40 64 1 ",
"  c #D77D1F",
". c #D77D21",
"X c #D97F20",
"o c #DD851E",
"O c #DE8B1C",
"+ c #F79D0F",
"@ c #E18D1D",
"# c #E4931B",
"$ c #EB971D",
"% c #E5991C",
"& c #ED9B1C",
"* c #F39713",
"= c #F49D14",
"- c #F89F11",
"; c #F49D19",
": c #ECA21E",
"> c #F5A116",
", c #F5A31B",
"< c #F9A51A",
"1 c #F6A91F",
"2 c #FAAA1C",
"3 c #DA8322",
"4 c #DC8B2B",
"5 c #DC8A31",
"6 c #DF9236",
"7 c #E38D22",
"8 c #E39325",
"9 c #E89122",
"0 c #E59922",
"q c #E29E2D",
"w c #F39F20",
"e c #E59E33",
"r c #EBA423",
"t c #F4A422",
"y c #F9A722",
"u c #F5AC23",
"i c #FAAC22",
"p c #F5AD2A",
"a c #FAAB29",
"s c #F6B325",
"d c #FAB324",
"f c #F6BB26",
"g c #F6B329",
"h c #FBB52B",
"j c #F7BB2C",
"k c #FCBB2C",
"l c #E6A131",
"z c #ECAC3C",
"x c #EFB039",
"c c #F5B334",
"v c #FAB333",
"b c #FDBD32",
"n c #FCBF39",
"m c #FDC725",
"M c #FEC12E",
"N c #FECB2F",
"B c #FFC131",
"V c #FEC33D",
"C c #F7B947",
"Z c #F2BD50",
"A c #FDC344",
"S c #F9C64C",
"D c #F9CA57",
"F c None",
/* pixels */
"FFFFFFFFFFFFFFFFFFFFFFFFFFFFFFFFFFFFFFFF",
"FFFFFFFFFFFFFFFFFFFFFFFFFFFFFFFFFFFFFFFF",
"FFFFFFFFFFFFFFFFFFFFFFFFFFFFFFFFFFFFFFFF",
"FFFFFFFFFFFFFFFFFFFFFFFFFFFFFFFFFFFFFFFF",
"FFFFFFFFFFFFFFFFFFFFFFFFFFFFFFFFFFFFFFFF",
"FFFFFFFFFFFFFFFAAAVAACzqFFFFFFFFFFFFFFFF",
"FFFFFFFFFFFFFABBbbbbbVVZxfNFFFFFFFFFFFFF",
"FFFFFFFFFFFFnbki,,;,tgbVDVmNFFFFFFFFFFFF",
"FFFFFFFFFFABbi==<1i2>=,hBSnkMFFFFFFFFFFF",
"FFFFFFFFFFBbt>dkMBBBMk,=sBVjjbFFFFFFFFFF",
"FFFFFFFFFVbw,kBBMBbBMBBd>sMbghvFFFFFFFFF",
"FFFFFFFFnVt,kBBBBkkBBBBBs&gBppgcFFFFFFFF",
"FFFFFFFFVp;bbBBMB1=bBBBkBi;kj::rFFFFFFFF",
"FFFFFFFAB&gBMBBMBh<bBMMBBb<1Bu:%lFFFFFFF",
"FFFFFFFVg&kBBBBBBbjBMBBBBBf>Bs%#0FFFFFFF",
"FFFFFFFBuuBMbkbBMktBBMbbBBM,sf##0FFFFFFF",
"FFFFFFFb;hBBj>bBBd,bBButbMM2<b%#%FFFFFFF",
"FFFFFFAj;kBBk1bBB,=kBBs1BBMd,M%O#eFFFFFF",
"FFFFFFVd;kBBBksMk>=hBgdMMBBk>k0O#8FFFFFF",
"FFFFFFVd>kBBBB,1s==up&kBBMBk>d%OO8FFFFFF",
"FFFFFFBd>kkkMM1-++>=+,BMMMBk;2$OO8FFFFFF",
"FFFFFFhy=,2ddkd>>-+-+dBMBBki=i$3o4FFFFFF",
"FFFFFFi1*222222-+--++dkkhd2>,i#33eFFFFFF",
"FFFFFFv2;<22222+***==212222>,2@33FFFFFFF",
"FFFFFFFi;;22222>;;*=-222222*<,o34FFFFFFF",
"FFFFFFFi1*2222221i11222222<;i&XX3FFFFFFF",
"FFFFFFFp2;<222222222222222-,27XX4FFFFFFF",
"FFFFFFFFy<*22222222222<22<;2t3X3FFFFFFFF",
"FFFFFFFFa2;;2222222222221=,y9.X4FFFFFFFF",
"FFFFFFFFFi1;>22222222222=;iw3.3FFFFFFFFF",
"FFFFFFFFFv11-;22222222,==iy7.3FFFFFFFFFF",
"FFFFFFFFFFa22<+><22<,;=,2y7XX4FFFFFFFFFF",
"FFFFFFFFFFFpi2y,;;;;=,12y7335FFFFFFFFFFF",
"FFFFFFFFFFFFFai22iiiiiywo34FFFFFFFFFFFFF",
"FFFFFFFFFFFFFFFipiiiyt845FFFFFFFFFFFFFFF",
"FFFFFFFFFFFFFFFFFFFFFFFFFFFFFFFFFFFFFFFF",
"FFFFFFFFFFFFFFFFFFFFFFFFFFFFFFFFFFFFFFFF",
"FFFFFFFFFFFFFFFFFFFFFFFFFFFFFFFFFFFFFFFF",
"FFFFFFFFFFFFFFFFFFFFFFFFFFFFFFFFFFFFFFFF",
"FFFFFFFFFFFFFFFFFFFFFFFFFFFFFFFFFFFFFFFF"
};
