/* XPM */
static char *result[] = {
/* columns rows colors chars-per-pixel */
"40 40 148 2 ",
"   c #DB7F20",
".  c #DB811F",
"X  c #DC821F",
"o  c #DB841F",
"O  c #DD871F",
"+  c #DE8D1B",
"@  c #DF8F1A",
"#  c #DF8E1B",
"$  c #DF8F1B",
"%  c #DE881D",
"&  c #DE881E",
"*  c #DE891E",
"=  c #DE881F",
"-  c #DE8B1F",
";  c #DF8D1C",
":  c #DF8D1E",
">  c #DF9019",
",  c #E08E1A",
"<  c #E08F1B",
"1  c #E38E1F",
"2  c #E0911A",
"3  c #E0901B",
"4  c #E1901B",
"5  c #E2921B",
"6  c #E3921B",
"7  c #E2941B",
"8  c #E3961B",
"9  c #E5951B",
"0  c #E1901C",
"q  c #E1901D",
"w  c #E3901C",
"e  c #E3911C",
"r  c #E3901D",
"t  c #E3911D",
"y  c #E3921C",
"u  c #E3921E",
"i  c #E4931E",
"p  c #E4921F",
"a  c #E3941C",
"s  c #E6951E",
"d  c #E79C1B",
"f  c #E5991C",
"g  c #E59A1F",
"h  c #E99B1B",
"j  c #EA9A1E",
"k  c #E89D1D",
"l  c #E99E1D",
"z  c #EBA11D",
"x  c #ECA11D",
"c  c #EDA31E",
"v  c #EDA31F",
"b  c #DB8020",
"n  c #DB8120",
"m  c #DB8121",
"M  c #DB8220",
"N  c #DB8320",
"B  c #DC8220",
"V  c #DC8320",
"C  c #DD8222",
"Z  c #DB8521",
"A  c #DE8423",
"S  c #DF8523",
"D  c #DB8524",
"F  c #DB8626",
"G  c #DB8627",
"H  c #DB8727",
"J  c #DC8726",
"K  c #DD8B27",
"L  c #DE8E26",
"P  c #DB8728",
"I  c #DC8828",
"U  c #DE8928",
"Y  c #DF8B2B",
"T  c #DF9127",
"R  c #E08524",
"E  c #E08625",
"W  c #E18625",
"Q  c #E28626",
"!  c #E38726",
"~  c #E28D20",
"^  c #E38E20",
"/  c #E18824",
"(  c #E38924",
")  c #E38925",
"_  c #E08B2A",
"`  c #E08D2B",
"'  c #E18D2B",
"]  c #E08B2C",
"[  c #E29025",
"{  c #E39224",
"}  c #E09127",
"|  c #E19227",
" . c #E39427",
".. c #E59927",
"X. c #EC9F22",
"o. c #E29028",
"O. c #E49628",
"+. c #EFA620",
"@. c #EFA720",
"#. c #EFA721",
"$. c #ECA027",
"%. c #EFA920",
"&. c #EFAA22",
"*. c #EFA925",
"=. c #EEA927",
"-. c #EEAA26",
";. c #E8AA2A",
":. c #F0A920",
">. c #F0AA20",
",. c #F1AB21",
"<. c #F0AC22",
"1. c #F0AC29",
"2. c #F5B325",
"3. c #F5B525",
"4. c #F6B625",
"5. c #F5B526",
"6. c #F7B926",
"7. c #F7BA27",
"8. c #F9BE25",
"9. c #FABE25",
"0. c #F8BC27",
"q. c #F2B12B",
"w. c #F3B32D",
"e. c #F3B52D",
"r. c #F4B52D",
"t. c #F6BA2A",
"y. c #F7B92D",
"u. c #FBBF28",
"i. c #FABF2A",
"p. c #FBBF2D",
"a. c #F7BB32",
"s. c #F9BD31",
"d. c #F8BD37",
"f. c #F6BF3D",
"g. c #FCC02B",
"h. c #FEC23D",
"j. c #FCC63D",
"k. c #F8CE68",
"l. c #FCD161",
"z. c #FCD16A",
"x. c #FDD46B",
"c. c #FCD674",
"v. c #FBDE94",
"b. c #F9E0A2",
"n. c #FEEBB8",
"m. c cornsilk",
"M. c #FFF9E2",
"N. c None",
/* pixels */
"N.N.N.N.N.N.N.N.N.N.N.N.N.N.N.N.N.N.N.N.N.N.N.N.N.N.N.N.N.N.N.N.N.N.N.N.N.N.N.N.",
"N.N.N.N.N.N.N.N.N.N.N.N.N.N.N.N.N.N.N.N.N.N.N.N.N.N.N.N.N.N.N.N.N.N.N.N.N.N.N.N.",
"N.N.N.N.N.N.N.N.N.N.N.N.N.N.N.N.N.N.N.N.N.N.N.N.N.N.N.N.N.N.N.N.N.N.N.N.N.N.N.N.",
"N.N.N.N.N.N.N.N.N.N.N.N.N.N.N.N.N.N.N.N.N.N.N.N.N.N.N.N.N.N.N.N.N.N.N.N.N.N.N.N.",
"N.N.N.N.N.N.N.N.N.N.N.N.N.N.N.N.N.N.N.N.N.N.N.N.N.N.N.N.N.N.N.N.N.N.N.N.N.N.N.N.",
"N.N.N.N.N.N.N.N.N.N.N.N.N.N.N.N.N.-.#.@.+.+.N.N.N.N.N.N.N.N.N.N.N.N.N.N.N.N.N.N.",
"N.N.N.N.N.N.N.N.N.N.N.N.N.N.N.N.N.;.&.%.:.>.*.N.N.N.N.N.N.N.N.N.N.N.N.N.N.N.N.N.",
"N.N.N.N.N.N.N.N.N.N.N.N.N.N.N.N.N.b.v.k.f.t.r.N.N.N.N.N.N.N.N.N.N.N.N.N.N.N.N.N.",
"N.N.N.N.N.N.N.N.N.N.N.N.N.N.N.N.N.m.M.n.c.j.d.N.N.N.N.N.N.N.N.N.N.N.N.N.N.N.N.N.",
"N.N.N.N.N.N.N.N.N.N.N.N.N.N.N.N.N.z.x.l.h.g.s.N.N.N.N.N.N.N.N.N.N.N.N.N.N.N.N.N.",
"N.N.N.N.N.N.N.N.N.N.N.N.N.N.N.N.N.p.9.8.u.i.a.N.N.N.N.N.N.N.N.N.N.N.N.N.N.N.N.N.",
"N.N.N.N.N.N.N.N.N.N.N.N.N.N.N.N.N.y.6.7.0.7.e.N.N.N.N.N.N.N.N.N.N.N.N.N.N.N.N.N.",
"N.N.N.N.N.N.N.N.N.N.N.N.N.N.N.N.N.w.2.5.4.3.q.N.N.N.N.N.N.N.N.N.N.N.N.N.N.N.N.N.",
"N.N.N.N.N.N.N.N.N.N.N.N.N.N.N.N.N.1.<.<.,.%.=.N.N.N.N.N.N.N.N.N.N.N.N.N.N.N.N.N.",
"N.N.N.N.N.N.N.N.N.N.N.N.N.N.N.N.N.X.z v c x $.N.N.N.N.N.N.N.N.N.N.N.N.N.N.N.N.N.",
"N.N.N.N.N.N.N.N.N.N.N.N.N.N.N.N.N.j h k l d ..N.N.N.N.N.N.N.N.N.N.N.N.N.N.N.N.N.",
"N.N.N.N.N.N.N.N.N.N.N.N.N.N.N.N.N.s 9 8 g f O.N.N.N.N.N.N.N.N.N.N.N.N.N.N.N.N.N.",
"N.N.N.N.N.N.N.N.N.N.N.N.N.N.N.N.N.i y 5 a 7  .N.N.N.N.N.N.N.N.N.N.N.N.N.N.N.N.N.",
"N.N.N.N.N.N.N.N.N.N.N.N.N.N.N.N.N.u 4 2 0 3 | N.N.N.N.N.N.N.N.N.N.N.N.N.N.N.N.N.",
"N.N.N.N.N.N.N.N.N.N.N.N.N.N.N.N.N.q $ > @ < } N.N.N.N.N.N.N.N.N.N.N.N.N.N.N.N.N.",
"N.N.N.N.N.N.N.N.N.N.N.N.N.N.N.N.N.: # , , # T N.N.N.N.N.N.N.N.N.N.N.N.N.N.N.N.N.",
"N.N.N.N.N.N.N.N.N.N.N.N.N.N.N.N.N.- ; # # + L N.N.N.N.N.N.N.N.N.N.N.N.N.N.N.N.N.",
"N.N.N.N.N.N.N.N.N.N.N.N.N.N.N.N.N.O = * & % K N.N.N.N.N.N.N.N.N.N.N.N.N.N.N.N.N.",
"N.N.N.N.N.N.N.N.N.N.N.N.N.N.N.N.N.N V B B X I N.N.N.N.N.N.N.N.N.N.N.N.N.N.N.N.N.",
"N.N.N.N.N.N.N.N.N.N.N.N.N.N.N.N.N.o M   b n P N.N.N.N.N.N.N.N.N.N.N.N.N.N.N.N.N.",
"N.N.N.N.N.N.N.N.N.N.N.N.N.N.N.N.N.Z M b b n P N.N.N.N.N.N.N.N.N.N.N.N.N.N.N.N.N.",
"N.N.N.N.N.N.N.N.N.N.N.N.N.N.N.N.N.D b b b n H N.N.N.N.N.N.N.N.N.N.N.N.N.N.N.N.N.",
"N.N.N.N.N.N.N.N.N.N.N.N.N.N.N.N.N.F m C B . G N.N.N.N.N.N.N.N.N.N.N.N.N.N.N.N.N.",
"N.N.N.N.N.N.N.N.N.N.N.N.N.N.N.N.N.I A R S B J N.N.N.N.N.N.N.N.N.N.N.N.N.N.N.N.N.",
"N.N.N.N.N.N.N.N.N.N.N.N.N.N.N.N.N.Y R W R S U N.N.N.N.N.N.N.N.N.N.N.N.N.N.N.N.N.",
"N.N.N.N.N.N.N.N.N.N.N.N.N.N.N.N.N.] E ! Q W _ N.N.N.N.N.N.N.N.N.N.N.N.N.N.N.N.N.",
"N.N.N.N.N.N.N.N.N.N.N.N.N.N.N.N.N.` / ) ) ( ' N.N.N.N.N.N.N.N.N.N.N.N.N.N.N.N.N.",
"N.N.N.N.N.N.N.N.N.N.N.N.N.N.N.N.N.[ ~ ^ ^ 1 o.N.N.N.N.N.N.N.N.N.N.N.N.N.N.N.N.N.",
"N.N.N.N.N.N.N.N.N.N.N.N.N.N.N.N.N.p r t r w { N.N.N.N.N.N.N.N.N.N.N.N.N.N.N.N.N.",
"N.N.N.N.N.N.N.N.N.N.N.N.N.N.N.N.N.N.u y e 6 N.N.N.N.N.N.N.N.N.N.N.N.N.N.N.N.N.N.",
"N.N.N.N.N.N.N.N.N.N.N.N.N.N.N.N.N.N.N.N.N.N.N.N.N.N.N.N.N.N.N.N.N.N.N.N.N.N.N.N.",
"N.N.N.N.N.N.N.N.N.N.N.N.N.N.N.N.N.N.N.N.N.N.N.N.N.N.N.N.N.N.N.N.N.N.N.N.N.N.N.N.",
"N.N.N.N.N.N.N.N.N.N.N.N.N.N.N.N.N.N.N.N.N.N.N.N.N.N.N.N.N.N.N.N.N.N.N.N.N.N.N.N.",
"N.N.N.N.N.N.N.N.N.N.N.N.N.N.N.N.N.N.N.N.N.N.N.N.N.N.N.N.N.N.N.N.N.N.N.N.N.N.N.N.",
"N.N.N.N.N.N.N.N.N.N.N.N.N.N.N.N.N.N.N.N.N.N.N.N.N.N.N.N.N.N.N.N.N.N.N.N.N.N.N.N."
};
