/* XPM */
static char *result[] = {
/* columns rows colors chars-per-pixel */
"40 40 45 1 ",
"  c #F79E0F",
". c #F89D0F",
"X c #EF9A13",
"o c #EF9D18",
"O c #F39712",
"+ c #F49C14",
"@ c #F89E11",
"# c #F39E19",
"$ c #EFA019",
"% c #F5A116",
"& c #F8A417",
"* c #F5A31B",
"= c #F9A61B",
"- c #F6AA1E",
"; c #FAAA1D",
": c #FAB01E",
"> c #F3A623",
", c #F6AA22",
"< c #F9AC22",
"1 c #F4AE2A",
"2 c #FAAD2A",
"3 c #F5B124",
"4 c #FBB323",
"5 c #F7B22B",
"6 c #FAB42A",
"7 c #F7BA2A",
"8 c #FCBB2C",
"9 c #F2AF33",
"0 c #F5B231",
"q c #F9B332",
"w c #FEBD32",
"e c #F7BF3D",
"r c #FCBE3B",
"t c #FEC12F",
"y c #FFC131",
"u c #FDC23C",
"i c #FDC343",
"p c #F9C846",
"a c #FCC64E",
"s c #FACA4F",
"d c #F9CA56",
"f c #F8CB5D",
"g c #F9D35A",
"h c #FCCE61",
"j c None",
/* pixels */
"jjjjjjjjjjjjjjjjjjjjjjjjjjjjjjjjjjjjjjjj",
"jjjjjjjjjjjjjjjjjjjjjjjjjjjjjjjjjjjjjjjj",
"jjjjjjjjjjjjjjjjjjjjjjjjjjjjjjjjjjjjjjjj",
"jjjjjjjjjjjjjjjjjjjjjjjjjjjjjjjjjjjjjjjj",
"jjjjjjjjjjjjjjjjjjjjjjjjjjjjjjjjjjjjjjjj",
"jjjjjjjjjjjjjjjjiuyyuyuijjjjjjjjjjjjjjjj",
"jjjjjjjjjjjjjpuwyww8wwwwyuijjjjjjjjjjjjj",
"jjjjjjjjjjjjiyw6,&##&##>6wyujjjjjjjjjjjj",
"jjjjjjjjjjfrw6*+%;:444-*+*2wupjjjjjjjjjj",
"jjjjjjjjjdrw>+&48yyyyyyy8-+*6yrjjjjjjjjj",
"jjjjjjjjhrw*+5tyytttyttyty4@#1yijjjjjjjj",
"jjjjjjjjiw**ryyyyyt66yytytyw>o8yjjjjjjjj",
"jjjjjjjaw>$rwyytty8++8tyyyyw8*#8ujjjjjjj",
"jjjjjjju7o0uyyyyyty3<yyttttyw8+>wujjjjjj",
"jjjjjjay*>iyyyyytyy80ytyyywywy4+8rjjjjjj",
"jjjjjju6+6yyw6qyyyy,>yytywwyyyw&,yjjjjjj",
"jjjjjgy-%8ytw*%8tyt**wwy8**wtyy-#wrjjjjj",
"jjjjjsy*&tyyy64wyy7%+8yyw<,wyty6%6ujjjjj",
"jjjjjaw%;tytyy7<wy*.+6y6>8yytty8+6ujjjjj",
"jjjjjp8%:ttyyt8&*6% +,3+%wytyttt@<4jjjjj",
"jjjjji4&-888ttt-++@.@+++<yttttt8@*<jjjjj",
"jjjjj6-&%;;::484@..+@@@%tyttt84-+=2jjjjj",
"jjjjj2;*+;;;;;;;++..@@.;88844;;=O<2jjjjj",
"jjjjjj-=+=;;;;;&++OOO+O=-;;;;;;+#<qjjjjj",
"jjjjjj<-+=;;;;;;&$#+#+@;;;;;;;;.=<jjjjjj",
"jjjjjj<;#+-;;;;;-<,<<;;;;;;;;;+.;<jjjjjj",
"jjjjjjj<-+=;;;;;;;;;=;;;;;;;;=+&<jjjjjjj",
"jjjjjjj2-#+;=;;;;;;;;;;;;;;;;+#-2jjjjjjj",
"jjjjjjjj<=++=;;;;;;;;=;;;;;=+X-<jjjjjjjj",
"jjjjjjjjj-<++=;;;;;;;;;;;;=++--0jjjjjjjj",
"jjjjjjjjj0<;*X#=;;;;=;;;=&+#;<1jjjjjjjjj",
"jjjjjjjjjjj<<-&+@&=&===#++*-<2jjjjjjjjjj",
"jjjjjjjjjjjj2<;***&####=*<<<jjjjjjjjjjjj",
"jjjjjjjjjjjjjj<<-<<-<<<<<<2jjjjjjjjjjjjj",
"jjjjjjjjjjjjjjjjj226<629jjjjjjjjjjjjjjjj",
"jjjjjjjjjjjjjjjjjjjjjjjjjjjjjjjjjjjjjjjj",
"jjjjjjjjjjjjjjjjjjjjjjjjjjjjjjjjjjjjjjjj",
"jjjjjjjjjjjjjjjjjjjjjjjjjjjjjjjjjjjjjjjj",
"jjjjjjjjjjjjjjjjjjjjjjjjjjjjjjjjjjjjjjjj",
"jjjjjjjjjjjjjjjjjjjjjjjjjjjjjjjjjjjjjjjj"
};
