/* XPM */
static char *result[] = {
/* columns rows colors chars-per-pixel */
"40 40 82 1 ",
"  c #D77B1F",
". c #D87D1F",
"X c #D77C20",
"o c #D97D22",
"O c #DB841E",
"+ c #DE8B1D",
"@ c #E08E1A",
"# c #EE9715",
"$ c #E3931B",
"% c #ED971D",
"& c #E69A1C",
"* c #EA9C1C",
"= c #F39D15",
"- c #F29D1B",
"; c #ECA21E",
": c #F6A314",
"> c #F8A613",
", c #F7A915",
"< c #F8AB13",
"1 c #F5A31B",
"2 c #F8A51B",
"3 c #F5AC1A",
"4 c #FBAA1C",
"5 c #F7B016",
"6 c #F9B115",
"7 c #FBBB17",
"8 c #F6B11C",
"9 c #FAB31C",
"0 c #F6BB1B",
"q c #FABB1B",
"w c #DA8223",
"e c #DD8824",
"r c #DA832B",
"t c #DB8A2B",
"y c #E28A20",
"u c #E59222",
"i c #E49D22",
"p c #EE9921",
"a c #EEA522",
"s c #EEA920",
"d c #EDAB28",
"f c #F5A225",
"g c #F8A620",
"h c #F5AD23",
"j c #FAAC22",
"k c #F2AF2F",
"l c #FAAD2D",
"z c #EEB02A",
"x c #F4B224",
"c c #F9B324",
"v c #F7BA23",
"b c #FABB24",
"n c #F4B32C",
"m c #FAB628",
"M c #F5B92D",
"N c #FBBC2B",
"B c #E2A233",
"V c #EEB133",
"C c #F1B232",
"Z c #F8BC32",
"A c #FAC11B",
"S c #FCC81E",
"D c #F7C222",
"F c #FBC324",
"G c #FDCD22",
"H c #F7C02B",
"J c #FDC42C",
"K c #FCCB2C",
"L c #FED32E",
"P c #F5C637",
"I c #FEC331",
"U c #FDCB33",
"Y c #FECD39",
"T c #FFD432",
"R c #FFD832",
"E c #FFD53B",
"W c #FACC43",
"Q c #FED142",
"! c #FCD449",
"~ c #FCD65D",
"^ c #F8D560",
"/ c None",
/* pixels */
"////////////////////////////////////////",
"////////////////////////////////////////",
"////////////////////////////////////////",
"////////////////////////////////////////",
"////////////////////////////////////////",
"///////////////QEEEWVi*iB///////////////",
"//////////////ETLRTREPMxxz//////////////",
"/////////////ELFAAqDKE~PFDH/////////////",
"////////////EL07SGGA0K!^KJJJ////////////",
"///////////QT0ALRRRRGqJQUFbHI///////////",
"///////////YbALRLRRRRFqKYmvvm///////////",
"//////////QKqLRRRKLLRR0bPMxnmZ//////////",
"//////////EDFRLRLqKLTRK8JMxxnM//////////",
"//////////LqLLRLRFKRTTUbbPxxxx//////////",
"/////////QKALLRRTUUUTUUJ8IhsshC/////////",
"/////////QbSRRLUTbKUUUIJ3Insssd/////////",
"/////////YqKTKDUU8JUb8II9JC;*;a/////////",
"/////////UqLTUKTJ,bImmIIcnn*&;a/////////",
"/////////U0UTTIKN:mJjIJIchk$&&&/////////",
"/////////U0TUTJbh:h1cZIIc4a@$$$/////////",
"/////////Z9JKUJ6<:::mJIIc2-@+@@/////////",
"/////////c,99bJ6<<>>NZNmg4*+@@$/////////",
"/////////j24999<>>:>Nmc4-4pO+++/////////",
"/////////j1,4992===:j444-2$O++e/////////",
"/////////l11449,:-==4444=2@owOe/////////",
"/////////C214444jj44444--gwX.Ot/////////",
"//////////g=24444444444-2-oXXo//////////",
"//////////j124444444442-h$XoXo//////////",
"//////////ng=444444444-2gyXXXr//////////",
"///////////j2=4444444-%gpXXXw///////////",
"///////////l4-244444f#-gyXXor///////////",
"////////////j4=-222=#24p Xoo////////////",
"/////////////j4g11-14gpo..w/////////////",
"//////////////ghjjjc4pwXXr//////////////",
"///////////////Chjjfurrr////////////////",
"////////////////////////////////////////",
"////////////////////////////////////////",
"////////////////////////////////////////",
"////////////////////////////////////////",
"////////////////////////////////////////"
};
