/* XPM */
static char *result[] = {
/* columns rows colors chars-per-pixel */
"40 40 74 1 ",
"  c #D57C1E",
". c #D87F1D",
"X c #D67C20",
"o c #D97E21",
"O c #DC8917",
"+ c #D6821C",
"@ c #DA841D",
"# c #DE8C1B",
"$ c #DE911B",
"% c #E08B17",
"& c #E08E1A",
"* c #E29119",
"= c #EB971B",
"- c #EB9D1C",
"; c #EDA21B",
": c #F3A51B",
"> c #F2AA1C",
", c #F8AA1D",
"< c #DA8221",
"1 c #DE8D22",
"2 c #D6852B",
"3 c #DC832B",
"4 c #DC8B2D",
"5 c #DA9726",
"6 c #DB9A2C",
"7 c #DE8332",
"8 c #DF9132",
"9 c #DD9D30",
"0 c #E08F25",
"q c #E39322",
"w c #E29822",
"e c #EA9A21",
"r c #E39229",
"t c #E09929",
"y c #E49C31",
"u c #EBA321",
"i c #EFAA24",
"p c #EAA629",
"a c #EDAC2D",
"s c #F2A623",
"d c #F4AD23",
"f c #FAAE21",
"g c #F6A52E",
"h c #FBB524",
"j c #FCBA27",
"k c #F5B42B",
"l c #FCB329",
"z c #F5B82F",
"x c #FDBC2A",
"c c #F2B232",
"v c #F2B93C",
"b c #FDC32D",
"n c #FDC432",
"m c #FEC936",
"M c #F6C73C",
"N c #FCC63C",
"B c #FECB39",
"V c #E5A546",
"C c #EEBC47",
"Z c #F3BF4A",
"A c #FECF45",
"S c #FBCD48",
"D c #FDD04E",
"F c #FFDB66",
"G c #FCDA74",
"H c #F9E279",
"J c #F0CB87",
"K c #F0D083",
"L c #FDE593",
"P c #FCEDAF",
"I c #FDEEBB",
"U c #FFF0C1",
"Y c #FCF4D0",
"T c None",
/* pixels */
"TTTTTTTTTTTTTTTTTTTTTTTTTTTTTTTTTTTTTTTT",
"TTTTTTTTTTTTTTTTTTTTTTTTTTTTTTTTTTTTTTTT",
"TTTTTTTTTTTTTTTTTTTTTTTTTTTTTTTTTTTTTTTT",
"TTTTTTTTTTTTTTTTTTTTTTTTTTTTTTTTTTTTTTTT",
"TTTTTTTTTTTTTTTTTTTTTTTTTTTTTTTTTTTTTTTT",
"TTTTTTTTTTTTTTTMmnbzu=*tTTTTTTTTTTTTTTTT",
"TTTTTTTTTTTTTTnbbnv*#####0TTTTTTTTTTTTTT",
"TTTTTTTTTTTTTBnmSZ5%####O#0TTTTTTTTTTTTT",
"TTTTTTTTTTTTASGLKw%O%****&OrTTTTTTTTTTTT",
"TTTTTTTTTTTHHLIYV%O******&##8TTTTTTTTTTT",
"TTTTTTTTTTTFLPUJ#O%****$**##1TTTTTTTTTTT",
"TTTTTTTTTTNmSSGyO#****#$&*&O18TTTTTTTTTT",
"TTTTTTTTTTnnnnC1O&&&&#O#***##rTTTTTTTTTT",
"TTTTTTTTTTbbbba##&&&&&##*#&&OqTTTTTTTTTT",
"TTTTTTTTTnxxbjeO&&#&#&&$##&&#$9TTTTTTTTT",
"TTTTTTTTTxjjhh#@&&##&*O**##&&O6TTTTTTTTT",
"TTTTTTTTTbjjhs@+&&@@$#O$$O#*OO5TTTTTTTTT",
"TTTTTTTTTxjjhe@+#&##$# O$OO**O$TTTTTTTTT",
"TTTTTTTTTxjjh-X+#&###O+O$#$*&@5TTTTTTTTT",
"TTTTTTTTTlhhheX@&&$@+O @OO&#&O*TTTTTTTTT",
"TTTTTTTTThfhhe..@&&#@ +.+#&&&O1TTTTTTTTT",
"TTTTTTTTTl,ffe X<<@#+.@ @##&&##TTTTTTTTT",
"TTTTTTTTTg::,=X <.@<@.@.@#&#O#1TTTTTTTTT",
"TTTTTTTTTs:::=XXo<@#+  .@@###+4TTTTTTTTT",
"TTTTTTTTTa::,:oXX<@@@...@<@&<<4TTTTTTTTT",
"TTTTTTTTTa::::@  oo<<@@@<@##@@TTTTTTTTTT",
"TTTTTTTTTT;;-:& XXo.X<.o@@@<+<TTTTTTTTTT",
"TTTTTTTTTTu;-;=  XoXo oo<<@@ 3TTTTTTTTTT",
"TTTTTTTTTTp;;;;<X XXXXoo<@<  7TTTTTTTTTT",
"TTTTTTTTTTTu;;:qX XXX o.o< X<TTTTTTTTTTT",
"TTTTTTTTTTTa;;>uXX XXXXX.XXXTTTTTTTTTTTT",
"TTTTTTTTTTTTi>;>rX  XXoXXXX2TTTTTTTTTTTT",
"TTTTTTTTTTTTTd>>>eXXX XXXooTTTTTTTTTTTTT",
"TTTTTTTTTTTTTTkf>de<XXXXXoTTTTTTTTTTTTTT",
"TTTTTTTTTTTTTTTTczlgr334TTTTTTTTTTTTTTTT",
"TTTTTTTTTTTTTTTTTTTTTTTTTTTTTTTTTTTTTTTT",
"TTTTTTTTTTTTTTTTTTTTTTTTTTTTTTTTTTTTTTTT",
"TTTTTTTTTTTTTTTTTTTTTTTTTTTTTTTTTTTTTTTT",
"TTTTTTTTTTTTTTTTTTTTTTTTTTTTTTTTTTTTTTTT",
"TTTTTTTTTTTTTTTTTTTTTTTTTTTTTTTTTTTTTTTT"
};
