/* XPM */
static char *result[] = {
/* columns rows colors chars-per-pixel */
"68 66 149 2 ",
"   c magenta",
".  c black",
"X  c #FFFF22",
"o  c #FFFF11",
"O  c #FFEE11",
"+  c #FFEE00",
"@  c #FF8800",
"#  c #FFFF33",
"$  c #FFAA00",
"%  c #EE8800",
"&  c #EE7700",
"*  c #FFBB33",
"=  c #FFCC33",
"-  c #FFDD33",
";  c #FFEE33",
":  c #FFDD22",
">  c #FFDD11",
",  c #FFDD00",
"<  c #FFCC00",
"1  c #FF9900",
"2  c #DD7700",
"3  c #FFAA33",
"4  c #FF9922",
"5  c #FF9911",
"6  c #DD6600",
"7  c #FFBB00",
"8  c #FFAA22",
"9  c #EE9900",
"0  c #CC6600",
"q  c #EEDD00",
"w  c #EECC00",
"e  c #DD9900",
"r  c #FFEE22",
"t  c #EEEE00",
"y  c #DDDD00",
"u  c #DDAA00",
"i  c #DD8800",
"p  c #DDCC00",
"a  c #DDBB00",
"s  c #CC7700",
"d  c #CCAA00",
"f  c #CC9900",
"g  c #CCBB00",
"h  c #CCCC00",
"j  c #CC8800",
"k  c #BB6611",
"l  c #BB7711",
"z  c #AA7722",
"x  c #AA6622",
"c  c #996622",
"v  c #BB6622",
"b  c #CC6611",
"n  c #BB6600",
"m  c #BB5500",
"M  c #AA6611",
"N  c #885522",
"B  c #775522",
"V  c #776633",
"C  c #775533",
"Z  c #776644",
"A  c #665533",
"S  c #887755",
"D  c #887744",
"F  c #997744",
"G  c #BBAA00",
"H  c #995511",
"J  c #884411",
"K  c #774422",
"L  c #777744",
"P  c #777755",
"I  c #333322",
"U  c #555544",
"Y  c #665544",
"T  c #666644",
"R  c #222222",
"E  c #555533",
"W  c #443322",
"Q  c #AA7733",
"!  c #774411",
"~  c #776655",
"^  c #222211",
"/  c #AA5500",
"(  c #886644",
")  c #887766",
"_  c #AAAA77",
"`  c #AA9977",
"'  c #999977",
"]  c #998855",
"[  c #AA8855",
"{  c #CC5500",
"}  c #774400",
"|  c #554433",
" . c #AAAA88",
".. c #998866",
"X. c #886622",
"o. c #773300",
"O. c #444433",
"+. c #221111",
"@. c #BBAA88",
"#. c #886633",
"$. c #552200",
"%. c #888866",
"&. c #AA5511",
"*. c #994400",
"=. c #442200",
"-. c #111111",
";. c #664411",
":. c #BBBB99",
">. c #BBBB88",
",. c #664422",
"<. c #AA4400",
"1. c #331100",
"2. c #CCBB99",
"3. c #CCCCAA",
"4. c #999966",
"5. c #CCAA11",
"6. c #110000",
"7. c #442211",
"8. c #DDDDBB",
"9. c #EEEECC",
"0. c #EEDDCC",
"q. c #EEDDBB",
"w. c #DDCCAA",
"e. c #CCBBAA",
"r. c #443333",
"t. c #553311",
"y. c #CCBB11",
"u. c #EEEEDD",
"i. c #332200",
"p. c #BB9911",
"a. c #BB7700",
"s. c #111100",
"d. c #DDDDCC",
"f. c #FFEEDD",
"g. c #AA9988",
"h. c #221100",
"j. c #CC9911",
"k. c #AA7700",
"l. c #CCCC11",
"z. c #DDCCBB",
"x. c #BBAA22",
"c. c #BB9900",
"v. c #BB9922",
"b. c #FFEEEE",
"n. c #884400",
"m. c #BB8800",
"M. c #FFFFEE",
"N. c #BBAA99",
"B. c white",
/* pixels */
"                                                                                                                                        ",
"                                                                                                                                        ",
"                                                                                                                                        ",
"                                                                                                                                        ",
"                                                                                                                                        ",
"                                                                  . . . . . . . . . .                                                   ",
"                                                          . . . . X X o O + + @ @ @ @ . . . .                                           ",
"                                                      . . # # # # X o O + + $ @ @ @ @ % & & & . .                                       ",
"                                                  . . * * = - ; : > , < $ 1 @ @ @ @ @ @ & & & 2 2 . .                                   ",
"                                                . * * 3 3 3 3 4 5 @ @ @ @ @ @ @ @ @ @ @ @ % & 2 2 2 6 .                                 ",
"                                            . . * * 3 3 4 4 5 5 @ @ @ @ @ @ @ @ @ 1 $ 7 $ @ & & 2 2 2 6 .                               ",
"                                      . . . # # - 8 8 8 4 5 5 1 @ @ @ @ @ @ @ @ 1 , + + + + < 9 2 2 2 6 0 .                             ",
"                                . . . # # X o o $ @ @ @ @ @ @ @ @ @ @ @ @ @ @ $ , + + + + + + q w e 2 6 0 0 .                           ",
"                            . . 3 3 r X r O , $ @ @ @ @ @ @ @ @ @ @ @ @ @ @ 1 + + + + + + + t q q y u 2 6 0 .                           ",
"                        . . 5 4 5 @ $ < 7 1 @ @ @ & & & & & & & & & & & & & & w q q q q q q q q q q y u 6 0 0 .                         ",
"                    . . 7 @ @ @ @ @ @ @ % & & & & & 2 2 2 2 2 2 2 2 2 2 2 2 2 i p p p y y q y y y y q w i 0 0 0 .                       ",
"                  . + + @ @ @ @ & & & & & 2 2 2 2 2 2 2 2 6 6 6 6 6 6 6 6 0 0 0 i a p p p p p p p p y y e 6 0 0 .                       ",
"                . + + $ @ @ & & 2 2 2 2 2 2 2 2 2 2 2 e e 2 2 6 6 2 2 2 2 6 0 0 0 s d p p p p p p p p p i 6 0 0 0 .                     ",
"              . + + + @ & 2 2 2 6 2 2 2 2 2 6 6 0 f g g g g f 0 0 0 0 0 0 0 6 0 0 0 0 s f g g h p p p u 2 2 6 0 0 0 .                   ",
"              . + + w 2 2 2 0 0 0 0 6 6 0 0 0 0 s g g g d d d s 0 0 0 0 0 0 0 0 0 0 0 0 0 0 s j j j i 2 2 2 2 6 6 0 g .                 ",
"            . + + q u 0 0 0 0 0 0 0 0 0 0 0 k k l z x x x x x c c c x v k b 0 0 0 0 0 0 0 0 0 n m n 0 0 6 2 2 2 6 6 a a . .             ",
"            . + q p s 0 0 0 0 0 0 0 k M c N N B V C C V V Z Z A Z Z S S D F N x v k b b 0 0 0 0 n m m m n 0 6 2 2 2 e a a a .           ",
"          . + + p G m 0 0 0 0 n H J K B C Z L S P I U Y T P P R Y Y T T S E W P D D Q z k b 0 0 0 0 m m m m n 0 2 2 2 a a a a .         ",
"          . + q d n m 0 0 n H ! B Z P ~ U Z T T T ^ . . . . . . . . . . . . . . . . S D W c v b 0 0 0 0 m m m m n 0 6 2 u g g g .       ",
"          . < i m / m 0 / ! B ( S S S Z ^ I E . . . ) _ ` ` ` ` ` ` ` ` ` ' ` ` ` ` . . . ] [ Q l b 0 0 0 0 m m / m m 0 0 d g g g .     ",
"          . @ 0 m m { m } B S Y E P P U | . . '  . . .` ` ` ` ` ` ` ` ` ` ` ` ` ` ` ` ' ` . . ..D X.M b 0 0 0 n m / / m 0 0 j f d f .   ",
"          . % 0 / m { o.! S S S O.^ +.+.. '  .@.@.@. ._ _ _ _ _ _ _ ` _ _ _  . ._ ` ` ` ` ` _ . . W #.c M 0 0 0 m / / / / m 0 0 0 0 .   ",
"          . & 0 m m / $.B S S P T Y | . ' @.@.@.@.@.@. . . . . . . . . . . .@.@.@.@. ._ _ ` ` ' %..  .[ X.&.b 0 b n m / / / m 0 0 0 0 . ",
"            . 0 m m *.=.N S P ~ U -.. ` @.@.@.@.@.@.@.@.@.@.@.@.@.@.@.@.@.@.@.@.@.@.@.@.@. . ._  .@.. S Z B H k b b n m / / / m { 0 0 . ",
"            . 0 n { / =.;.Z E I I ^ . @.:.@.. . . @.@.@.@.@.@.>.@.@.@.@.@.@.@.@.@.@.@.@.@.@.@.@. .@.%.. O.Y ,.! M b 0 m / / <./ m 0 0 . ",
"              . 0 0 0 =.1.,.P S Z T R >.:.. . . . . 2.2.3.3.3.3.3.3.2.:.:.>.@.@.@.. . . @.@.@.@.@.@. . .. ` 4.;.;.5.d j m / <.<./ { 0 . ",
"              . 0 0 0 *.6.. 7.P ~ . @.:.:.. . . . . 8.8.9.9.9.9.9.9.0.q.8.w.e.:.. . . . . @.@.@.@.@.@.` . r.P D t.;.y.g f / <.<.<.m 0 . ",
"                . 0 0 s n 1.. 6.W . :.2.3.3.. . . 9.9.u.. u.u.u.u.u.u.. u.9.0.8.. . . . . >.@.@.@.@.@. .. O.R | t.i.p.d d a.<.<.<.m 0 . ",
"                  . j g g f o.s.. :.2.3.w.8.d.9.9.u.u.u.. u.u.. u.u.f.. u.u.u.9.0.. . . :.:.:.@.@.@.@.@.g.. ..' B h.j.d G k.<.<.<.m 0 . ",
"                    . l.g s 0 b . 2.3.z.8.9.9.u.u.u.u.f.f.. . f.. . . f.f.f.u.u.9.9.8.w.3.2.:.:.>.@.@.@. .' . ` ;.h.x.g c./ <.<./ { { . ",
"                      . . b 0 . 2.3.8.0.9.u.u.u.u.f.f.f.f.f.f.f.f.f.f.f.f.f.f.u.u.9.9.0.8.w.3.2.:.@.@. . .' . Y h.7.v.s m <.<.<.m { .   ",
"                          . . 2.3.8.9.9.u.u.u.f.f.f.f.f.b.b.f.f.f.f.f.f.f.f.f.f.u.9.9.9.9.0.8.3.:.:.@.@.` ` ' h.1.H 0 0 / <./ m { { .   ",
"                          . 3.3.8.9.9.u.u.f.f.b.b.b.b.b.b.b.f.f.f.f.f.f.f.f.f.f.f.u.9.9.9.9.9.8.3.:.>.@._ ` ' . n.0 0 0 a.k.m.j { .     ",
"                        . z.8.0.9.9.u.u.f.b.b.b.b.b.b.b.M.M.b.b.f.f.f.f.f.f.f.f.f.u.u.u.9.9.9.9.8.3.:.@. .` ` ' . 0 f d G d d d .       ",
"                      . z.8.0.9.u.u.f.f.b.b.b.b.b.b.b.b.b.M.b.b.b.f.f.f.f.f.f.f.f.f.u.u.9.9.9.9.9.8.3.:. . .` ` ' . g g d d . .         ",
"                    . z.8.0.9.9.u.f.f.b.b.b.M.M.b.b.b.b.M.M.b.b.M.f.f.f.f.f.f.f.f.f.f.u.u.9.9.9.9.9.8.3.@. ._ ` ' . g . . .             ",
"                    . 8.8.9.9.u.u.f.f.b.M.M.M.M.M.M.M.M.M.M.M.M.b.b.f.f.f.f.f.f.f.f.f.u.u.u.u.u.9.9.0.z.2.@. .` ` ' .                   ",
"                  . 8.8.0.9.u.u.f.f.b.M.M.M.M.M.M.M.M.M.M.M.M.M.M.b.f.f.f.f.f.f.u.f.u.u.u.9.u.u.9.9.9.8.3.:. . .` ' .                   ",
"                  . 8.0.9.9.u.f.f.f.b.M.M.M.M.M.M.M.M.M.M.M.M.M.M.b.f.f.f.f.f.f.u.u.u.u.u.9.u.u.u.9.9.0.z.e.@. .` ' .                   ",
"                . 8.8.0.9.u.u.f.f.f.b.M.M.M.M.M.M.M.M.M.M.M.M.M.f.f.f.f.f.f.f.f.u.u.u.u.u.u.u.u.u.9.9.9.8.3.:. ._ ' ' .                 ",
"                . 8.0.0.9.u.u.f.f.f.f.b.M.M.M.M.M.M.M.M.b.b.b.f.f.f.f.f.f.f.f.f.u.u.u.u.u.u.u.u.u.9.9.9.8.3.:. .` ' ' .                 ",
"                . d.0.9.9.u.u.f.f.f.f.f.f.b.b.M.M.M.f.f.f.f.f.f.f.f.f.f.f.f.f.u.u.u.u.u.u.u.u.u.u.9.9.9.0.z.:. .` ` ' .                 ",
"                . 0.0.9.u.u.f.f.f.f.f.f.f.f.f.f.b.f.f.f.f.f.f.f.f.f.f.f.f.f.u.u.u.u.u.u.u.u.u.u.u.u.u.9.0.z.2. .` ` ' .                 ",
"                . 0.0.9.u.u.f.f.f.f.f.f.f.f.f.f.f.f.f.f.f.f.f.f.f.f.f.f.u.u.u.u.u.u.u.u.u.u.u.u.u.u.9.9.d.z.2. .` ' ' .                 ",
"                . 9.9.9.u.u.f.f.f.f.f.f.f.f.f.f.f.f.f.f.f.f.f.f.f.f.u.u.u.u.u.u.u.u.u.u.u.u.u.u.u.9.9.9.8.3.:. .` ' ' .                 ",
"                . 8.0.9.u.u.u.f.f.f.f.f.f.f.f.f.f.f.f.f.f.f.f.f.f.u.u.u.u.u.u.u.u.u.u.u.u.u.u.9.9.9.9.0.8.e.@. .` ' ' .                 ",
"                  . 0.0.9.u.u.f.f.f.f.f.f.f.f.f.f.f.f.f.f.f.f.f.u.u.u.u.u.u.u.u.u.u.u.u.u.u.9.9.9.9.0.8.3.:.@._ ` ' ' .                 ",
"                  . 8.0.9.9.u.u.u.u.f.f.f.f.f.f.u.f.f.u.u.u.u.u.u.u.u.9.9.9.u.u.u.u.u.u.9.9.9.9.0.0.8.w.2.@. .` ' ' .                   ",
"                    . 8.0.0.9.9.9.9.9.u.u.u.u.u.u.u.u.u.u.u.u.u.u.9.9.9.9.9.9.9.9.9.9.9.9.0.0.d.8.8.3.2.N.@. .` ' ' .                   ",
"                    . z.8.8.0.0.0.0.0.9.9.9.9.9.9.9.9.9.9.9.9.9.9.9.0.9.0.0.0.0.0.d.8.8.8.8.z.z.3.3.:.N.@. .` ' ' .                     ",
"                      . 3.3.z.8.8.8.8.8.d.d.0.0.0.d.d.8.8.8.8.8.8.8.8.8.8.8.8.8.8.z.z.w.3.3.e.2.:.:.@.@. .` ` ' .                       ",
"                        . e.3.3.3.3.3.z.z.z.8.8.z.8.z.z.z.z.z.z.z.z.z.w.3.3.3.3.3.e.2.2.:.:.:.N.@.@. . .` ` ' .                         ",
"                          . . 2.:.:.2.2.e.3.3.3.3.3.3.3.3.3.e.e.e.2.2.:.:.:.:.:.:.:.:.@.@.@.@.@.@. . .` ` . .                           ",
"                              . . . . @.@.:.:.:.:.:.:.:.:.:.@.@.@.@.@.@.@.@.@.@.@.@.@.@.@.@.@. . .. . . .                               ",
"                                      . . . . . . . . . . . . . . . . . . . . . . . . . . . . . .                                       ",
"                                                                                                                                        ",
"                                                                                                                                        ",
"                                                                                                                                        ",
"                                                                                                                                        ",
"                                                                                                                                        ",
"                                                                                                                                        "
};
