/* XPM */
static char *result[] = {
/* columns rows colors chars-per-pixel */
"66 66 191 2 ",
"   c magenta",
".  c #000001",
"X  c #010001",
"o  c #FEFE22",
"O  c #FEFE11",
"+  c #FEED11",
"@  c #FEED00",
"#  c #FE8700",
"$  c #FEFE33",
"%  c #FFFF22",
"&  c #FFFF11",
"*  c #FFEE11",
"=  c #FFEE00",
"-  c #FFAA00",
";  c #FF8800",
":  c #ED8700",
">  c #ED7700",
",  c #FEBA33",
"<  c #FFCC33",
"1  c #FFDD33",
"2  c #FFEE33",
"3  c #FFDD22",
"4  c #FFDD11",
"5  c #FFDD00",
"6  c #FFCC00",
"7  c #FF9900",
"8  c #EE7700",
"9  c #DC7700",
"0  c #FFAA33",
"q  c #FF9922",
"w  c #FF9911",
"e  c #EE8800",
"r  c #DD7700",
"t  c #DC6600",
"y  c #FFBB33",
"u  c #FFBB00",
"i  c #FFAA22",
"p  c #EE9900",
"a  c #DD6600",
"s  c #CB6600",
"d  c #EEDD00",
"f  c #EECC00",
"g  c #DD9900",
"h  c #CC6600",
"j  c #FEA933",
"k  c #FEED22",
"l  c #FFEE22",
"z  c #EEEE00",
"x  c #DDDD00",
"c  c #DDAA00",
"v  c black",
"b  c #FE9811",
"n  c #FE9822",
"m  c #FEBA00",
"M  c #DD8800",
"N  c #DDCC00",
"B  c #DDBB00",
"V  c #CC7700",
"C  c #CCAA00",
"Z  c #CC9900",
"A  c #CCBB00",
"S  c #CCCC00",
"D  c #CC8800",
"F  c #CBBA00",
"G  c #BB6611",
"H  c #BB7711",
"J  c #AA7722",
"K  c #AA6622",
"L  c #996622",
"P  c #BB6622",
"I  c #CC6611",
"U  c #BB6600",
"Y  c #BB5500",
"T  c #DCBA00",
"R  c #AA6611",
"E  c #885522",
"W  c #775522",
"Q  c #776633",
"!  c #775533",
"~  c #776644",
"^  c #665533",
"/  c #887755",
"(  c #887744",
")  c #997744",
"_  c #BBAA00",
"`  c #995511",
"'  c #884411",
"]  c #774422",
"[  c #777744",
"{  c #777755",
"}  c #333322",
"|  c #555544",
" . c #665544",
".. c #666644",
"X. c #222222",
"o. c #555533",
"O. c #443322",
"+. c #AA7733",
"@. c #774411",
"#. c #776655",
"$. c #222211",
"%. c #010000",
"&. c #AA5500",
"*. c #886644",
"=. c #877766",
"-. c #A9A977",
";. c #A99877",
":. c #989877",
">. c #998855",
",. c #AA8855",
"<. c #CC5500",
"1. c #774400",
"2. c #554433",
"3. c #A9A987",
"4. c #AAAA88",
"5. c #AA9977",
"6. c #010100",
"7. c #998866",
"8. c #886622",
"9. c #CB9800",
"0. c #773300",
"q. c #444433",
"w. c #221111",
"e. c #BBAA88",
"r. c #AAAA77",
"t. c #886633",
"y. c #552200",
"u. c #878766",
"i. c #AA5511",
"p. c #994400",
"a. c #442200",
"s. c #111111",
"d. c #BAA987",
"f. c #010101",
"g. c #664411",
"h. c #BBBB99",
"j. c #BBBB88",
"k. c #664422",
"l. c #AA4400",
"z. c #331100",
"x. c #CCBB99",
"c. c #CCCCAA",
"v. c #999966",
"b. c #CCAA11",
"n. c #110000",
"m. c #442211",
"M. c #BAA988",
"N. c #DDDDBB",
"B. c #EEEECC",
"V. c #EEDDCC",
"C. c #EEDDBB",
"Z. c #DDCCAA",
"A. c #CCBBAA",
"S. c #443333",
"D. c #553311",
"F. c #CCBB11",
"G. c #BA6600",
"H. c #CBCBA9",
"J. c #EDEDCB",
"K. c #EEEEDD",
"L. c #332200",
"P. c #BB9911",
"I. c #BB7700",
"U. c #111100",
"Y. c #BABA98",
"T. c #DCDCCB",
"R. c #FFEEDD",
"E. c #EDDCCB",
"W. c #A99887",
"Q. c #999977",
"!. c #221100",
"~. c #CC9911",
"^. c #AA7700",
"/. c #CCCC11",
"(. c #CB6611",
"). c #DDCCBB",
"_. c #FEEDDC",
"`. c #DCDCBA",
"'. c #DCCBA9",
"]. c #BBAA22",
"[. c #BB9900",
"{. c #CBBA98",
"}. c #BB9922",
"|. c #FFEEEE",
" X c #884400",
".X c #BB8800",
"XX c #DCCBBA",
"oX c #FFFFEE",
"OX c #DDDDCC",
"+X c #BBAA99",
"@X c white",
/* pixels */
"                                                                                                                                    ",
"                                                                                                                                    ",
"                                                                                                                                    ",
"                                                                                                                                    ",
"                                                                                                                                    ",
"                                                          . . . . . . . . . .                                                       ",
"                                                  X X X X o o O + @ @ # # # # X X X X                                               ",
"                                              X X $ $ $ $ % & * = = - ; ; ; ; : > > > X X                                           ",
"                                          X X , , < 1 2 3 4 5 6 - 7 ; ; ; ; ; ; 8 8 8 9 9 X X                                       ",
"                                        X , , 0 0 0 0 q w ; ; ; ; ; ; ; ; ; ; ; ; e 8 r r 9 t X                                     ",
"                                    X X , y 0 0 q q w w ; ; ; ; ; ; ; ; ; 7 - u - ; 8 8 r r r t X                                   ",
"                              X X X $ $ 1 i i i q w w 7 ; ; ; ; ; ; ; ; 7 5 = = = = 6 p r r r a s X                                 ",
"                        X X X $ $ o & & - ; ; ; ; ; ; ; ; ; ; ; ; ; ; - 5 = = = = = = d f g r a h s X                               ",
"                    X X j j k % l * 5 - ; ; ; ; ; ; ; ; ; ; ; ; ; ; 7 = = = = = = = z d d x c r a h v                               ",
"                X X b n w ; - 6 u 7 ; ; ; 8 8 8 8 8 8 8 8 8 8 8 8 8 8 f d d d d d d d d d d x c a h s X                             ",
"            X X m # ; ; ; ; ; ; e 8 8 8 8 8 r r r r r r r r r r r r r M N N N x x d x x x x d f M h h s X                           ",
"          X @ @ ; ; ; ; 8 8 8 8 8 r r r r r r r r a a a a a a a a h h h M B N N N N N N N N x x g a h h v                           ",
"        X @ = - ; ; 8 8 r r r r r r r r r r r g g r r a a r r r r a h h h V C N N N N N N N N N M a h h s X                         ",
"      X @ = = ; 8 r r r a r r r r r a a h Z A A A A Z h h h h h h h a h h h h V Z A A S N N N c r r a h h s X                       ",
"      v = = f r r r h h h h a a h h h h V A A A C C C V h h h h h h h h h h h h h h V D D D M r r r r a a h F X                     ",
"    X @ = d c h h h h h h h h h h h G G H J K K K K K L L L K P G I h h h h h h h h h U Y U h h a r r r a a B T X X                 ",
"    v = d N V h h h h h h h G R L E E W Q ! ! Q Q ~ ~ ^ ~ ~ / / ( ) E K P G I I h h h h U Y Y Y U h a r r r g B T T X               ",
"  X @ = N _ Y h h h h U ` ' ] W ! ~ [ / { } |  ...{ { X. . ...../ o.O.{ ( ( +.J G I h h h h Y Y Y Y U h r r r B B B T X             ",
"  v = d C U Y h h U ` @.W ~ { #.| ~ ......$.v v v v v v v v v v %.v v v %.%./ ( O.L P I h h h h Y Y Y Y U h a r c A A F X           ",
"  v 6 M Y &.Y h &.@.W *./ / / ~ $.} o.v v v =.-.;.;.;.;.;.;.;.;.;.:.;.;.;.;.%.%.v >.,.+.H I h h h h Y Y &.Y Y h h C A A F X         ",
"  v ; h Y Y <.Y 1.W /  .o.{ { | 2.v v :.3.3.4.5.5.5.5.5.5.5.5.5.5.5.5.5.5.5.;.:.;.6.6.7.( 8.R I h h h U Y &.&.Y h h D Z C 9.X       ",
"  v e h &.Y <.0.@./ / / q.$.w.w.v :.3.e.e.e.4.r.r.r.r.r.r.r.5.r.r.r.4.4.r.5.5.5.5.;.-.6.%.O.t.L R h h h Y &.&.&.&.Y h h h h v       ",
"  v 8 h Y Y &.y.W / / { .. .2.v :.e.e.e.e.e.e.4.4.4.4.4.4.4.4.4.4.4.e.e.e.e.4.r.r.5.5.:.u.v 4.,.8.i.I h I U Y &.&.&.Y h h h s X     ",
"    %.h Y Y p.a.E / { #.| s.v ;.e.e.e.e.e.e.e.e.e.e.e.e.e.e.e.e.e.e.e.e.e.e.e.e.e.4.4.r.4.d.f./ ~ W ` G I I U Y &.&.&.Y <.h h v     ",
"    v h U <.&.a.g.~ o.} } $.v e.h.e.f.f.f.e.e.e.e.e.e.j.e.e.e.e.e.e.e.e.e.e.e.e.e.e.e.e.4.e.u.%.q. .k.@.R I h Y &.&.l.&.Y h h v     ",
"      %.h h h a.z.k.{ / ~ ..X.j.h.f.v v v f.x.x.c.c.c.c.c.c.x.h.h.j.e.e.e.f.f.f.e.e.e.e.e.e.4.3.v 5.v.g.g.b.C D Y &.l.l.&.<.h v     ",
"      v h h h p.n.v m.{ #.v M.h.h.v v v v v N.N.B.B.B.B.B.B.V.C.N.Z.A.h.f.v v v f.e.e.e.e.e.e.5.v S.{ ( D.g.F.A Z &.l.l.l.Y h v     ",
"        %.h h V G.z.v n.O.v h.x.c.H.v v v J.B.K.f.K.K.K.K.K.K.f.K.B.V.N.v v v v v j.e.e.e.e.e.4.v q.X.2.D.L.P.C C I.l.l.l.Y h v     ",
"          %.D A A 9.0.U.v Y.x.c.Z.N.T.J.J.K.K.K.v K.K.f.K.K.R.v K.K.K.B.E.v v v Y.h.h.e.e.e.e.e.W.v 7.Q.W !.~.C _ ^.l.l.l.Y h v     ",
"            6./.A V h (.v x.c.).N.B.B.K.K.K.K.R._.f.f._.f.f.f._.R.R.K.K.B.J.`.'.c.x.h.h.j.e.e.e.4.:.6.5.g.!.].A [.&.l.l.&.<.<.v     ",
"              6.6.I h %.{.c.N.V.B.K.K.K.K.R.R.R.R._._.R._._._.R.R.R.R.K.K.B.B.V.N.Z.c.x.h.e.e.4.4.Q.v  .!.m.}.V Y l.l.l.Y <.%.      ",
"                  %.%.{.c.N.B.B.K.K.K.R.R.R.R.R.|.|.R.R.R.R.R.R.R.R.R.R.K.B.B.B.B.V.N.c.h.h.e.e.5.5.:.!.z.` h h &.l.&.Y <.<.v       ",
"                  v H.c.N.B.B.K.K.R.R.|.|.|.|.|.|.|.R.R.R.R.R.R.R.R.R.R.R.K.B.B.B.B.B.N.c.h.j.e.r.5.Q.v  Xh h h I.^..XD <.%.        ",
"                X XXN.V.B.B.K.K.R.|.|.|.|.|.|.|.oXoX|.|.R.R.R.R.R.R.R.R.R.K.K.K.B.B.B.B.N.c.h.e.4.5.5.:.%.h Z C _ C C C %.          ",
"              X XXN.V.B.K.K.R.R.|.|.|.|.|.|.|.|.|.oX|.|.|.R.R.R.R.R.R.R.R.R.K.K.B.B.B.B.B.N.c.h.4.4.5.5.:.%.A A C C 6.6.            ",
"            X XXN.V.B.B.K.R.R.|.|.|.oXoX|.|.|.|.oXoX|.|.oXR.R.R.R.R.R.R.R.R.R.K.K.B.B.B.B.B.N.c.e.4.r.5.Q.v A 6.6.6.                ",
"            v N.N.B.B.K.K.R.R.|.oXoXoXoXoXoXoXoXoXoXoXoX|.|.R.R.R.R.R.R.R.R.R.K.K.K.K.K.B.B.V.).x.e.4.5.5.:.6.                      ",
"          X `.N.V.B.K.K.R.R.|.oXoXoXoXoXoXoXoXoXoXoXoXoXoX|.R.R.R.R.R.R.K.R.K.K.K.B.K.K.B.B.B.N.c.h.4.4.5.Q.v                       ",
"          v N.V.B.B.K.R.R.R.|.oXoXoXoXoXoXoXoXoXoXoXoXoXoX|.R.R.R.R.R.R.K.K.K.K.K.B.K.K.K.B.B.V.).A.e.4.5.Q.v                       ",
"        X `.N.V.B.K.K.R.R.R.|.oXoXoXoXoXoXoXoXoXoXoXoXoXR.R.R.R.R.R.R.R.K.K.K.K.K.K.K.K.K.B.B.B.N.c.h.4.r.Q.:.X                     ",
"        v N.V.V.B.K.K.R.R.R.R.|.oXoXoXoXoXoXoXoX|.|.|.R.R.R.R.R.R.R.R.R.K.K.K.K.K.K.K.K.K.B.B.B.N.c.h.4.5.Q.Q.v                     ",
"        v OXV.B.B.K.K.R.R.R.R.R.R.|.|.oXoXoXR.R.R.R.R.R.R.R.R.R.R.R.R.K.K.K.K.K.K.K.K.K.K.B.B.B.V.).h.4.5.5.Q.v                     ",
"        v V.V.B.K.K.R.R.R.R.R.R.R.R.R.R.|.R.R.R.R.R.R.R.R.R.R.R.R.R.K.K.K.K.K.K.K.K.K.K.K.K.K.B.V.).x.4.5.5.Q.v                     ",
"        v V.V.B.K.K.R.R.R.R.R.R.R.R.R.R.R.R.R.R.R.R.R.R.R.R.R.R.K.K.K.K.K.K.K.K.K.K.K.K.K.K.B.B.OX).x.4.5.Q.Q.v                     ",
"        v B.B.B.K.K.R.R.R.R.R.R.R.R.R.R.R.R.R.R.R.R.R.R.R.R.K.K.K.K.K.K.K.K.K.K.K.K.K.K.K.B.B.B.N.c.h.4.5.Q.Q.v                     ",
"        v N.V.B.K.K.K.R.R.R.R.R.R.R.R.R.R.R.R.R.R.R.R.R.R.K.K.K.K.K.K.K.K.K.K.K.K.K.K.B.B.B.B.V.N.A.e.4.5.Q.Q.v                     ",
"          f.V.V.B.K.K.R.R.R.R.R.R.R.R.R.R.R.R.R.R.R.R.R.K.K.K.K.K.K.K.K.K.K.K.K.K.K.B.B.B.B.V.N.c.h.e.r.5.Q.Q.v                     ",
"          v N.V.B.B.K.K.K.K.R.R.R.R.R.R.K.R.R.K.K.K.K.K.K.K.K.B.B.B.K.K.K.K.K.K.B.B.B.B.V.V.N.Z.x.e.4.5.Q.Q.6.                      ",
"            f.N.V.V.B.B.B.B.B.K.K.K.K.K.K.K.K.K.K.K.K.K.K.B.B.B.B.B.B.B.B.B.B.B.B.V.V.OXN.N.c.x.+Xe.4.5.Q.Q.v                       ",
"            v ).N.N.V.V.V.V.V.B.B.B.B.B.B.B.B.B.B.B.B.B.B.B.V.B.V.V.V.V.V.OXN.N.N.N.).).c.c.h.+Xe.4.5.Q.Q.6.                        ",
"              f.c.c.).N.N.N.N.N.OXOXV.V.V.OXOXN.N.N.N.N.N.N.N.N.N.N.N.N.N.).).Z.c.c.A.x.h.h.e.e.4.5.5.Q.6.                          ",
"                f.A.c.c.c.c.c.).).).N.N.).N.).).).).).).).).).Z.c.c.c.c.c.A.x.x.h.h.h.+Xe.e.4.4.5.5.Q.6.                            ",
"                  f.f.x.h.h.x.x.A.c.c.c.c.c.c.c.c.c.A.A.A.x.x.h.h.h.h.h.h.h.h.e.e.e.e.e.e.4.4.5.5.6.6.                              ",
"                      f.f.f.f.e.e.h.h.h.h.h.h.h.h.h.e.e.e.e.e.e.e.e.e.e.e.e.e.e.e.e.e.4.4.f.f.6.6.                                  ",
"                              f.f.f.f.f.f.f.f.f.f.f.f.f.f.f.f.f.f.f.f.f.f.f.f.f.f.f.f.f.f.                                          ",
"                                                                                                                                    ",
"                                                                                                                                    ",
"                                                                                                                                    ",
"                                                                                                                                    ",
"                                                                                                                                    ",
"                                                                                                                                    "
};
