/* XPM */
static char *result[] = {
/* columns rows colors chars-per-pixel */
"40 40 221 2 ",
"   c black",
".  c #080706",
"X  c #1D1C16",
"o  c #361A02",
"O  c #261D13",
"+  c #362602",
"@  c #332C0E",
"#  c #352F24",
"$  c #35332A",
"%  c #39352A",
"&  c #393225",
"*  c #36332A",
"=  c #482708",
"-  c #5E2E00",
";  c #473B07",
":  c #5F3000",
">  c #533D12",
",  c #583C11",
"<  c #693800",
"1  c #7C3D00",
"2  c #733A01",
"3  c #6F2E01",
"4  c #483E2B",
"5  c #54540C",
"6  c #7A4805",
"7  c #695900",
"8  c #6B4810",
"9  c #6D6603",
"0  c #6D6D0C",
"q  c #6D650B",
"w  c #55442B",
"e  c #4F4C3A",
"r  c #484535",
"t  c #544D3B",
"y  c #584E37",
"u  c #565039",
"i  c #4E442F",
"p  c #75572C",
"a  c #625A3E",
"s  c #665A3B",
"d  c #694D26",
"f  c #7C6437",
"g  c #595745",
"h  c #4E4A42",
"j  c #665D44",
"k  c #665E48",
"l  c #6B6549",
"z  c #7A6948",
"x  c #6B6952",
"c  c #686453",
"v  c #716D58",
"b  c #7D725C",
"n  c #706F60",
"m  c #7D7B65",
"M  c #8A3E01",
"N  c #8B4700",
"B  c #944A04",
"V  c #995716",
"C  c #895315",
"Z  c #AA4500",
"A  c #A74B00",
"S  c #AC5400",
"D  c #AD5800",
"F  c #A55403",
"G  c #B35400",
"H  c #BB5500",
"J  c #B45A01",
"K  c #BC5A00",
"L  c #B54D00",
"P  c #966315",
"I  c #896B00",
"U  c #BB6B00",
"Y  c #BC640C",
"T  c #B86308",
"R  c #AB7715",
"E  c #B5680C",
"W  c #845D2D",
"Q  c #976727",
"!  c #9C7438",
"~  c #A27423",
"^  c #B27128",
"/  c #AF6C26",
"(  c #C25C00",
")  c #C36302",
"_  c #CB6501",
"`  c #C06900",
"'  c #CC6A00",
"]  c #C4670D",
"[  c #D26600",
"{  c #D56D00",
"}  c #D96C00",
"|  c #CC7C00",
" . c #CA7800",
".. c #DC7300",
"X. c #DA7E00",
"o. c #C77414",
"O. c #E17400",
"+. c #EA7900",
"@. c #E57900",
"#. c #F57F00",
"$. c #85785C",
"%. c #806F4D",
"&. c #867D64",
"*. c #887D69",
"=. c #857F76",
"-. c #9F9200",
";. c #9F9F1E",
":. c #A48705",
">. c #A89700",
",. c #B89305",
"<. c #BEB70D",
"1. c #B2AC24",
"2. c #DE8B00",
"3. c #D78800",
"4. c #CC9F00",
"5. c #C89902",
"6. c #DC9800",
"7. c #CD8B00",
"8. c #ED8000",
"9. c #FC8501",
"0. c #FF8A01",
"q. c #F68700",
"w. c #FF920B",
"e. c #F99600",
"r. c #FF9A1C",
"t. c #CAA601",
"y. c #D6A900",
"u. c #CDB201",
"i. c #D8B700",
"p. c #FFAB00",
"a. c #F3AC00",
"s. c #E5B300",
"d. c #FFBD00",
"f. c #FEB50A",
"g. c #F2A514",
"h. c #D4A429",
"j. c #FFBE32",
"k. c #FAA92D",
"l. c #DBCB00",
"z. c #DED400",
"x. c #E1C900",
"c. c #FEC804",
"v. c #E4D900",
"b. c #E6DB00",
"n. c #F5DA00",
"m. c #F1DC18",
"M. c #F5E600",
"N. c #FCEC00",
"B. c #FFE603",
"V. c #FFF000",
"C. c #F8EE0E",
"Z. c #FFC429",
"A. c #8B866D",
"S. c #8A8469",
"D. c #958D6E",
"F. c #8A8B72",
"G. c #8A8879",
"H. c #9D9876",
"J. c #998E75",
"K. c #A19375",
"L. c #A59E7B",
"P. c #AC9E79",
"I. c #ACA17B",
"U. c #979584",
"Y. c #A69C89",
"T. c #ADA582",
"R. c #ADA983",
"E. c #A7A283",
"W. c #B3A985",
"Q. c #B4AC8A",
"!. c #BBAC89",
"~. c #B6A785",
"^. c #AAA795",
"/. c #BCB593",
"(. c #BAB797",
"). c #BBB2A3",
"_. c #C5BF9D",
"`. c #C3B695",
"'. c #C0AF8C",
"]. c #C9BBB0",
"[. c #C7C19E",
"{. c #CBC2A4",
"}. c #C9C8A5",
"|. c #CAC6A9",
" X c #D3CDAC",
".X c #D3C5AC",
"XX c #D8CCB4",
"oX c #D7CDBA",
"OX c #D9D3B5",
"+X c #DDD4BB",
"@X c #DEDABD",
"#X c #D4D2B6",
"$X c #CFCFAF",
"%X c #E1DCBF",
"&X c #E1D7BE",
"*X c #E1E1BF",
"=X c #DDDBC5",
"-X c #E5DDC3",
";X c #E0D1C2",
":X c #E3E0C2",
">X c #E9E3C6",
",X c #E3E2CA",
"<X c #EBE5CA",
"1X c #EEEBCD",
"2X c #E9E9C7",
"3X c #F0F0CF",
"4X c #EEEDD3",
"5X c #EEEEDB",
"6X c #F1EDD4",
"7X c #F4EEDC",
"8X c #FEEEDD",
"9X c #F3F2DD",
"0X c #FFF0DF",
"qX c #F0E4CD",
"wX c #FEEEE4",
"eX c #FFEEEB",
"rX c #FFF2E3",
"tX c #FFF4EC",
"yX c #FFFEEE",
"uX c #F4F3E0",
"iX c None",
/* pixels */
"iXiXiXiXiXiXiXiXiXiXiXiXiXiXiXiXiXiXiXiXiXiXiXiXiXiXiXiXiXiXiXiXiXiXiXiXiXiXiXiX",
"iXiXiXiXiXiXiXiXiXiXiXiXiXiXiXiXiXiXiXiXiXiXiXiXiXiXiXiXiXiXiXiXiXiXiXiXiXiXiXiX",
"iXiXiXiXiXiXiXiXiXiXiXiXiXiXiXiXiXiXiXiXiXiXiXiXiXiXiXiXiXiXiXiXiXiXiXiXiXiXiXiX",
"iXiXiXiXiXiXiXiXiXiXiXiXiXiXiXiXiXiXiX5 0 9 9 < < o iXiXiXiXiXiXiXiXiXiXiXiXiXiX",
"iXiXiXiXiXiXiXiXiXiXiXiXiXiXiXiX5 ;.1.m.C.C.d.0.0.' D N o iXiXiXiXiXiXiXiXiXiXiX",
"iXiXiXiXiXiXiXiXiXiXiXiXiXiX> ~ k.j.Z.f.p.g.0.9.0.9.q.@.` 6 iXiXiXiXiXiXiXiXiXiX",
"iXiXiXiXiXiXiXiXiXiXiXiXiX0 h.j.k.r.w.9.0.0.9.0.p.c.p.e.@...B iXiXiXiXiXiXiXiXiX",
"iXiXiXiXiXiXiXiXiXiX> ;.1.C.f.w.w.9.9.9.0.0.0.d.B.N.V.n.s.2.} M iXiXiXiXiXiXiXiX",
"iXiXiXiXiXiXiXiX6 o.g.m.c.p.0.#.#.#.#.#.#.#.e.n.M.M.M.M.b.l.8.J = iXiXiXiXiXiXiX",
"iXiXiXiXiXiX7 | q.0.9.0.+.+.+.@.O.O.O.O.O.....6.l.v.v.v.z.b.i.{ A iXiXiXiXiXiXiX",
"iXiXiXiXiX>.c.0.#.@.@.@.......2.2.X.} } } } [ ' 7.i.l.l.l.l.i.} ) < iXiXiXiXiXiX",
"iXiXiXiX9 M.a.@.{ { { ..} [ 7.u.u.t.| _ _ _ [ { _ { 7.t.y.y.2.@.} _ 7 iXiXiXiXiX",
"iXiXiXiX<.n.3._ _ _ _ ) Y E R ~ ~ ~ Q Q ^ ^ Y ] ' _ _ _ ` ) _ } ....4.9 + iXiXiX",
"iXiXiX9 b.t.` _ ] D V W f z s i y a 4 y u s w p Q ^ Y _ _ ( K ( ' ..8.i.>.; iXiX",
"iXiXiXI s.U ( J C W %.j i e # % t t t t t t t y t 4 d ^ o.' ) ( K K _ 3.i.-.iXiX",
"iXiXiX6 { H G C %.s l r # g S.H.I.I.P.P.P.I.P.P.J.m k u p V ] _ ) G S ) | 5.I iX",
"iXiXiX2 ( L M p $.l & # D.!./.Q.W.R.R.R.T.R.W.W.~.I.I.D.e s ! E ' Y J S K _ K = ",
"iXiXiXiXS ( 2 p l e O &.~.c &.!.!.!.!.W.!.~.!.!.~.W.~.W.R.v y p V Y ) S F H _ - ",
"iXiXiXiX: [ N @ s s r Y.g   . J. X$X$X X{._.'.J.% % K.!.!.T.g k p P 5.U Z Z ( - ",
"iXiXiXiXiXA U < O & g _.A.X % $X^.=X,X9X).|.-Xm     x '.!.'.c * s w ,.5.D Z H < ",
"iXiXiXiXiX+ :.5.B @ Y. X@X#X=XuX^.G.G.U.=.;X5X=Xn c Q.(.!.!.Y.g z > :.t.D Z H - ",
"iXiXiXiXiXiX@ 8 B $. X>X4X7XuXwX8X].;X).oXwX8X5X3X>X@X}.`.!.W.$.r = R U Z L Z o ",
"iXiXiXiXiXiXiXiXv #X2X6X7XwXeXeXrXtXrXrXwX8X8X8X3X1X2X:X}./.W.L.i M ' U U U 3 iX",
"iXiXiXiXiXiXiX*.&X1X6X7XeXeXeXeXtXtXeX8X8X8X8X8X9X5X3X2X*X}.Q.I.S.8 ,.,.:.7 iXiX",
"iXiXiXiXiXiXc +X1X4X7XtXtXtXtXtXtXyXtXeX8X8X8X8X8X7X4X4X1X=X[.R.I.l 9 5 + iXiXiX",
"iXiXiXiXiXiX^.<X4X7XwXtXyXyXyXyXyXyXyXtX8X8X8X8X7X7X5X5X3X2XXX/.R.F.O iXiXiXiXiX",
"iXiXiXiXiXc @X1X7X8XwXyXyXyXyXyXyXyXyXrX8X8X8X7X7X5X5X5X4X1X-X{.R.H.r iXiXiXiXiX",
"iXiXiXiXiXU.qX4X7X8XwXrXyXyXyXyXtXtXrX8X8X8XwX7X5X5X5X5X5X1X>X$XQ.I.x iXiXiXiXiX",
"iXiXiXiXiXU.6X6X7X8X8X8XrXrXtX0X8X8X8X8XwX7X7X7X5X5X5X5X5X4X1XXXQ.I.x iXiXiXiXiX",
"iXiXiXiXiX^.6X7X8X8X8X8X8X8X0X8X8X8X8X8XwX5X7X5X5X5X5X5X5X3X2XXXQ.I.x iXiXiXiXiX",
"iXiXiXiXiXU.1X5X7X8X8X8X8X8X8X8X8XwX8X7X5X5XuX5X5X5X5X5X1X1X-X{.W.I.x iXiXiXiXiX",
"iXiXiXiXiXr oX1X7X7X8X8X8X8X8X8X7X7X7X7X5X5X5X5X5X5X4X1X1X>X X(.I.H.h iXiXiXiXiX",
"iXiXiXiXiXiXG.<XqX4X1X6X7X6X5X7X5X4X5X3X1X1X1X1X1X2X>X-X+X X`.Q.L.m X iXiXiXiXiX",
"iXiXiXiXiXiXh (.+X-X-X:X,X<X,X-X:X:X:X:X%X-X%X%X+XXXXX.X_./.Q.T.*.% iXiXiXiXiXiX",
"iXiXiXiXiXiXiXr A.(.). XOXOXOXOXXXXXXXXX X}.}.}._.`././.!.Y.L.l % iXiXiXiXiXiXiX",
"iXiXiXiXiXiXiXiXiX$ % b F.F.F.G.F.S.*.*.&.*.&.&.*.&.&.&.v # # iXiXiXiXiXiXiXiXiX",
"iXiXiXiXiXiXiXiXiXiXiXiXiXiXiXiXiXiXiXiXiXiXiXiXiXiXiXiXiXiXiXiXiXiXiXiXiXiXiXiX",
"iXiXiXiXiXiXiXiXiXiXiXiXiXiXiXiXiXiXiXiXiXiXiXiXiXiXiXiXiXiXiXiXiXiXiXiXiXiXiXiX",
"iXiXiXiXiXiXiXiXiXiXiXiXiXiXiXiXiXiXiXiXiXiXiXiXiXiXiXiXiXiXiXiXiXiXiXiXiXiXiXiX",
"iXiXiXiXiXiXiXiXiXiXiXiXiXiXiXiXiXiXiXiXiXiXiXiXiXiXiXiXiXiXiXiXiXiXiXiXiXiXiXiX"
};
