/* XPM */
static char *result[] = {
/* columns rows colors chars-per-pixel */
"68 66 151 2 ",
"   c magenta",
".  c black",
"X  c #FFBB22",
"o  c #FFAA22",
"O  c #FF9911",
"+  c #FF9900",
"@  c #FF8800",
"#  c #FFFF33",
"$  c #FFEE22",
"%  c #FF9922",
"&  c #FFFF22",
"*  c #FFCC22",
"=  c #FFBB00",
"-  c #FFCC00",
";  c #EE7700",
":  c #FFDD22",
">  c #FFDD00",
",  c #FFEE00",
"<  c #EE9900",
"1  c #DD7700",
"2  c #DD6600",
"3  c #FF8811",
"4  c #EE8800",
"5  c #FF7700",
"6  c #EEAA00",
"7  c #CC6600",
"8  c #EECC00",
"9  c #EEDD00",
"0  c #CC5500",
"q  c #BB5500",
"w  c #BB7700",
"e  c #BB6600",
"r  c #CCAA00",
"t  c #CCBB00",
"y  c #DDBB00",
"u  c #DDCC00",
"i  c #FFBB11",
"p  c #BB9900",
"a  c #CC7700",
"s  c #BB8800",
"d  c #AA5500",
"f  c #AA9900",
"g  c #AA7700",
"h  c #BBAA00",
"j  c #DD9900",
"k  c #996611",
"l  c #AA6611",
"z  c #996622",
"x  c #996633",
"c  c #885522",
"v  c #885511",
"b  c #995511",
"n  c #995500",
"m  c #CC9900",
"M  c #774411",
"N  c #886633",
"B  c #886644",
"V  c #887744",
"C  c #887755",
"Z  c #665544",
"A  c #776644",
"S  c #776633",
"D  c #775533",
"F  c #664422",
"G  c #664411",
"H  c #884411",
"J  c #AA5511",
"K  c #CC8800",
"L  c #DD8800",
"P  c #221100",
"I  c #554422",
"U  c #554433",
"Y  c #332211",
"T  c #666644",
"R  c #665522",
"E  c #DDAA00",
"W  c #332200",
"Q  c #443311",
"!  c #777755",
"~  c #222211",
"^  c #777744",
"/  c #333322",
"(  c #665533",
")  c #553311",
"_  c #221111",
"`  c #555533",
"'  c #444433",
"]  c #111100",
"[  c #444422",
"{  c #553322",
"}  c #111111",
"|  c #555544",
" . c #332222",
".. c #110000",
"X. c #998866",
"o. c #999977",
"O. c #994400",
"+. c #443322",
"@. c #AA9977",
"#. c #552200",
"$. c #AA4400",
"%. c #AAAA77",
"&. c #663300",
"*. c #776655",
"=. c #AAAA88",
"-. c #AA8866",
";. c #AA8800",
":. c #998855",
">. c #885500",
",. c #BBAA88",
"<. c #BBBB99",
"1. c #CCBB99",
"2. c #886600",
"3. c #DDCCAA",
"4. c #DDDDBB",
"5. c #EEDDCC",
"6. c #DDCCBB",
"7. c #EEEECC",
"8. c #EEEEDD",
"9. c #AA9966",
"0. c #442200",
"q. c #EEBB00",
"w. c #997700",
"e. c #222222",
"r. c #FFEEDD",
"t. c white",
"y. c #331100",
"u. c #443300",
"i. c #CCCCAA",
"p. c #554400",
"a. c #BBBB88",
"s. c #887766",
"d. c #770000",
"f. c #BB0000",
"g. c #CC0000",
"h. c #BB8811",
"j. c #BB7733",
"k. c #888877",
"l. c #220000",
"z. c #BB7711",
"x. c #CCCCBB",
"c. c gray60",
"v. c #AA6600",
"b. c #BB9911",
"n. c #FFFFDD",
"m. c #FFEEEE",
"M. c #FFFFEE",
"N. c #CCBBAA",
"B. c #DDDDCC",
"V. c #BBAA99",
"C. c #EEDDBB",
/* pixels */
"                                                                                                                                        ",
"                                                          . . . . . . . . . .                                                           ",
"                                                . . . . . X o O O + @ @ @ @ @ . . .                                                     ",
"                                          . . . # # $ X o % O O @ @ @ @ @ @ @ @ @ @ . . .                                               ",
"                                      . . # & & & * o O O O @ @ @ @ @ @ @ @ + = - = + ; ; . .                                           ",
"                                  . . & & $ : * o % O O @ @ @ @ @ @ @ @ + > , , , , > - < 1 2 . .                                       ",
"                            . . . X o % O O O 3 @ @ 4 ; ; ; ; ; ; ; 5 @ > > , , , , , , > 6 1 2 7 .                                     ",
"                        . . o o o O O @ 4 ; ; 1 1 1 2 2 2 2 2 2 2 2 2 1 < 8 9 > > > > > > 9 6 2 7 7 .                                   ",
"                    . . % % O O @ ; 1 2 7 7 0 q w w w e q q q q q q q q q 7 r t y u 8 9 9 > 9 y 1 7 7 .                                 ",
"                  . i O + @ 4 1 7 7 q q q q e p p p p p w q q q q q q q q q e p p p r t y 8 9 9 u a 7 7 .                               ",
"                . , + 4 ; 2 7 q q q q q q e p p p p p p p s q q q q q q q q q q w p p p p r t u 8 y 2 7 7 .                             ",
"              . , - ; 2 7 q q q q d d q q e p f f f f f f f g d d d d q q q q q d q w s p p p h r y 2 2 7 7 .                           ",
"            . > 9 j 7 7 q q q d d d d d d g g k l k z x x x x z c v v b n d d q d d d d q e s p p p 7 7 2 7 m .                         ",
"          . > 9 u 2 7 q q q d d d d b M c N N B V C C C C Z C V V A S D F G M H n J J d d d q q q q q 7 7 7 K r .                       ",
"        . > 9 u L 7 q q q d d d M P I A A A U C C C C C C Y C C C C C C C T A R G P v l J d d q q q q q q 7 a r r .                     ",
"        . > 8 E 7 q q d d d W Q A A ! C C A ~ Z ^ C C C A . A V V V V C C / C C V ( ) P c l d d q q q q q q 7 7 m t .                   ",
"      . > 8 j 7 q q d d P Q B ! C / Z ! ! ! ~ . _ U ` ` ' . ] [ ' ` A A ` ] A C C C ! A { P b d d q q q q q q 7 7 K t .                 ",
"      . 6 ; 2 q q q d P S ! ! ! ! / } Z Z | ' . . . . . . . . . . . .  .. / U A A ^ U A A ( ] P d d q q q q q q 7 7 1 y .               ",
"    . @ ; 1 7 q q d ~ U ! ~ / | T T . . ... . . X.o.o.o.o.o.o.o.o.o.X.. . . . ' [ } } ^ ! C A / . O.d q q q q q q 7 2 L y .             ",
"    . @ ; 2 q q q P +.! ! | ]  .[ U ' . . X.o.@.@.@.@.@.@.@.@.@.@.@.@.@.@.@.X.. . ` ` T ! ! ! ! { . #.q d q q q q q 7 2 1 .             ",
"    . ; ; 7 q q $.. A ! ! T T . . } . o.@.@.%.%.%.%.%.%.%.@.@.@.@.@.@.@.@.@.@.@.X.. . ` ( T Z ' C +.P &.d d d d q q q 7 2 2 .           ",
"    . ; 1 7 q q ] ` U T *.A | / } . @.@.%.=.%.%.%.%.%.%.%.%.%.%.%.%.%.=.%.@.@.@.@.-.C . . . ~ T ! *.I . W p f ;.g q q q 7 1 .           ",
"    . ; 1 7 q q . T T ~ ~ / ' ' . @.=.%.=.=.=.=.=.=.=.=.=.=.=.=.=.=.=.=.=.=.=.%.%.@.@.:.. ' T A ! ! A ( P >.p p f f s q 7 2 7 .         ",
"    . ; 1 7 q $.. *.A T ` ] ] . =.=.=.=.=.=.,.,.<.1.1.1.1.<.<.<.<.,.,.,.,.,.,.,.,.=.=.,.C . / | *.! ! A +.. 2.p p f p s q 7 2 .         ",
"    . ; ; 7 q $.. A *.A T ' ~ . =.=.. . . 1.3.4.4.5.5.4.4.4.4.4.6.3.1.<.,.. . . ,.,.,.,.%.A . . ] ~ ~ C C W W p h p f p w 7 2 .         ",
"      . ; 7 q q . | [ } ] . . =.=.. . . . . 7.7.7.8.8.7.7.7.7.7.7.5.5.4.. . . . . ,.,.,.,.9.. U ' T ! ! C B ..2.r p f p p 7 2 .         ",
"      . ; 2 7 e P ] ` / ' / . =.4.. . . . } 8.8.. 8.8.. 8.8.8.. 8.8.7.7.. . . . . ,.,.,.,.%.C . ~ T ! ! C ! ] 0.r p p f p 7 2 .         ",
"      . q.y r p w.. ' T ' ' . 4.4.7.] } e.8.r.r.r.. . t.. . . 8.8.8.8.8.8.. . . 4.<.,.,.,.,.@.. ] } / U C ! _ y.r h p f p a 2 .         ",
"        . 8 r p p u.. ( A . 6.4.7.8.8.r.r.r.r.r.r.. t.t.t.t.. 8.8.8.8.8.8.8.8.8.4.i.<.,.,.,.@.. T U } ~ e.~ . &.r h p f p 7 2 .         ",
"        . 9 y p p p p.. A . 5.7.8.8.r.r.r.r.r.r.r.. . . . ... r.r.8.8.8.8.8.8.8.7.4.i.<.a.,.=.s.. T ! ! *.Z . ;.r h p f s 7 1 .         ",
"          . u r p p p 0.. 5.7.8.8.r.r.r.r.r.r.r.r.. . d.f.g.. r.r.r.8.8.8.8.8.8.8.7.4.i.<.a.,.@.. } ~ ` ! ] W r r h p s e 7 .           ",
"            . r p f h.. 5.7.7.8.r.r.r.r.r.r.r.r.r.. . g.g.g.. r.r.r.r.8.8.8.8.8.8.8.7.6.1.<.<.=.. [ ~ / ] . s r r p s q q 2 .           ",
"              . . s j.. 7.7.8.8.r.r.r.r.r.r.r.r.r.k.l.g.g.. k.r.r.r.r.r.8.8.8.8.8.8.8.5.i.<.<.a.=.. +.. . d z.7 e q q q 7 2 .           ",
"                  . . 5.7.8.8.r.r.r.r.r.r.r.r.r.r.r.. g.g.. r.r.r.r.r.r.r.8.8.8.8.8.8.7.4.i.<.<.<.. . . J l q q q q q q 7 .             ",
"                    . 7.7.8.8.r.r.r.r.r.r.r.r.r.r.r.x.. . c.r.r.r.r.r.r.r.r.8.8.8.8.8.8.7.6.1.<.<.. q q q v.w w e e e a .               ",
"                  . 4.7.8.8.r.r.r.r.r.r.r.r.r.r.r.r.r.r.r.r.r.r.r.r.r.r.r.r.8.8.8.8.8.8.8.5.i.<.<.<.P q p p p p p p t .                 ",
"                  . 7.7.8.8.r.r.r.r.r.r.r.r.r.r.r.r.r.r.r.r.r.r.r.r.r.r.r.r.r.8.8.8.8.8.8.7.6.<.<.<.. q p p p p h t .                   ",
"                . 4.7.8.8.r.r.r.r.r.r.r.r.r.r.r.r.r.r.r.r.r.r.r.r.r.r.r.r.r.8.8.8.8.8.8.8.7.4.i.<.<.<.l.h.b.p . . .                     ",
"                . 7.8.8.8.r.r.r.r.r.r.r.r.r.r.r.r.r.r.r.r.r.r.r.r.r.r.r.r.r.8.8.8.8.8.8.8.7.4.i.<.<.<.. . . .                           ",
"                . 7.8.8.8.r.r.n.m.r.r.r.r.r.r.r.r.r.r.r.r.r.r.r.r.r.r.r.r.r.8.8.8.8.8.8.8.7.5.6.1.<.<.<..                               ",
"                . 7.8.8.8.r.r.M.m.r.r.r.r.r.r.r.r.r.r.r.r.r.r.r.r.r.r.r.r.8.8.8.8.8.8.8.8.7.5.6.N.<.<.<..                               ",
"                . 7.8.8.8.r.r.M.M.r.r.r.r.r.r.r.r.r.r.r.r.r.r.r.r.r.r.r.r.8.8.8.8.8.8.8.7.7.5.6.i.<.<.<..                               ",
"              . 7.7.8.8.8.r.r.M.M.m.r.r.r.r.r.r.r.r.r.r.r.r.r.r.r.r.r.r.r.8.8.8.8.8.8.8.7.7.4.6.i.<.<.<.<..                             ",
"              . 7.7.8.8.8.r.r.m.M.r.r.r.r.r.r.r.r.r.r.r.r.r.r.r.r.r.r.r.8.8.8.8.8.8.8.7.7.5.4.i.1.<.<.<.<..                             ",
"              . 7.7.8.8.8.r.r.r.M.m.r.r.r.r.r.r.r.r.r.r.r.r.r.r.r.r.r.8.8.8.8.8.8.8.8.7.7.5.4.i.1.<.<.<.1..                             ",
"              . 7.7.7.8.8.8.8.r.r.n.r.r.r.r.r.r.r.r.r.r.r.r.r.r.r.r.8.8.8.8.8.8.8.8.7.7.5.4.6.i.1.<.<.1.1..                             ",
"              . 7.7.7.8.8.8.8.r.r.r.m.r.r.r.r.r.r.r.r.r.r.r.r.r.r.r.r.8.8.8.8.8.8.7.7.5.4.4.i.i.<.<.<.1.1..                             ",
"              . 7.7.7.8.8.8.8.8.r.r.r.r.r.r.r.r.r.r.r.r.r.r.r.r.r.r.8.8.8.8.8.8.7.7.7.4.4.6.i.N.<.<.<.1.N..                             ",
"              . 5.7.7.8.8.8.8.8.r.r.r.r.r.r.r.m.m.r.r.r.r.r.r.r.r.8.8.8.8.8.7.7.7.5.4.4.4.i.i.1.<.<.<.1.N..                             ",
"              . 5.7.7.8.8.8.8.8.8.r.r.r.r.r.r.r.r.r.r.r.r.r.r.r.8.8.8.8.8.8.7.7.7.B.4.4.6.i.N.<.<.<.<.1.i..                             ",
"              . 4.5.7.7.8.8.8.8.8.8.r.r.r.r.r.r.r.r.r.r.r.r.8.8.8.8.8.8.8.7.7.5.4.4.4.6.i.i.<.<.<.<.<.N.i..                             ",
"                . 4.5.7.7.8.8.8.8.8.8.8.8.8.8.r.r.8.8.8.8.8.8.8.8.8.8.8.7.7.5.4.4.6.3.i.i.1.<.V.,.<.1.i..                               ",
"                . 4.B.5.7.8.7.7.8.8.8.8.8.8.8.8.8.8.8.8.8.8.8.8.8.8.7.7.5.4.4.4.6.3.i.i.<.<.,.,.,.<.N.i..                               ",
"                . 6.4.B.7.7.7.7.7.7.7.7.8.8.8.8.8.8.8.8.8.8.8.7.7.7.5.4.4.4.6.3.3.i.i.1.<.,.=.,.<.1.i.i..                               ",
"                  . 6.4.4.5.7.7.7.7.5.7.7.7.7.7.7.7.7.7.7.7.7.7.5.4.4.6.6.3.i.i.i.N.<.<.,.=.=.,.<.i.i..                                 ",
"                    . 3.4.4.5.5.5.5.C.4.B.B.B.B.5.5.5.5.5.5.4.4.4.6.6.3.i.i.i.i.1.<.<.,.=.,.,.<.N.i.i..                                 ",
"                    . i.i.6.4.5.B.4.4.4.4.4.4.4.4.4.4.4.4.4.6.6.3.3.i.i.i.i.N.1.<.V.,.=.,.V.<.i.i.i..                                   ",
"                      . i.i.6.4.4.4.4.6.3.3.3.6.6.6.6.6.3.3.i.i.i.i.i.i.i.1.<.<.,.=.=.,.V.<.N.i.3..                                     ",
"                        . i.i.3.6.6.6.6.i.i.i.i.i.i.i.i.i.i.i.i.i.i.N.1.1.<.<.,.,.,.,.V.<.i.i.i..                                       ",
"                          . i.i.i.3.3.3.i.i.i.i.i.i.i.i.i.N.N.1.1.1.<.<.<.<.V.,.,.V.<.N.i.3.i..                                         ",
"                            . i.i.i.i.i.i.i.i.i.i.N.N.N.1.1.1.1.<.<.<.<.<.<.<.<.<.1.i.i.i.. .                                           ",
"                              . . i.i.i.i.i.i.i.N.N.1.1.1.1.<.<.<.<.<.<.<.<.<.1.i.i.3.. .                                               ",
"                                  . . . N.i.i.i.N.1.1.1.1.1.1.<.<.<.<.<.1.N.i.i.3.. .                                                   ",
"                                        . . . . i.i.i.i.i.N.i.i.i.i.i.i.i.3.. . .                                                       ",
"                                                . . . . . . . . . . . . . .                                                             ",
"                                                                                                                                        "
};
