/* XPM */
static char *result[] = {
/* columns rows colors chars-per-pixel */
"40 40 212 2 ",
"   c #060605",
".  c #191812",
"X  c #2B1300",
"o  c #261706",
"O  c #351601",
"+  c #231E18",
"@  c #383504",
"#  c #28251D",
"$  c #362616",
"%  c #302400",
"&  c #2A2821",
"*  c #38352B",
"=  c #3A3931",
"-  c #471B01",
";  c #5A2E01",
":  c #592702",
">  c #573600",
",  c #4B3618",
"<  c #523014",
"1  c #673604",
"2  c #763302",
"3  c #7B3602",
"4  c #612400",
"5  c #453A29",
"6  c #514B15",
"7  c #7B4703",
"8  c #695906",
"9  c #6E4B0E",
"0  c #686615",
"q  c #6B6A10",
"w  c #57492A",
"e  c #524B39",
"r  c #59523B",
"t  c #494736",
"y  c #69502A",
"u  c #542A4B",
"i  c #5A5843",
"p  c #635C4A",
"a  c #635E52",
"s  c #69614D",
"d  c #746A4E",
"f  c #766C54",
"g  c #767558",
"h  c #6D6D51",
"j  c #7C7A66",
"k  c #833503",
"l  c #8B3B01",
"z  c #993D00",
"x  c #A43B00",
"c  c #8F4701",
"v  c #944901",
"b  c #9E5700",
"n  c #A44300",
"m  c #AB4400",
"M  c #AE4D00",
"N  c #B44A00",
"B  c #B74B00",
"V  c #A85A01",
"C  c #BB5400",
"Z  c #BC5C00",
"A  c #836302",
"S  c #AD7900",
"D  c #A97822",
"F  c #B07723",
"G  c #C35500",
"H  c #CA5600",
"J  c #C65A00",
"K  c #CC5D00",
"L  c #C46400",
"P  c #CD6400",
"I  c #CF6900",
"U  c #D26A00",
"Y  c #D86F09",
"T  c #CE7400",
"R  c #C87B00",
"E  c #DB7503",
"W  c #DD7309",
"Q  c #D67605",
"!  c #E1790B",
"~  c #E77C10",
"^  c #80795B",
"/  c #867D65",
"(  c #8A7E66",
")  c #897E68",
"_  c #837D70",
"`  c #9D8408",
"'  c #868612",
"]  c #BB8E00",
"[  c #AB9100",
"{  c #BE9300",
"}  c #A38F0B",
"|  c #A6A312",
" . c #AB9323",
".. c #B9B925",
"X. c #D78703",
"o. c #C59A00",
"O. c #DA9705",
"+. c #EB820E",
"@. c #EC8611",
"#. c #EB8A11",
"$. c #F48A11",
"%. c #F88D13",
"&. c #E79B11",
"*. c #FE9512",
"=. c #FF9A14",
"-. c #FB941C",
";. c #FF9A1C",
":. c #F39F11",
">. c #CDA900",
",. c #DCA902",
"<. c #CEB304",
"1. c #D6BB04",
"2. c #D6B501",
"3. c #F6A917",
"4. c #F9B819",
"5. c #EAAE0E",
"6. c #FF9A22",
"7. c #FFA422",
"8. c #FFAA24",
"9. c #FFAB2A",
"0. c #FFB424",
"q. c #FFB92A",
"w. c #FEB532",
"e. c #FFB933",
"r. c #FFAF32",
"t. c #D8C40B",
"y. c #DFC710",
"u. c #E5CA0C",
"i. c #EBC911",
"p. c #ECD311",
"a. c #EFDA11",
"s. c #F7DC16",
"d. c #EAD00F",
"f. c #FCE51A",
"g. c #FFF11F",
"h. c #D9DA27",
"j. c #FFC626",
"k. c #FFD628",
"l. c #FFC633",
"z. c #E1D72C",
"x. c #DFE026",
"c. c #FFED22",
"v. c #FFE42A",
"b. c #FEF725",
"n. c #FEFE33",
"m. c #FFF534",
"M. c #FFED31",
"N. c #8B8567",
"B. c #92856A",
"V. c #95896B",
"C. c #988A6A",
"Z. c #96946D",
"A. c #8A8A72",
"S. c #9C9975",
"D. c #9C8E72",
"F. c #A59C7B",
"G. c #A99C7A",
"H. c #A69A76",
"J. c #AD986D",
"K. c #ABA27E",
"L. c #FF00FF",
"P. c #A59F83",
"I. c #ABAA84",
"U. c #ABAA88",
"Y. c #ACA582",
"T. c #B2AA87",
"R. c #B4AB89",
"E. c #BBAC8A",
"W. c #B6A785",
"Q. c #B3B383",
"!. c #BCB18D",
"~. c #BCBB8A",
"^. c #BDB593",
"/. c #BDBD94",
"(. c #BEBC9B",
"). c #BFAE92",
"_. c #C3BB9B",
"`. c #C5BA97",
"'. c #C0B68C",
"]. c #C7BFA2",
"[. c #C4C29E",
"{. c #C0C08F",
"}. c #CBC3A3",
"|. c #CAC9A6",
" X c #C9C3A6",
".X c #D3C9AC",
"XX c #D3D0AE",
"oX c #D5CCB3",
"OX c #D9CBB4",
"+X c #D9D3B6",
"@X c #DDD6BA",
"#X c #DCD7B9",
"$X c #CEC3B0",
"%X c #E2DCBF",
"&X c #E3DDC2",
"*X c #E8DCC4",
"=X c #E4E1C3",
"-X c #ECE5CC",
";X c #EDEACE",
":X c #E7E3C9",
">X c #ECE6D2",
",X c #EEEDD4",
"<X c #EEEEDC",
"1X c #F5EBD4",
"2X c #F3EEDC",
"3X c #FEEEDD",
"4X c #FFF0DF",
"5X c #FFEFE2",
"6X c #FFF3E4",
"7X c #FFFCED",
"8X c #FFF8EB",
"9X c None",
/* pixels */
"9X9X9X9X9X9X9X9X9X9X9X9X9X9X9X9X9X9X9X9X9X9X9X9X9X9X9X9X9X9X9X9X9X9X9X9X9X9X9X9X",
"9X9X9X9X9X9X9X9X9X9X9X9X9X9X9X9X9X9X9X9X9X9X9X9X9X9X9X9X9X9X9X9X9X9X9X9X9X9X9X9X",
"9X9X9X9X9X9X9X9X9X9X9X9X9X9X9X9X9X9X9X9X9X9X9X9X9X9X9X9X9X9X9X9X9X9X9X9X9X9X9X9X",
"9X9X9X9X9X9X9X9X9X9X9X9X9X9X9X9X6 q 0 9 1 1 ; 9X9X9X9X9X9X9X9X9X9X9X9X9X9X9X9X9X",
"9X9X9X9X9X9X9X9X9X9X9X9X9X9Xq ..x.n.k.3.%.%.! V A @ 9X9X9X9X9X9X9X9X9X9X9X9X9X9X",
"9X9X9X9X9X9X9X9X9X9X9X9X9X..n.n.n.M.9.6.=.*.%.+.O.t.| 0 9X9X9X9X9X9X9X9X9X9X9X9X",
"9X9X9X9X9X9X9X9X9X9X9X9X..n.n.n.M.0.7.6.6.=.*.$.#.O.1.<.8 9X9X9X9X9X9X9X9X9X9X9X",
"9X9X9X9X9X9X9X9X9X9X9X .m.m.M.k.9.8.8.6.;.=.*.$.#.+.X.X.X.1 9X9X9X9X9X9X9X9X9X9X",
"9X9X9X9X9X9X9X9X9X9XF w.q.q.0.8.8.8.7.6.;.=.=.%.#.~ W E U Z 1 9X9X9X9X9X9X9X9X9X",
"9X9X9X9X9X9X9X9X9XF w.r.8.9.8.9.8.7.6.6.6.;.=.%.$.@.~ ! E U Z ; 9X9X9X9X9X9X9X9X",
"9X9X9X9X9X9X9X9XD e.l.l.e.9.8.8.6.6.6.6.6.6.6.7.=.:.:.$.+.Q U Z > 9X9X9X9X9X9X9X",
"9X9X9X9X9X9X9XD w.w.v.b.f.j.7.6.6.6.6.6.6.6.0.k.f.s.p.i.5.&.W U L v X 9X9X9X9X9X",
"9X9X9X9X9X6  .9.r.j.g.g.c.c.q.;.-.-.-.-.6.;.s.f.f.a.a.p.d.y.,.U P I M 1 % 9X9X9X",
"9X9X9X9X0 h.l.8.;.k.g.f.f.s.3.$.#.@.@.@.@.#.5.p.d.d.u.u.t.1.<.T L I I T S @ 9X9X",
"9X9X9X0 x.k.3.6.-.3.p.d.u.&.+.Q W ! W Y Y Y X.1.1.1.2.2.2.>.o.L P P I T 2.[ 9X9X",
"9X9X@ h.b.j.%.~ W E E O.Q I I I K P P J J J J R { >.{ { ] S Z B B C J I O.2.8 9X",
"9X9X' b.f.3.! U L J H K I U U E Q T P H G G H H J Z J C M m m m m m B G R ,.[ 9X",
"9X9X| c.a.O.P G C N n z v c 7 8 A 7 7 3 2 3 k k k 3 2 2 k z m m m m m m Z X.` 9X",
"9X9X| s.,.L N l 4 O $ 5 d C.Z.B.B.B.B.B.B.B.( p f f 5 , < < 1 1 c l x x n J V 9X",
"9X9X` 5.U m - o $ . N.B.t g /.~.{.{./.{.'.'.d   # C.E.W.J.y , y y , 1 v x m 1 9X",
"9X9X7 Y H 3 o r e * F.*     F.~.~.~.~.Z.K.{.p   . V.E.E.'.H.5 y w 8 ` V x z O 9X",
"9X9X9X3 G x : < , 5 U.j # i Q.^ N.h Z.s K.~.W.( D.E.E.R.W.'.G.e 7 >.] c : X 9X9X",
"9X9X9X9X: l n S 7 h /.~.Q.~.!.G.g N.h Z.R.E.E.'.E.E.W.U.U.U.R.V.9 > ; X 9X9X9X9X",
"9X9X9X9X9X9Xo o r Q.~.~.~.(.}. X|.|.|.|.[.[.'.!.).E.W.U.U.U.U.G.g & 9X9X9X9X9X9X",
"9X9X9X9X9X9X9Xa R././.[.oX%X-X>X1X1X1X1X,X-X&X+X X_.^.E.R.T.I.G.H.^ + 9X9X9X9X9X",
"9X9X9X9X9X9X# P._.}.+X;X2X2X3X3X3X3X3X3X3X2X<X<X>X*X+X}.^.!.R.K.G.H.e 9X9X9X9X9X",
"9X9X9X9X9X9Xs `.}.*X2X3X6X6X6X3X3X5X6X6X5X3X3X<X<X<X,X=X+X_.!.R.K.G.d 9X9X9X9X9X",
"9X9X9XL.L.u Y.}.@X1X3X3X8X7X7X7X7X8X7X6X5X3X3X3X<X<X<X,X-X%X|.'.R.Y.C.* 9X9X9X9X",
"9X9X9X9X9Xu }.#X,X2X3X5X6X8X7X7X6X5X6X5X4X3X3X3X<X<X<X<X<X;X%X].^.Y.H.* 9X9X9X9X",
"9X9X9X9X9X= oX-X<X3X3X3X5X3X5X3X3X3X3X3X2X6X2X<X<X<X<X<X<X<X:X.X`.T.H.= 9X9X9X9X",
"9X9X9X9X9X= $X,X2X3X3X3X3X3X3X3X3X3X3X3X2X<X<X<X<X<X<X<X,X;X-XoX^.T.F.5 9X9X9X9X",
"9X9X9X9X9X9X_ -X,X2X2X3X3X3X3X3X3X5X2X2X<X<X<X<X<X<X2X,X;X-X%X}.E.Y.N.& 9X9X9X9X",
"9X9X9X9X9X9X= ].-X>X>X,X2X<X2X,X<X<X,X,X,X;X;X;X;X-X:X:X*X#X}.).U.G.i 9X9X9X9X9X",
"9X9X9X9X9X9X9Xj oX&X%X@X=X:X:X:X=X=X=X=X=X%X%X%X%XOXXXXX$X_.!.T.Y.d 9X9X9X9X9X9X",
"9X9X9X9X9X9X9X9Xa P.(.].OX+X#X+X+XOXOXOX.X.X[.|. X}.[.`.^.U.F.B.i 9X9X9X9X9X9X9X",
"9X9X9X9X9X9X9X9X9X& * e ) A.A.A.A.A.) ) N.( ( ( / ( / ( / i & # 9X9X9X9X9X9X9X9X",
"9X9X9X9X9X9X9X9X9X9X9X9X9X9X9X9X9X9X9X9X9X9X9X9X9X9X9X9X9X9X9X9X9X9X9X9X9X9X9X9X",
"9X9X9X9X9X9X9X9X9X9X9X9X9X9X9X9X9X9X9X9X9X9X9X9X9X9X9X9X9X9X9X9X9X9X9X9X9X9X9X9X",
"9X9X9X9X9X9X9X9X9X9X9X9X9X9X9X9X9X9X9X9X9X9X9X9X9X9X9X9X9X9X9X9X9X9X9X9X9X9X9X9X",
"9X9X9X9X9X9X9X9X9X9X9X9X9X9X9X9X9X9X9X9X9X9X9X9X9X9X9X9X9X9X9X9X9X9X9X9X9X9X9X9X"
};
