/* XPM */
static char *result[] = {
/* columns rows colors chars-per-pixel */
"68 66 128 2 ",
"   c magenta",
".  c black",
"X  c #FFFF33",
"o  c #FFEE33",
"O  c #FFCC22",
"+  c #FF9922",
"@  c #FF8811",
"#  c #EE8811",
"$  c #DD7711",
"%  c #DD7700",
"&  c #FFAA22",
"*  c #FF9911",
"=  c #EE7711",
"-  c #DD8800",
";  c #DDBB00",
":  c #FFCC33",
">  c #DD9900",
",  c #DDDD11",
"<  c #FFDD33",
"1  c #DDCC11",
"2  c #DD8811",
"3  c #DDAA00",
"4  c #DDCC00",
"5  c #DDBB11",
"6  c #CCAA00",
"7  c #CC7700",
"8  c #CC8800",
"9  c #FFAA33",
"0  c #FFBB33",
"q  c #FFBB22",
"w  c #DD6600",
"e  c #CC6600",
"r  c #EE9911",
"t  c #FFEE22",
"y  c #FFDD22",
"u  c #FFDD11",
"i  c #EEDD11",
"p  c #EECC11",
"a  c #EEBB11",
"s  c #EEAA11",
"d  c #FFEE11",
"f  c #CC9900",
"g  c #CCBB00",
"h  c #DDAA11",
"j  c #FFFF22",
"k  c #BB6600",
"l  c #BB5500",
"z  c #CC5500",
"x  c #BBAA00",
"c  c #BB9900",
"v  c #BB8800",
"b  c #BB4400",
"n  c #FFAA11",
"m  c #BB7700",
"M  c #AA6600",
"N  c #AA5500",
"B  c #AA4400",
"V  c #994400",
"C  c #663300",
"Z  c #442200",
"A  c #552200",
"S  c #331100",
"D  c #221100",
"F  c #111100",
"G  c #110000",
"H  c #773300",
"J  c #883300",
"K  c #662200",
"L  c #444433",
"P  c #777755",
"I  c #999977",
"U  c #BBAA88",
"Y  c #BBAA77",
"T  c #AA9977",
"R  c #998866",
"E  c #332211",
"W  c #884400",
"Q  c #AA3300",
"!  c #993300",
"~  c #BBBB88",
"^  c #332222",
"/  c #BB9966",
"(  c #886633",
")  c #886622",
"_  c #885522",
"`  c #553311",
"'  c #665533",
"]  c #554433",
"[  c #333322",
"{  c #BBBB99",
"}  c #554422",
"|  c #443311",
" . c #776633",
".. c #886644",
"X. c #332200",
"o. c #442211",
"O. c #776644",
"+. c #222211",
"@. c #665544",
"#. c #222200",
"$. c #AA8800",
"%. c #995500",
"&. c #777744",
"*. c #887744",
"=. c #997700",
"-. c #AAAA88",
";. c #885500",
":. c #996600",
">. c #AA7700",
",. c #AAAA77",
"<. c #999966",
"1. c #CCBBAA",
"2. c #CCCCAA",
"3. c #DDCCBB",
"4. c #DDDDBB",
"5. c #CCBB99",
"6. c #888866",
"7. c #EEEECC",
"8. c #EEEEDD",
"9. c #FFEEDD",
"0. c #EEDDCC",
"q. c #DDCCAA",
"w. c #FFEEEE",
"e. c #FFFFEE",
"r. c #FFFFDD",
"t. c #DDDDCC",
"y. c #BBAA99",
"u. c white",
/* pixels */
"                                                                                                                                        ",
"                                                                                                                                        ",
"                                                                                                                                        ",
"                                                                                                                                        ",
"                                                                                                                                        ",
"                                                        . . . . . . . . . . .                                                           ",
"                                                  . . . X X X o O + @ # # $ % . . .                                                     ",
"                                              . . X X X X X o O & + * @ @ # = % - ; . . .                                               ",
"                                            . X X X X X X X : & & + * * * @ # = % > ; , , . .                                           ",
"                                          . X X X X X X X < & & & + * * * * * # # $ ; 1 , , , .                                         ",
"                                        . X X X X X X X o & & & + + + + * * * @ # # 2 3 4 1 1 5 .                                       ",
"                                      . X X X X X X X o & & & & + + + + + * * @ # # $ $ - 3 6 6 6 .                                     ",
"                                    . o o X X X X < : & & & & & + + * * * * * @ # # # $ $ % % 7 8 7 .                                   ",
"                                  . 9 0 0 : : 0 q & & & & & & & & + + * * * * @ # # # = $ % % w e e e .                                 ",
"                                . 9 9 9 & & & & & & & & & & & & + + + * * + * * # # # = $ % % % e e e e .                               ",
"                              . 9 0 0 9 9 & & & & & & 9 & & + + + + + + + * * * @ # # # = $ $ % % e e e e .                             ",
"                            . 9 0 0 0 0 9 9 9 9 9 & & & & + + + + + + + + + + + * @ # # # # = $ % % e e e e .                           ",
"                          . 9 0 0 0 0 : 0 9 & & & & & + + + + + + + + + + + + + + * * r r # # # = $ % e e e e . .                       ",
"                        . 0 0 0 0 : X X t y O & + + + + + + + + + + + + + + + q O y u u i i p a s 2 $ % w e e e e .                     ",
"                      . 0 0 0 9 9 t t t t t t y + + + + + + + + + + + + + & y t t t d u i i i p p p 5 $ % w e e e e . .                 ",
"                  . . : 0 9 9 & O t t t t t t t q + + + + + + + + + + + + O y y u u i i i i p p p 1 1 ; % w e e e e e e . .             ",
"                . X X 0 9 & & & t t t t t t t t O + * * @ # # # # # # # # p i i i i i i i p p p 1 1 5 ; 6 e e e e e e e 7 f .           ",
"              . X X 0 & & & + q t t t u u u i i s # # # # # # # # # # # # r p p p p p p 1 1 1 4 5 ; g g 6 e e e e e e e 7 > 6 .         ",
"            . X X y & & + + + * u i i i i p p s = $ $ $ $ $ $ $ $ $ $ $ $ $ h 4 5 ; ; ; ; ; ; g g 6 6 6 f e e e e e e e 7 3 ; ; .       ",
"          . X j j q + + + @ # # r a 1 1 1 5 2 % % % % w w w w w e e e e e e 7 6 g g g g 6 6 6 6 6 6 6 f k l z e z e e e e f ; ; ; .     ",
"        . X j j t & + # # = $ % % w % - - % e e e e e e e e e e e z z z z z z z f 6 x 6 c c c c c c v l b l l l l l z e e 8 3 ; ; .     ",
"        . j j t t n # = % % e e e e e e e e e e e e e e e e z z z l l l l l l l l k m m m m m M N N B B B B B B B b l l z 7 f 3 ; ; .   ",
"      . j j t t u s $ % e e z z l l z z e e e e e e 7 7 7 7 z z z z z l l z z z z l l l b b b B B B B B B B B B B B B b l k 8 3 ; ; .   ",
"      . j t t i p > e e z l l l b l l z z e e l l v 6 6 6 f c m l l l l l z z z z z z z l l l b b B B B B B B B B B B B B l e 8 g ; .   ",
"      . t t i p ; e z l l b b b B V C Z Z Z A S D F D G G G G G G G . G G G G G G G G F D D D D A H J B l b B B B B B B B B l e 8 6 .   ",
"      . t y p ; 7 z l b b V K D G G G F L P I U U U U U U U U U U U U U U U U U U Y T R E G D S S Z Z S S S C W B B B B Q ! B l e e .   ",
"      . t i 1 8 z l b K G . G F . L I U U ~ ~ ~ ~ ~ ~ ~ ~ ~ ~ ~ ~ ~ ~ U U U U . . ^ U U U U Y Y / D ( ( ) _ _ ` Z S H B Q ! B B z e .   ",
"      . p a % z z B D . D ' ] [ . U U U . . . { { { U ~ ~ { { { { ~ ~ ~ ~ U . . . . . U U U U U Y Y G } | | '  ...E X.M ! ! Q B l .     ",
"      . # = e z l H . o.O.L +.L . U { . . . . . { ~ ~ ~ ~ ~ ~ ~ ~ ~ ~ ~ ~ ~ . . . . . U U U U U U U U . @.' O.O.[ #.$.$.%.! Q B z .     ",
"        . = e z b H G D &.P P O.. U { . . . . . ~ ~ ~ ~ ~ ~ ~ ~ ~ . ~ ~ ~ U U . . . U U U U U U U U U U . *.D D =.6 x $.%.B B l .       ",
"          . w z b B H D G #.E E . ~ { { . . . ~ ~ ~ . ~ ~ . ~ ~ ~ . ~ U U U U U U U U U U U -.-.U U U U -.. ;.:.4 ; c >.B B . .         ",
"            . z l b b l M %.W . U { { ~ ~ ~ ~ ~ U U U . . U . . . U U U U U U U U U U U U U -.-.-.-.U U U ,.. e % c M B . .             ",
"              . . z l m 6 8 e . ~ { ~ ~ ~ ~ ~ ~ ~ U U U U U ~ ~ ~ ~ U U U U U U U U U U U -.-.-.-.-.-.-.-.,.R . . . . .                 ",
"                  . . . . . . ~ ~ ~ ~ ~ ~ ~ { { { { { { { { { { { { { { { ~ U U U U U U U -.-.-.-.-.-.-.-.T <.R .                       ",
"                          . { { ~ ~ ~ ~ { { { 1.2.3.3.4.4.4.4.4.4.4.4.3.2.2.5.{ { { { U U U U -.-.-.-.-.,.T I R 6..                     ",
"                        . 5.{ { { { { { 2.3.4.7.8.8.8.9.9.9.9.9.9.9.8.8.8.7.0.4.3.2.5.{ { { U U U U -.-.,.T T I R R .                   ",
"                      . 5.{ { { { 5.2.4.7.8.9.9.9.9.9.9.9.9.9.9.9.9.9.9.9.8.8.7.7.0.4.3.2.5.{ { U U U -.-.,.T T T I .                   ",
"                      . 5.{ { 5.2.4.7.9.9.9.9.9.9.9.9.9.9.9.9.9.9.8.9.9.8.8.8.8.8.8.7.7.0.4.2.5.{ { U U U -.,.T T T I .                 ",
"                    . 5.5.5.5.q.0.8.9.9.9.9.9.9.9.9.9.9.9.9.9.9.9.9.9.9.9.9.9.8.8.8.8.8.7.7.0.4.2.5.{ U U U -.,.T T I .                 ",
"                    . 5.5.5.2.0.8.9.9.9.9.9.w.e.e.w.9.9.9.w.w.e.e.e.w.9.9.9.9.9.8.8.8.8.8.7.7.7.0.3.5.{ { U U -.T T T .                 ",
"                  . 2.5.5.2.4.7.9.9.9.9.r.e.e.e.e.e.e.e.e.e.e.e.e.9.9.9.9.9.9.9.9.8.8.8.8.8.8.7.7.0.4.2.5.{ U U -.T T T .               ",
"                  . q.2.2.4.7.8.9.9.9.9.w.e.e.e.e.e.e.e.e.w.w.w.9.9.9.9.9.9.9.9.9.8.8.8.8.8.8.8.8.7.7.4.2.{ { U -.T T T .               ",
"                  . 3.q.3.7.8.8.9.9.9.9.9.9.w.w.e.e.e.9.9.9.9.9.9.9.9.9.9.9.9.9.8.8.8.8.8.8.8.8.8.8.7.0.3.1.{ { -.,.T I .               ",
"                  . 4.4.0.8.8.9.9.9.9.9.9.9.9.9.9.9.9.9.9.9.9.9.9.9.9.9.9.8.8.8.8.8.8.8.8.8.8.8.8.8.8.7.t.2.5.{ U -.T T .               ",
"                  . 0.0.7.8.8.9.9.9.9.9.9.9.9.9.9.9.9.9.9.9.9.9.9.9.9.8.8.8.8.8.8.8.8.8.8.8.8.8.8.8.7.7.0.3.5.{ U -.T T .               ",
"                  . 4.0.7.8.8.8.9.9.9.9.9.9.9.9.9.9.9.9.9.9.9.9.9.9.8.8.8.8.8.8.8.8.8.8.8.8.8.8.7.7.7.7.0.3.{ U U -.T T .               ",
"                    . 0.0.7.8.8.9.9.9.9.9.9.9.9.9.9.9.9.9.9.9.9.9.8.8.8.8.8.8.8.8.8.8.8.8.8.8.8.7.7.7.0.4.2.{ U -.,.T I .               ",
"                    . 4.0.7.7.8.8.8.8.9.9.9.9.9.9.8.9.9.8.8.8.8.8.8.8.8.7.7.7.8.8.8.8.8.8.7.7.7.7.0.0.4.q.5.U U -.T T .                 ",
"                      . 4.0.0.7.7.7.7.7.8.8.8.8.8.8.8.8.8.8.8.8.8.8.7.7.7.7.7.7.7.7.7.7.7.7.7.0.0.4.4.2.5.y.U -.,.T I .                 ",
"                      . 3.4.4.0.0.0.0.0.7.7.7.7.7.7.7.7.7.7.7.7.7.7.7.0.7.0.0.0.0.0.t.4.4.4.4.4.3.q.2.{ y.U -.-.T T .                   ",
"                        . 2.2.3.4.4.4.4.4.t.t.0.0.0.t.t.4.4.4.4.4.4.4.4.4.4.4.4.4.4.3.q.q.2.2.2.1.{ { U U -.-.T T .                     ",
"                          . 1.2.2.2.2.2.3.3.3.4.4.3.4.3.3.3.3.3.3.3.3.3.q.2.2.2.2.2.1.1.5.5.{ { { y.U -.-.T T T .                       ",
"                            . . 5.{ { 5.5.1.2.2.2.2.2.2.2.2.2.1.1.1.5.5.{ 5.{ { { { { { { { y.U U U -.-.T T . .                         ",
"                                . . . . U U { { { { { { { { { U U U U U U U U U U U y.U U U U U -.-.. . . .                             ",
"                                        . . . . . . . . . . . . . . . . . . . . . . . . . . . . . .                                     ",
"                                                                                                                                        ",
"                                                                                                                                        ",
"                                                                                                                                        ",
"                                                                                                                                        ",
"                                                                                                                                        ",
"                                                                                                                                        "
};
