/* XPM */
static char *result[] = {
/* columns rows colors chars-per-pixel */
"40 40 228 2 ",
"   c #050403",
".  c #16140C",
"X  c #1E1700",
"o  c #1D1B13",
"O  c #1A1A18",
"+  c #100000",
"@  c #311600",
"#  c #311903",
"$  c #211E13",
"%  c #240811",
"&  c #3A2604",
"*  c #2C2B1D",
"=  c #25241B",
"-  c #342D18",
";  c #3E3217",
":  c #2D2D24",
">  c #252320",
",  c #362F23",
"<  c #343323",
"1  c #3C392C",
"2  c #393427",
"3  c #3C3931",
"4  c #491A17",
"5  c #6C0202",
"6  c #452A07",
"7  c #532A00",
"8  c #483608",
"9  c #432C15",
"0  c #563D0C",
"q  c #643200",
"w  c #693601",
"e  c #763902",
"r  c #6A211D",
"t  c #413D2B",
"y  c #423926",
"u  c #403F34",
"i  c #48460D",
"p  c #5A4D00",
"a  c #5A4402",
"s  c #575000",
"d  c #654B06",
"f  c #77430D",
"g  c #7C5705",
"h  c #67451A",
"j  c #7D4B14",
"k  c #635700",
"l  c #796300",
"z  c #7B750B",
"x  c #45432C",
"c  c #4B432F",
"v  c #434333",
"b  c #4A4736",
"n  c #524A34",
"m  c #554A37",
"M  c #57543A",
"N  c #584A28",
"B  c #78572A",
"V  c #68593A",
"C  c #6C5530",
"Z  c #7C6139",
"A  c #514D48",
"S  c #5A5B4C",
"D  c #555447",
"F  c #565657",
"G  c #665D42",
"H  c #685D44",
"J  c #646144",
"K  c #6B6448",
"L  c #746948",
"P  c #6D6D5B",
"I  c #666553",
"U  c #756C55",
"Y  c #797457",
"T  c #7D7A68",
"R  c #73746E",
"E  c #810000",
"W  c #BE0000",
"Q  c #823C00",
"!  c #874401",
"~  c #994E03",
"^  c #995206",
"/  c #925815",
"(  c #A65202",
")  c #AC5401",
"_  c #AF5802",
"`  c #B55500",
"'  c #BB5500",
"]  c #BD5A00",
"[  c #B55C00",
"{  c #A84B00",
"}  c #8C6703",
"|  c #9A7C00",
" . c #996C0F",
".. c #AD6402",
"X. c #AA6807",
"o. c #BD6500",
"O. c #B46A01",
"+. c #A67805",
"@. c #BC7200",
"#. c #BB7808",
"$. c #AA7015",
"%. c #9A7626",
"&. c #996521",
"*. c #C25C00",
"=. c #C95F00",
"-. c #C36400",
";. c #CA6200",
":. c #C86C00",
">. c #D26500",
",. c #DB6700",
"<. c #DB6B00",
"1. c #D66A00",
"2. c #C27B01",
"3. c #C87300",
"4. c #DC7200",
"5. c #D97900",
"6. c #C27C14",
"7. c #E37301",
"8. c #EA7C03",
"9. c #86744C",
"0. c #857556",
"q. c #816B44",
"w. c #877969",
"e. c #817E76",
"r. c #9B9916",
"t. c #AD8903",
"y. c #BB8500",
"u. c #BB8B00",
"i. c #B49500",
"p. c #BC9300",
"a. c #B49C00",
"s. c #BC9C00",
"d. c #B6A500",
"f. c #DA9300",
"g. c #CF8400",
"h. c #E68707",
"j. c #FB8300",
"k. c #FE8B02",
"l. c #F78D08",
"z. c #E89D00",
"x. c #FE9407",
"c. c #F99914",
"v. c #C2A300",
"b. c #C7A800",
"n. c #CDB500",
"m. c #D1A808",
"M. c #F8AB06",
"N. c #DCC200",
"B. c #E8C900",
"V. c #ECD200",
"C. c #FAD900",
"Z. c #FBC91C",
"A. c #FEE300",
"S. c #FFEB00",
"D. c #EECC23",
"F. c #8A846B",
"G. c #8A8977",
"H. c #94947A",
"J. c #99937C",
"K. c #969173",
"L. c #988F6F",
"P. c #A49574",
"I. c #AA9E77",
"U. c #A09578",
"Y. c #A3976E",
"T. c #ABA579",
"R. c #B0A77D",
"E. c #99968B",
"W. c #8D8A8A",
"Q. c #A19989",
"!. c #ACAB84",
"~. c #A8A58B",
"^. c #B4AB8A",
"/. c #BBAD8B",
"(. c #B4A983",
"). c #B8B18F",
"_. c #B5AA97",
"`. c #B4B293",
"'. c #BDB495",
"]. c #BDBC9A",
"[. c #BAB896",
"{. c #AEA398",
"}. c #B8AFA3",
"|. c #C2BD9C",
" X c #CABD9D",
".X c #C2B596",
"XX c #D0BF9D",
"oX c #C3BFA1",
"OX c #C7BDA4",
"+X c #D0BFA1",
"@X c #BFC09D",
"#X c #C6C09E",
"$X c #C6C2A2",
"%X c #CAC4A4",
"&X c #CDC3A9",
"*X c #CDCBAB",
"=X c #C9C8A9",
"-X c #D3CCAC",
";X c #D8CDAE",
":X c #CDCCB3",
">X c #CBC1B2",
",X c #DBCDB3",
"<X c #D4CBB5",
"1X c #DAD3B5",
"2X c #DDD6BA",
"3X c #DEDABC",
"4X c #D6D2B4",
"5X c #D2D1AF",
"6X c #E1DABC",
"7X c #DDDBC7",
"8X c #E4DDC3",
"9X c #E8DDCB",
"0X c #E6E2C4",
"qX c #E4E3C9",
"wX c #ECE4CB",
"eX c #EDEBCD",
"rX c #EAE2C7",
"tX c #EEEDD4",
"yX c #EEEEDC",
"uX c #EEE1D1",
"iX c #F3EEDD",
"pX c #FEEEDD",
"aX c #F2E8D7",
"sX c #F0F0DB",
"dX c #FFEEE1",
"fX c #FFF2E1",
"gX c #FAF6E6",
"hX c None",
/* pixels */
"hXhXhXhXhXhXhXhXhXhXhXhXhXhXhXhXhXhXhXhXhXhXhXhXhXhXhXhXhXhXhXhXhXhXhXhXhXhXhXhX",
"hXhXhXhXhXhXhXhXhXhXhXhXhXhXi i h $.6.#.o.-...7 6 hXhXhXhXhXhXhXhXhXhXhXhXhXhXhX",
"hXhXhXhXhXhXhXhXhXhXhXhXz r.D.Z.c.c.x.k.k.k.x.M.f.~ 7 hXhXhXhXhXhXhXhXhXhXhXhXhX",
"hXhXhXhXhXhXhXhXhXhXh m.D.Z.c.c.k.j.8.j.j.M.A.S.A.C.z.~ 7 hXhXhXhXhXhXhXhXhXhXhX",
"hXhXhXhXhXhXhX6 &.6.c.l.h.7.5.4.,.,.1.,.<.z.V.C.A.A.C.z.;.w hXhXhXhXhXhXhXhXhXhX",
"hXhXhXhXhXhX/ h.l.8.1.=.=.:.u.u.@.] ' ' ' *.2.v.n.N.V.V.z.o.w hXhXhXhXhXhXhXhXhX",
"hXhXhXhXhXa.l.7.=.] ` ` o.p.a.a.a.#.` ` ' ' ' o.y.p.b.n.N.h.*.q hXhXhXhXhXhXhXhX",
"hXhXhXhXd.M.>.] ` _ ) ( X.+.$.%.%.%.&./ / ^ ) ) _ ..O.y.p.2.>.o.a hXhXhXhXhXhXhX",
"hXhXhXd.B.5.' ' ( ^ f B Z Z 9.0.9.V 9.9.L Z C ! f ^ _ _ ' ' *.:.u.p hXhXhXhXhXhX",
"hXhXk B.f.] ) ! h C V Y L 2 V L H - V L 9.H H 9.V h ! ( ` ' ' *.:.y.p hXhXhXhXhX",
"hXhX+.h.*.` f N K L 1 n m o o < , o * , , $ y L V K C 8 Q ` ' ' *.:.y.k hXhXhXhX",
"hX7 7.>.' e N J < c 1 . , M F.K.L.L.L.L.U m b : * M Y J , e ` ' ' ] <.O.hXhXhXhX",
"hX7 7.=.{ 9 K U b . * Y Y.T.T.T.T.I.I.I.I.I.P.0.c 1 b M H 9 w _ ..' *.;.w hXhXhX",
"hX7 4.=.Q x N x x : T R.!.T.!.!.!.!.!.!.!.!.(.R.Y.J o n Y K ; g i.t.@.;.( hXhXhX",
"hX7 4.=.e n K x . S F.S H.#X*X5X-X=X*X X.XP.H w.(.(.G * v M V 8 | a.i.3.*.@ hXhX",
"hXhX( >.Q , y = * H.=   < 7X:XqX:XtX*X9X6Xu   . L..XY.; < J 0.m d s.a.u.*.@ hXhX",
"hXhX} f.+.& c t b *XP > e.aXE.R W.R E.yXyXG.O A `././.H o x V M 6 s.a.p.-.@ hXhX",
"hXhX8 n.v.l ; y Q.tXyX9XpXgX{.F W.D }.gXyXyX7X7X:X'.).0.1 c b , a v.d.u.o.@ hXhX",
"hXhXhXz d.s.d I 8XiXpXpXpXdX}.+ 5 5 }.pXyXyXyXiXqX-X[.!., - M - | b.p.@.e hXhXhX",
"hXhXhXhXa } C :XyXdXpXpXpXdXOX4 W r :XfXiXdXyXyXsX8X#X[.P $ . d 2.@.o.=.w hXhXhX",
"hXhXhXhXhX% T tXyXpXpXpXpXpXpXw.5 w.pXpXpXpXiXyXyXtX1X#XK.# w ..o.] o.! hXhXhXhX",
"hXhXhXhXhX: =XyXsXpXpXpXpXpXpXuXOXuXpXpXpXpXiXyXyXyXwX=X`.C ..u.p.p.} hXhXhXhXhX",
"hXhXhXhXhXT eXiXpXpXpXpXpXpXpXpXdXdXpXpXpXpXiXyXyXyXtX4X@XF.! t.l s hXhXhXhXhXhX",
"hXhXhXhXhX~.gXiXpXfXpXpXpXpXpXpXdXpXpXpXpXpXiXiXyXyXtX3X$X`.t o hXhXhXhXhXhXhXhX",
"hXhXhXhXhX~.yXgXfXgXfXpXpXpXpXpXpXpXpXpXpXpXyXyXyXyXtX8XOX|.P hXhXhXhXhXhXhXhXhX",
"hXhXhXhXv :XyXyXgXgXfXdXpXpXpXpXpXpXpXpXpXpXyXyXyXyXeX8X*X].H.: hXhXhXhXhXhXhXhX",
"hXhXhXhXS eXyXiXdXgXdXpXpXpXpXpXpXpXpXpXpXyXyXyXyXtXwX1X%X[.[.3 hXhXhXhXhXhXhXhX",
"hXhXhXhXS eXyXyXiXfXfXpXpXpXpXpXpXpXpXpXiXyXyXyXyXtX0X4X X[.'.1 hXhXhXhXhXhXhXhX",
"hXhXhXhXS eXtXyXiXpXdXpXpXdXpXpXpXpXpXpXiXyXyXiXeXqX2X*X].]..X3 hXhXhXhXhXhXhXhX",
"hXhXhXhXS wXtXyXyXiXpXpXpXdXdXpXpXpXpXiXyXyXtXeXwX3X4X%X].[.|.3 hXhXhXhXhXhXhXhX",
"hXhXhXhXA 2XtXyXyXyXiXpXpXpXpXpXpXdXiXyXyXyXeX0X3X1X*X|.[.]._.3 hXhXhXhXhXhXhXhX",
"hXhXhXhXhXQ.eXtXyXyXyXyXyXyXiXyXyXyXyXyXtXeX0X3X4X*X|.'./.%Xw.hXhXhXhXhXhXhXhXhX",
"hXhXhXhXhXe.8XwXeXeXeXtXyXtXyXtXtXsXtXeX8X6X1X;X*X#X).(.'.%XP hXhXhXhXhXhXhXhXhX",
"hXhXhXhXhXhXJ.3XrXeXrX0XqXqXwXwXwXrX6X6X,X-X*X%X|./.^.).$X~.O hXhXhXhXhXhXhXhXhX",
"hXhXhXhXhXhXD ].6X8X3X2X1X2X2X2X1X4X4X-X-X=X$X.X^.^._.%X[.D hXhXhXhXhXhXhXhXhXhX",
"hXhXhXhXhXhXhXI oX1X,X,X-X*X-X:X-X*X&X&XOX X[./.^.'.%X[.D hXhXhXhXhXhXhXhXhXhXhX",
"hXhXhXhXhXhXhXhXI `.-X;X=X*X=X&X%X X X[.[.[.[.'.OX[.F.v hXhXhXhXhXhXhXhXhXhXhXhX",
"hXhXhXhXhXhXhXhXhX< P G.$X$X&X%X X+X X].#XoXoX|.G.b hXhXhXhXhXhXhXhXhXhXhXhXhXhX",
"hXhXhXhXhXhXhXhXhXhXhXhX3 v G.J.J.J.H.H.H.H.I 3 hXhXhXhXhXhXhXhXhXhXhXhXhXhXhXhX",
"hXhXhXhXhXhXhXhXhXhXhXhXhXhXhXhXhXhXhXhXhXhXhXhXhXhXhXhXhXhXhXhXhXhXhXhXhXhXhXhX"
};
