/* XPM */
static char *result[] = {
/* columns rows colors chars-per-pixel */
"40 40 221 2 ",
"   c #020202",
".  c #0A0A09",
"X  c #1B1A15",
"o  c #3C1E00",
"O  c #311801",
"+  c #2B1C0A",
"@  c #3C2307",
"#  c #22211E",
"$  c #28241D",
"%  c #3A3211",
"&  c #261321",
"*  c #2F2C23",
"=  c #2B2124",
"-  c #36332A",
";  c #393327",
":  c #3D3C31",
">  c #312F23",
",  c #472403",
"<  c #542C01",
"1  c #562601",
"2  c #463A08",
"3  c #543801",
"4  c #4A3317",
"5  c #693501",
"6  c #7B3B05",
"7  c #4B3E28",
"8  c #443F32",
"9  c #464406",
"0  c #594606",
"q  c #6A4605",
"w  c #7E4503",
"e  c #6C5906",
"r  c #7A521B",
"t  c #6B6807",
"y  c #72670C",
"u  c #55472C",
"i  c #494432",
"p  c #4B4836",
"a  c #544D3B",
"s  c #564B35",
"d  c #58533E",
"f  c #554E29",
"g  c #635B3F",
"h  c #685A39",
"j  c #6D532E",
"k  c #7F6439",
"l  c #6A603D",
"z  c #514F40",
"x  c #5B5847",
"c  c #645D42",
"v  c #6B654B",
"b  c #65644E",
"n  c #7B6744",
"m  c #7F704E",
"M  c #6B6554",
"N  c #7D765D",
"B  c #776E55",
"V  c #8A3A00",
"C  c #854706",
"Z  c #87581D",
"A  c #92560B",
"S  c #AC4B00",
"D  c #AB4600",
"F  c #AC5400",
"G  c #AC5903",
"H  c #A55603",
"J  c #BC5500",
"K  c #B55B00",
"L  c #BC5B00",
"P  c #B55300",
"I  c #AD5E10",
"U  c #897600",
"Y  c #B56402",
"T  c #A76419",
"R  c #B76714",
"E  c #B36E0E",
"W  c #865824",
"Q  c #9A6925",
"!  c #976A29",
"~  c #A57324",
"^  c #AC6C28",
"/  c #C35D00",
"(  c #C46402",
")  c #CC6501",
"_  c #CC6A02",
"`  c #C4650A",
"'  c #D46700",
"]  c #D46D00",
"[  c #DA6D00",
"{  c #CE7E01",
"}  c #D57300",
"|  c #DD7400",
" . c #DA7B00",
".. c #E27400",
"X. c #EC7B00",
"o. c #E27900",
"O. c #F47E00",
"+. c #88744B",
"@. c #83775B",
"#. c #867D64",
"$. c #887C65",
"%. c #9A9000",
"&. c #B79B01",
"*. c #B38507",
"=. c #BFA000",
"-. c #B2B11D",
";. c #A79D22",
":. c #B8B425",
">. c #C88702",
",. c #DB8100",
"<. c #DC8B00",
"1. c #D18100",
"2. c #C99600",
"3. c #D89A00",
"4. c #D38019",
"5. c #F58100",
"6. c #FD8601",
"7. c #FF8A01",
"8. c #F78B00",
"9. c #E89B00",
"0. c #FC9F00",
"q. c #FF930C",
"w. c #FF9300",
"e. c #F48E0F",
"r. c #CAA803",
"t. c #DAA900",
"y. c #C9B401",
"u. c #D8B800",
"i. c #FFA400",
"p. c #FFAD01",
"a. c #FFBE00",
"s. c #FFB50F",
"d. c #F9B113",
"f. c #D3A429",
"g. c #FAAE2E",
"h. c #DCCD00",
"j. c #DDC400",
"k. c #DFD200",
"l. c #EBC800",
"z. c #FCCA04",
"x. c #E3D500",
"c. c #E3D900",
"v. c #ECDC00",
"b. c #FFDE00",
"n. c #FFDC12",
"m. c #F5E600",
"M. c #FEEC00",
"N. c #FFE708",
"B. c #FFF000",
"V. c #F7ED0E",
"C. c #D7D221",
"Z. c #FFC52B",
"A. c #83816C",
"S. c #8A8468",
"D. c #92866A",
"F. c #8B8A72",
"G. c #898577",
"H. c #948C73",
"J. c #918E7D",
"K. c #9D9977",
"L. c #9D997A",
"P. c #9A9274",
"I. c #A59C7A",
"U. c #A89B78",
"Y. c #ACA17B",
"T. c #969085",
"R. c #ACA582",
"E. c #ACAA82",
"W. c #B4A684",
"Q. c #B3AA86",
"!. c #B4AB88",
"~. c #BAAB89",
"^. c #BAAA87",
"/. c #BAB18E",
"(. c #ADAB95",
"). c #B7AE93",
"_. c #BDB595",
"`. c #BEBD9B",
"'. c #BCB89B",
"]. c #B7B0A4",
"[. c #C3BB98",
"{. c #C0AF8C",
"}. c #C9BEA1",
"|. c #C4BBA9",
" X c #CBBEB1",
".X c #C8C19E",
"XX c #CBC2A2",
"oX c #CAC8A5",
"OX c #C5C2A6",
"+X c #D3CCAC",
"@X c #D3C8AB",
"#X c #D2D0AD",
"$X c #CEC4B3",
"%X c #CACAB0",
"&X c #D9CDB5",
"*X c #D3CFB0",
"=X c #D8D4B6",
"-X c #D7D5B8",
";X c #E1DBBE",
":X c #DFD7C5",
">X c #E3DDC2",
",X c #E9DDC7",
"<X c #E3E1C2",
"1X c #E9E3C7",
"2X c #ECE4CA",
"3X c #EDEBCD",
"4X c #E6E5C9",
"5X c #EEEDD3",
"6X c #EEEEDC",
"7X c #F0ECD3",
"8X c #F4EEDC",
"9X c #FEEEDD",
"0X c #F1F1D8",
"qX c #F0EBCF",
"wX c #FFEEE3",
"eX c #FFEEEB",
"rX c #FFF1E2",
"tX c #FFF4EC",
"yX c #FFFDEE",
"uX c #F5F3E0",
"iX c None",
/* pixels */
"iXiXiXiXiXiXiXiXiXiXiXiXiXiXiXiXiXiXiXiXiXiXiXiXiXiXiXiXiXiXiXiXiXiXiXiXiXiXiXiX",
"iXiXiXiXiXiXiXiXiXiXiXiXiXiXiXiXiXiXiXiXiXiXiXiXiXiXiXiXiXiXiXiXiXiXiXiXiXiXiXiX",
"iXiXiXiXiXiXiXiXiXiXiXiXiXiXiXiXiXiXiXiXiXiXiXiXiXiXiXiXiXiXiXiXiXiXiXiXiXiXiXiX",
"iXiXiXiXiXiXiXiXiXiXiXiXiXiXiXiXiX9 y y t q 5 < iXiXiXiXiXiXiXiXiXiXiXiXiXiXiXiX",
"iXiXiXiXiXiXiXiXiXiXiXiXiXiX4 ;.:.C.V.N.b.w.7.o.F F < iXiXiXiXiXiXiXiXiXiXiXiXiX",
"iXiXiXiXiXiXiXiXiXiXiXiX4 Q g.g.Z.g.p.0.7.6.7.7.6.X.} H 1 iXiXiXiXiXiXiXiXiXiXiX",
"iXiXiXiXiXiXiXiXiXiXiXy f.g.g.q.d.7.6.6.7.7.i.a.a.0.,.o.) < iXiXiXiXiXiXiXiXiXiX",
"iXiXiXiXiXiXiX@ 9 -.:.V.s.0.q.q.7.7.6.7.7.p.b.M.M.m.l.9...L , iXiXiXiXiXiXiXiXiX",
"iXiXiXiXiXO w 4.d.n.z.p.6.O.O.O.O.O.5.O.5.z.m.m.m.m.v.c.t.[ C iXiXiXiXiXiXiXiXiX",
"iXiXiXiXy  .7.7.5.8.X.X.X...| ......| ..} <.j.k.c.c.c.c.x.<.) 5 iXiXiXiXiXiXiXiX",
"iXiXiXy.a.6.O.X.o.o.| |  .,.3.,.' [ [ [ ' _ 1.t.j.h.h.h.h.<.' F , iXiXiXiXiXiXiX",
"iXiX%.M.9.| ] ' [ [ [ ' 1.t.y.y.{ ) ) _ ' ) ) } 1.2.r.t.3. .[ ' G 2 iXiXiXiXiXiX",
"iX9 x.l.} ) ) ) ` ` K T T ~ ~ ~ Q Q ^ ^ R ` _ _ ) _ ( ` ) ' | | ,.&.0 iXiXiXiXiX",
"iX%.v.2.( ) / H Z W k +.l u f d i s g c u j W ^ R ` _ ( / J ( ] ..t.u.U iXiXiXiX",
"iX=.3.Y / H Z k +.c s p > - d a a s a a a a a u 7 Q R _ ) / J L / ] t.y.U iXiXiX",
"iXY ( J F Z +.g c 8 > c S.L.Y.Y.U.Y.U.U.Y.U.U.$.B s h Z R ( ) L F K ( >.2.q iXiX",
"iXH / P 6 k @.c ; - P.).{.!.E.E.W.E.E.E.E.W.W.Y.Y.U.v i +.T ` ` L I P L ) G O iX",
"iX, L P 5 k v 8 X D.W.M @.^.^.^.~.~.~.^.^.^.^.^.^.Q.Q.P.a h Z I ` / F S / ( o iX",
"iXiXC ) 5 , c c i R.z   . D.%X%X#X#XXX[.[.W.a $ B ^.~.~.D.8 +.r *.>.G D S / o iX",
"iXiX< K G < + 8 M }.N X : %X(.-X4XuX$X).,X(..   > !.~.^.R.- p u e y.*.S D J o iX",
"iXiXiX3 =.&.6 % ).+X-X-X:XuX].G.T.T.G.].uX3XJ.x K.`./.~.^.#.z n 0 r.*.S S J o iX",
"iXiXiXiX% w C D.=X1X0X8X8X9XwX X:X].$X9X9XuX5X2X;X+X.X/.!.R.z 4 q >.G S J V iXiX",
"iXiXiXiXiX& #.=X3X7X8XuXeXeXeXtXwX9XwX9X9X9X7X3X3X1X*X`.~.Y.$.@ G _ Y E P 1 iXiX",
"iXiXiXiXiXT.>X5X7XuXeXeXeXeXtXyXeXwX9X9X9X9XwX6X3X3X3X*X'.R.U.M A r.r.U 3 iXiXiX",
"iXiXiXiXG.>X3X8XwXeXtXyXtXeXtXyXtXrX9X9X9X9XwXuX0X3X3X3X#X/.Y.K.f t 2 iXiXiXiXiX",
"iXiXiXi OX3X8X8XwXyXyXyXyXyXyXyXyXeXwX9X9X9X9XuX6X0X0X3X<X.XQ.Y.B iXiXiXiXiXiXiX",
"iXiXiXA.1X5X8X9XrXyXyXyXyXyXyXyXyXtXwX9X9X9X6X6X6X6X6X5X3X-X'.R.N = iXiXiXiXiXiX",
"iXiX# |.2X5X8X9X9XtXyXyXyXyXyXtXrX9X9X9X9X8X6X6X6X6X6X5X3X-X`.Y.K.: iXiXiXiXiXiX",
"iXiX=  XqX6X8X9X9X9XrXrXtXrX9X9X9X9X9X9X8XuX6X6X6X6X6X0X5X>XOXR.I.: iXiXiXiXiXiX",
"iXiX# $X7X8X9X9X9X9X9X9X9X9X9X9X9X9XwX8X6X6X6X6X6X6X6X0X3X<X}.Y.K.: iXiXiXiXiXiX",
"iXiXiX'.3X6X8X9X9X9X9X9X9X9XwX9X9X9X6X6X6X6X6X6X6X6X5X3X2X=X_.Y.K.: iXiXiXiXiXiX",
"iXiXiXM ,X5X6X9X9X9X9X9X9X9X8X8X8X6X6X5X6X6X6X6X6X5X3X2X;XXX!.I.S.* iXiXiXiXiXiX",
"iXiXiXiX(.2X3X7XqX7X8X8X5X6X6X5X7X5X5X3X3XqX2X3X2X,X:X-X}.{.R.I.x iXiXiXiXiXiXiX",
"iXiXiXiXM |.>X-X>X,X4X2X1X,X<X<X<X,X>X;X;X;X;X=X#X@XXX`.).R.I.b iXiXiXiXiXiXiXiX",
"iXiXiXiXiXx J.`.`.@X&X=X=X-X=X&X&X&X+XoXoXoXOX[.[._.).W.Y.S.a iXiXiXiXiXiXiXiXiX",
"iXiXiXiXiXiXiX- : N G.F.F.F.F.F.$.$.$.$.$.S.$.$.#.#.#.p * $ iXiXiXiXiXiXiXiXiXiX",
"iXiXiXiXiXiXiXiXiXiXiXiXiXiXiXiXiXiXiXiXiXiXiXiXiXiXiXiXiXiXiXiXiXiXiXiXiXiXiXiX",
"iXiXiXiXiXiXiXiXiXiXiXiXiXiXiXiXiXiXiXiXiXiXiXiXiXiXiXiXiXiXiXiXiXiXiXiXiXiXiXiX",
"iXiXiXiXiXiXiXiXiXiXiXiXiXiXiXiXiXiXiXiXiXiXiXiXiXiXiXiXiXiXiXiXiXiXiXiXiXiXiXiX",
"iXiXiXiXiXiXiXiXiXiXiXiXiXiXiXiXiXiXiXiXiXiXiXiXiXiXiXiXiXiXiXiXiXiXiXiXiXiXiXiX"
};
