/* XPM */
static char *result[] = {
/* columns rows colors chars-per-pixel */
"40 40 225 2 ",
"   c #020201",
".  c #0A0A09",
"X  c #1C1B16",
"o  c #3D1E00",
"O  c #311801",
"+  c #281C19",
"@  c #291A01",
"#  c #3B2306",
"$  c #29261E",
"%  c #3A3311",
"&  c #332E27",
"*  c #36332A",
"=  c #3A3326",
"-  c #3A3931",
";  c #2E2D23",
":  c #472503",
">  c #542C00",
",  c #562600",
"<  c #443B01",
"1  c #4A3C0F",
"2  c #533800",
"3  c #483318",
"4  c #4A3313",
"5  c #693501",
"6  c #7B3B05",
"7  c #4B3E28",
"8  c #443F33",
"9  c #464405",
"0  c #594605",
"q  c #6B4605",
"w  c #7E4503",
"e  c #7A521B",
"r  c #6E530B",
"t  c #6C6807",
"y  c #72670B",
"u  c #4F452F",
"i  c #494432",
"p  c #4B4836",
"a  c #51473B",
"s  c #544C3B",
"d  c #574D37",
"f  c #58533E",
"g  c #5A492A",
"h  c #635B3F",
"j  c #685939",
"k  c #6D532E",
"l  c #7F6439",
"z  c #6A603D",
"x  c #4F4F41",
"c  c #504E41",
"v  c #5A5846",
"b  c #645D42",
"n  c #655F57",
"m  c #6B664C",
"M  c #776647",
"N  c #696454",
"B  c #776C54",
"V  c #786C57",
"C  c #7A7058",
"Z  c #7F704E",
"A  c #7C7964",
"S  c #8A3A00",
"D  c #854806",
"F  c #87581D",
"G  c #96530E",
"H  c #AC4B00",
"J  c #AB4600",
"K  c #AC5400",
"L  c #AC5903",
"P  c #A55603",
"I  c #BC5500",
"U  c #B55B00",
"Y  c #BC5B00",
"T  c #B55300",
"R  c #AD5E10",
"E  c #897600",
"W  c #A96200",
"Q  c #B56402",
"!  c #A76419",
"~  c #B76714",
"^  c #B67212",
"/  c #865824",
"(  c #9A6925",
")  c #976A29",
"_  c #A57324",
"`  c #AC6C28",
"'  c #C35D00",
"]  c #C46402",
"[  c #CC6501",
"{  c #CC6A02",
"}  c #C4650A",
"|  c #D46700",
" . c #D46D00",
".. c #DA6D00",
"X. c #CE7E01",
"o. c #D57300",
"O. c #DD7400",
"+. c #DA7B00",
"@. c #E27400",
"#. c #EC7B00",
"$. c #E27900",
"%. c #F47E00",
"&. c #88744B",
"*. c #83775B",
"=. c #877D64",
"-. c #9A9000",
";. c #B79B01",
":. c #B38507",
">. c #BFA000",
",. c #A5A51F",
"<. c #A79D21",
"1. c #B8B425",
"2. c #C88702",
"3. c #DB8100",
"4. c #DC8B00",
"5. c #D18100",
"6. c #C99600",
"7. c #D89A00",
"8. c #D38119",
"9. c #F58100",
"0. c #FD8601",
"q. c #FF8A01",
"w. c #F78B00",
"e. c #E89B00",
"r. c #FF930C",
"t. c #FD9B00",
"y. c #F48E0F",
"u. c #CAA803",
"i. c #DAA900",
"p. c #CAB401",
"a. c #CCBB0D",
"s. c #FFA400",
"d. c #FFAD01",
"f. c #FFBE00",
"g. c #FFB50F",
"h. c #F9B113",
"j. c #D3A428",
"k. c #FBAE2E",
"l. c #DCCD00",
"z. c #DDC400",
"x. c #DFD200",
"c. c #EBC800",
"v. c #FCCA04",
"b. c #E3D500",
"n. c #E3D900",
"m. c #ECDC00",
"M. c #FFDE00",
"N. c #FFDC12",
"B. c #F5E600",
"V. c #FEEC00",
"C. c #FFE808",
"Z. c #FFF000",
"A. c #FDF516",
"S. c #EDE000",
"D. c #D7D221",
"F. c #FFC52B",
"G. c #89846B",
"H. c #91886B",
"J. c #8A8679",
"K. c #948D75",
"L. c #9B9679",
"P. c #A39C7C",
"I. c #AB9E7B",
"U. c #A69976",
"Y. c #ACA17A",
"T. c #919086",
"R. c #ADA582",
"E. c #ACAA82",
"W. c #AAA68A",
"Q. c #B4A684",
"!. c #B3AB86",
"~. c #B4AB89",
"^. c #BAAC89",
"/. c #BAAA87",
"(. c #BCB28E",
"). c #ADAB95",
"_. c #BCB494",
"`. c #BFBA98",
"'. c #BDB79B",
"]. c #B0AD99",
"[. c #B7B0A4",
"{. c #C3BC9B",
"}. c #C2B792",
"|. c #C1AF8C",
" X c #C9BAA4",
".X c #CBBDB2",
"XX c #C5C19E",
"oX c #CCC4A2",
"OX c #CBC9A9",
"+X c #C8C3A7",
"@X c #D3CBAC",
"#X c #D4C8AB",
"$X c #CEC3B2",
"%X c #CBCBB0",
"&X c #D7CEB4",
"*X c #D5D3B3",
"=X c #DAD4B5",
"-X c #DDD6BA",
";X c #DED9BB",
":X c #D5D4BA",
">X c #D1D0AB",
",X c #E1D7BE",
"<X c #E2E1BF",
"1X c #DED8C3",
"2X c #E4DCC3",
"3X c #E8DEC6",
"4X c #E4E1C5",
"5X c #E9E4C7",
"6X c #ECE4CB",
"7X c #EDEACC",
"8X c #E3E4CD",
"9X c #EDEDD3",
"0X c #EEEEDC",
"qX c #F3EEDC",
"wX c #FEEEDD",
"eX c #F1EED4",
"rX c #F1F1D8",
"tX c #F1E5CE",
"yX c #FFEEE4",
"uX c #FFEEEC",
"iX c #FFF1E2",
"pX c #FFF3EC",
"aX c #FFFDEE",
"sX c #F5F3E0",
"dX c None",
/* pixels */
"dXdXdXdXdXdXdXdXdXdXdXdXdXdXdXdXdXdXdXdXdXdXdXdXdXdXdXdXdXdXdXdXdXdXdXdXdXdXdXdX",
"dXdXdXdXdXdXdXdXdXdXdXdXdXdXdXdXdXdXdXdXdXdXdXdXdXdXdXdXdXdXdXdXdXdXdXdXdXdXdXdX",
"dXdXdXdXdXdXdXdXdXdXdXdXdXdXdXdXdXdXdXdXdXdXdXdXdXdXdXdXdXdXdXdXdXdXdXdXdXdXdXdX",
"dXdXdXdXdXdXdXdXdXdXdXdXdXdXdXdXdX9 y y t q 5 > dXdXdXdXdXdXdXdXdXdXdXdXdXdXdXdX",
"dXdXdXdXdXdXdXdXdXdXdXdXdXdX1 <.1.D.A.C.v.t.q.$.K P > dXdXdXdXdXdXdXdXdXdXdXdXdX",
"dXdXdXdXdXdXdXdXdXdXdXdX1 ) k.k.F.F.d.t.q.q.0.q.0.%.o.P , dXdXdXdXdXdXdXdXdXdXdX",
"dXdXdXdXdXdXdXdXdXdXdXy j.k.k.r.r.q.q.0.q.q.s.f.f.t.3.$.[ > dXdXdXdXdXdXdXdXdXdX",
"dXdXdXdXdXdXdX# 9 ,.1.A.g.r.r.q.r.q.q.q.q.d.C.V.V.B.c.e.@.Y : dXdXdXdXdXdXdXdXdX",
"dXdXdXdXdX@ D 8.h.N.v.s.q.%.%.%.%.%.%.%.9.v.B.B.B.B.S.n.i...D dXdXdXdXdXdXdXdXdX",
"dXdXdXdXy +.q.q.9.w.#.#.#.$.@.@.@.@.@.@.o.4.z.b.n.n.n.n.b.4.[ 5 dXdXdXdXdXdXdXdX",
"dXdXdXp.f.0.%.@.$.$.$.O.O.3.7.5.| ..o...| { 5.i.z.l.l.l.l.4.| P : dXdXdXdXdXdXdX",
"dXdX-.V.e.@.o.| .... .| X.u.p.p.X.[ [ [ | | } o.5.6.u.i.7.O...| W 9 dXdXdXdXdXdX",
"dX9 b.c.o.[ [ [ } } Q ! ! _ _ _ ( ( ` ` ~ } { { [ [ ] ] [ | O...3.;.0 dXdXdXdXdX",
"dX-.m.6.] [ ' P G / M ) z u d h 8 d h j g k / ` ~ } { ' ' Y [  .O.i.i.E dXdXdXdX",
"dX>.7.Q ' P F l *.b p p ; * f s a d a s p s d u 7 ` ^ } [ ' Y Y '  .i.p.E dXdXdX",
"dXQ ] I K F &.h b i & b G.P.Y.Y.I.Y.I.I.Y.Y.U.G.B p j F ~ ] [ Y K U ] 2.6.q dXdX",
"dXP ' T 6 l *.b = = K.^.|.~.E.E.E.E.E.E.E.~.Q.Q.Y.U.m i &.! ~ [ Y K K ' [ K O dX",
"dX: Y T 5 l m i X H.Q.N =././.^.^././././././.Q./.!.!.L.d j F R } Y K K ' ] o dX",
"dXdXD | 5 % j h 8 R.x     H.OXOX>X>XoXXX}.Q.a $ B /././.G.8 &.e :.6.Q H H ' o dX",
"dXdX: U Q , + = N oXG.X - %X).:X8XrX$X].5X)..   ; ~././.R.& a g r u.:.J J I o dX",
"dXdXdX2 ;.;.S = '.&X;X:X1XsX[.J.J.T.J.[.iX9XK.v L.`.(.^./.=.c M 0 u.:.H H I o dX",
"dXdXdXdX% w D K.*X4X9X0XqXwXyX.X1X X.XwXwXqXeX7X<X@XXX(.~.R.c 3 q 2.R J I S dXdX",
"dXdXdXdXdX+ G.=X5X0XsXyXuXuXuXpXyXyXwXwXwXwXeX9X7X5X*X{./.Q.=.: L { Q Q T , dXdX",
"dXdXdXdXdXV -X3X9XqXyXuXuXuXpXaXuXyXwXwXwXwXqXqXeXeX5X*X`.~.I.f W u.u.E 2 dXdXdX",
"dXdXdXdX* '.3X9XeXyXpXpXpXpXpXaXpXyXwXwXwXyXsX0X0X0XrX5X*X_.E.H.4 < < dXdXdXdXdX",
"dXdXdXdXA 2X6X9XyXiXaXaXaXaXaXaXaXpXyXwXwXsX0X0X0X0X0X9X4X+XE.Y.= dXdXdXdXdXdXdX",
"dXdXdXdXW.tX9XqXwXpXaXaXaXaXaXaXaXpXyXwXwX0X0X0X0X0X0X0X6X@X~.E.m dXdXdXdXdXdXdX",
"dXdXdXx &X6X0XwXwXyXaXaXaXaXaXpXiXwXwXwXwXqX0X0X0X0X0X0XtX&X(.E.B dXdXdXdXdXdXdX",
"dXdXdXn 6XtX0XwXwXwXwXiXpXwXyXwXwXwXwXwXsX0X0X0X0X0X0X0X7X-X_.R.B dXdXdXdXdXdXdX",
"dXdXdXn tX0XqXwXwXwXwXwXwXwXwXwXwXwXwXqX0X0X0X0X0X0X0X0X6X=X|.Y.B dXdXdXdXdXdXdX",
"dXdXdXN tX9XqXyXwXwXwXwXwXwXwXwXwXwXqX0X0X0X0X0X0X0X0X9X5X@X^.Y.B dXdXdXdXdXdXdX",
"dXdXdXp $XeX0XqXwXwXwXwXwXwXwXwXwXqX0X0X0X0X0X0X0X0X9X7X=X+X~.U.f dXdXdXdXdXdXdX",
"dXdXdXdXJ.6X9X0XqXqXwXqXqXwXeXqXqX0X9X7XrX9XeX9XeX7X5X,XoX_.R.=.+ dXdXdXdXdXdXdX",
"dXdXdXdX- +X2X6X6X6X9X9X9X9X9X9X9X7X7X5X6X6X4X4X,X,X*XXX_.!.I.s dXdXdXdXdXdXdXdX",
"dXdXdXdXdXN '.=X=X:X1X2X2X1X-X-X,X,X=X*X*X*X#XoX+X X_.(.!.P.m dXdXdXdXdXdXdXdXdX",
"dXdXdXdXdXdX* A H.R. X+XOXOXOX+X X{.{.{.`.`.'.^.^.(.P.C B 8 dXdXdXdXdXdXdXdXdXdX",
"dXdXdXdXdXdXdXdXdX$ a x x x x c a a a a c a a a p p - dXdXdXdXdXdXdXdXdXdXdXdXdX",
"dXdXdXdXdXdXdXdXdXdXdXdXdXdXdXdXdXdXdXdXdXdXdXdXdXdXdXdXdXdXdXdXdXdXdXdXdXdXdXdX",
"dXdXdXdXdXdXdXdXdXdXdXdXdXdXdXdXdXdXdXdXdXdXdXdXdXdXdXdXdXdXdXdXdXdXdXdXdXdXdXdX",
"dXdXdXdXdXdXdXdXdXdXdXdXdXdXdXdXdXdXdXdXdXdXdXdXdXdXdXdXdXdXdXdXdXdXdXdXdXdXdXdX"
};
