/* XPM */
static char *result[] = {
/* columns rows colors chars-per-pixel */
"40 40 220 2 ",
"   c #020201",
".  c #0B0800",
"X  c #1D1C18",
"o  c #16140F",
"O  c #3A1D01",
"+  c #321903",
"@  c #2B1B0B",
"#  c #3C2606",
"$  c #312F16",
"%  c #2E2B22",
"&  c #322D23",
"*  c #3D3C2B",
"=  c #373328",
"-  c #383932",
";  c #411B00",
":  c #492803",
">  c #582C00",
",  c #453A00",
"<  c #683802",
"1  c #733701",
"2  c #433D31",
"3  c #463E28",
"4  c #464407",
"5  c #555208",
"6  c #6B4819",
"7  c #6F5000",
"8  c #7F6D0A",
"9  c #48412C",
"0  c #5C4426",
"q  c #58482C",
"w  c #46453A",
"e  c #494633",
"r  c #534E3C",
"t  c #5B513D",
"y  c #5B573C",
"u  c #684C25",
"i  c #7E5727",
"p  c #7A5E35",
"a  c #70603F",
"s  c #575544",
"d  c #565548",
"f  c #635B43",
"g  c #635B48",
"h  c #62624C",
"j  c #666045",
"k  c #766944",
"l  c #666457",
"z  c #776D57",
"x  c #7A775C",
"c  c #7C7865",
"v  c #6E6760",
"b  c #8A3C00",
"n  c #844600",
"m  c #9A4C00",
"M  c #924800",
"N  c #975204",
"B  c #955918",
"V  c #A94400",
"C  c #A84B00",
"Z  c #AC5500",
"A  c #A35F0D",
"S  c #B55300",
"D  c #BB5300",
"F  c #B35B02",
"G  c #BC5B01",
"H  c #B75F0D",
"J  c #AB5609",
"K  c #826A07",
"L  c #8B7900",
"P  c #8A6919",
"I  c #98651C",
"U  c #976D00",
"Y  c #BD6202",
"T  c #BC6A09",
"R  c #B87A03",
"E  c #B86919",
"W  c #AE6308",
"Q  c #825B2C",
"!  c #915E23",
"~  c #9A6323",
"^  c #856636",
"/  c #926C32",
"(  c #AD7026",
")  c #C15C00",
"_  c #C36202",
"`  c #CC6501",
"'  c #CC6C00",
"]  c #C66709",
"[  c #D46B00",
"{  c #DC6E00",
"}  c #D66700",
"|  c #CC7502",
" . c #C87D02",
".. c #DC7400",
"X. c #DC7A00",
"o. c #D57700",
"O. c #C46913",
"+. c #E27500",
"@. c #EC7A00",
"#. c #E37A00",
"$. c #F17C00",
"%. c #817554",
"&. c #86795E",
"*. c #896E44",
"=. c #877D64",
"-. c #8A7E67",
";. c #807A71",
":. c #938D07",
">. c #A88F06",
",. c #B98801",
"<. c #B69B00",
"1. c #B5B519",
"2. c #B8AA05",
"3. c #C88600",
"4. c #C79A05",
"5. c #D49700",
"6. c #D88600",
"7. c #F68100",
"8. c #FF8700",
"9. c #FE8A00",
"0. c #E39200",
"q. c #FF9302",
"w. c #FB9404",
"e. c #FF9919",
"r. c #F38D11",
"t. c #C5A504",
"y. c #DAA500",
"u. c #D9B500",
"i. c #CBB000",
"p. c #FEA504",
"a. c #E6B700",
"s. c #FDBB02",
"d. c #F1A910",
"f. c #DD9E2D",
"g. c #FFA927",
"h. c #F8B52B",
"j. c #DCCC00",
"k. c #D5C200",
"l. c #DFD300",
"z. c #E1C600",
"x. c #FFC500",
"c. c #EADE00",
"v. c #E8D700",
"b. c #FFD701",
"n. c #FEEE00",
"m. c #FCE706",
"M. c #F8E61D",
"N. c #EDE000",
"B. c #DCD722",
"V. c #E2C52E",
"C. c #F3E12F",
"Z. c #8B836A",
"A. c #878468",
"S. c #92866A",
"D. c #898774",
"F. c #9A8F72",
"G. c #9B9375",
"H. c #9A967B",
"J. c #A49C7A",
"K. c #AA9D7B",
"L. c #A39978",
"P. c #ACA47C",
"I. c #959186",
"U. c #A09E87",
"Y. c #AFAA86",
"T. c #ACA687",
"R. c #B2AA86",
"E. c #B5AA89",
"W. c #BBAB89",
"Q. c #B7A785",
"!. c #B9B28E",
"~. c #ABA89A",
"^. c #B2AD95",
"/. c #BEB492",
"(. c #B6B49A",
"). c #BCB99C",
"_. c #BFBFAF",
"`. c #BFBFB0",
"'. c #C2BE9C",
"]. c #C5B597",
"[. c #C1B18F",
"{. c #C8BEA0",
"}. c #C3C19D",
"|. c #CCC3A3",
" X c #CAC8A6",
".X c #CFCBAC",
"XX c #C9C2A7",
"oX c #D4C9AB",
"OX c #D8CCB4",
"+X c #D9CEB6",
"@X c #D9D4B6",
"#X c #DAD7B8",
"$X c #D7D0AF",
"%X c #E1DCBF",
"&X c #E0D4BF",
"*X c #DACFC0",
"=X c #E3DDC2",
"-X c #E9DCCC",
";X c #E3E1C2",
":X c #E8E3C6",
">X c #ECE4CB",
",X c #EDEBCD",
"<X c #E4E2C9",
"1X c #F0EACE",
"2X c #EEEDD4",
"3X c #EEEEDC",
"4X c #E6E5D3",
"5X c #F1ECD4",
"6X c #F3EEDB",
"7X c #FEEEDD",
"8X c #F7E7DA",
"9X c #F5F0DE",
"0X c #F1F1D4",
"qX c #FEEEE2",
"wX c #FFEEED",
"eX c #FFF3E4",
"rX c #FFF4EC",
"tX c #FFFDED",
"yX c #FFF8E7",
"uX c None",
/* pixels */
"uXuXuXuXuXuXuXuXuXuXuXuXuXuXuXuXuXuXuXuXuXuXuXuXuXuXuXuXuXuXuXuXuXuXuXuXuXuXuXuX",
"uXuXuXuXuXuXuXuXuXuXuXuXuXuXuXuXuXuXuXuXuXuXuXuXuXuXuXuXuXuXuXuXuXuXuXuXuXuXuXuX",
"uXuXuXuXuXuXuXuXuXuXuXuXuXuXuXuXuXuXuXuXuXuXuXuXuXuXuXuXuXuXuXuXuXuXuXuXuXuXuXuX",
"uXuXuXuXuXuXuXuXuXuXuXuXuXuXuXuXuXuXuXuXuXuXuXuXuXuXuXuXuXuXuXuXuXuXuXuXuXuXuXuX",
"uXuXuXuXuXuXuXuXuXuXuXuXuXuXuXuX4 4 :.1.1.<.T Y n ; ; uXuXuXuXuXuXuXuXuXuXuXuXuX",
"uXuXuXuXuXuXuXuXuXuXuXuXuXuX# / V.C.M.m.x.s.q.9.7.+.} 7 + uXuXuXuXuXuXuXuXuXuXuX",
"uXuXuXuXuXuXuXuXuXuXuXuXuXP f.g.h.g.w.q.9.9.8.9.q.w.$.+._ 1 uXuXuXuXuXuXuXuXuXuX",
"uXuXuXuXuXuXuXuXuXuX$ 5 1.h.g.e.e.w.9.8.9.9.q.s.m.b.s.0.X.` < uXuXuXuXuXuXuXuXuX",
"uXuXuXuXuXuXuXuX6 P B.M.m.p.8.8.8.8.8.8.8.w.x.n.n.n.n.v.u.o.D + uXuXuXuXuXuXuXuX",
"uXuXuXuXuXuX7 T r.w.x.p.9.$.@.@.@.@.@.@.@.7.a.v.c.c.c.c.v.a.[ M uXuXuXuXuXuXuXuX",
"uXuXuXuX5 <.w.8.7.$.$.#.+.#.+.X.{ { { { { [ o.u.j.l.l.j.v.z.X.` > uXuXuXuXuXuXuX",
"uXuXuX5 l.s.$.@.+.......{ o.5.i.5.[ [ [ [ [ [ | 5.u.k.j.j.u.o.[ F : uXuXuXuXuXuX",
"uXuXuX:.m.0...' [ [ } [ `  .t.4.4. .E ] ' } ` ` ` |  .3.3.X.X...} R 4 uXuXuXuXuX",
"uXuX4 v.z.| ` ` _ G W B ! / Q ^ ^ p ^ *./ ~ E E ] ` ` _ ) ) ` { ..0.t.K uXuXuXuX",
"uXuX:.c.3._ ` F B Q p k k y & 3 9 & = 2 2 & 3 u / B O.` ) G G G ' o.y.u.L uXuXuX",
"uXuXU 6.D G N Q k %.f & * - d A.&.&.&.&.&.&.=.z e 9 ^ ( O.` ` ) F G ` 5.i.L uXuX",
"uXuXN ` G V i %.s 9 & r Z.R.Y.P.P.P.P.P.P.P.R.K.L.S.j 9 u ( T ` G Z S _ |  .: uX",
"uXuX1 ) S 1 p %.g & t T.W.W.E.Y.Y.R.R.Y.R.E.W.W.W.P.P.A.g *.! H O.Y Z Z D ` m uX",
"uXuXuXm ) 1 u f e $ F.S.% 2 J././././.W.W.W.W.F.S.Q.W.E.H.r t i A | G Z C ) m uX",
"uXuXuX> ` M + 9 f r ^.r     H.@X#X;X;XOX X|.G.o   f W.W.W.A.* k 6 >.4.F V D m uX",
"uXuXuXuXn 3.U # @ c |.(.l c 4XI.XX`.4X~.~.6X(.X . h !.W.W.G.* s 3 P i.R V S m uX",
"uXuXuXuXuX8 ,.Z q ).@X:X2X9XeX*Xc I.c D.-XqX3XXXT.}.}./.W.W.A.t u K 5.W V D b uX",
"uXuXuXuXuXuX+ u Y.#X1X6X6XqX7XrXqX7X8X8XqX7X6X5X0X:X@X}./.Q.L.r # B ' C S D ; uX",
"uXuXuXuXuXuX- T.;X,X3XqXqXwXwXwXwXqX7X7X7X7X7X6X0X,X,X#X).W.P.x < ' 3.,.R 1 uXuX",
"uXuXuXuXuXw (.4X5X6XqXwXwXwXwXwXtXwXqX7X7X7X7X6X6X2X,X,X#X}.Y.P.z K >.L , uXuXuX",
"uXuXuXuXw (.1X0X6XqXwXtXtXtXtXtXtXrXrX7X7X7X7X7X6X3X3X3X,X;X}.Y.P.r   uXuXuXuXuX",
"uXuXuXuXU.>X2X9XqXrXyXeXyXtXtXtXtXtXrXqX7X7XqX6X3X3X3X3X,X,X@X].Y.A.X uXuXuXuXuX",
"uXuXuXd $X1X3X7X7XrXtXyXyXtXtXtXtXtXeX7X7X7XqX3X3X3X3X3X2X,X=XXXY.G.s uXuXuXuXuX",
"uXuXuXl >X2X6X7X7X7XyXyXeXyXyXeXqXqX7X7X7X7X6X3X3X3X3X3X3X,X:X.XY.P.h uXuXuXuXuX",
"uXuXuXv 1X2X6X7X7X7X7XqXqXeX7X7XqX7X7X7X6XqX3X3X3X3X3X3X3X2X:XoXR.J.h uXuXuXuXuX",
"uXuXuXl -X2X6X7X7X7X7X7X7X7X7X7X7X7X7X3X3X3X3X3X3X3X3X2X,X,X;X{.Y.J.h uXuXuXuXuX",
"uXuXuXuX^.1X3X6X6X7X7X7X7X7X7X6X7X6X3X3X3X3X3X3X3X3X0X,X,X=XoX!.P.G.w uXuXuXuXuX",
"uXuXuXuXh =X>X1X1X5X6X2X6X6X2X3X6X2X2X,X,X,X1X5X4X,X:X=X#X.X].Q.L.x uXuXuXuXuXuX",
"uXuXuXuXuXI.@X=X*X=X<X:X>X<X;X;X;X=X;X=X%X=X=X#X+XOXOX{.'./.E.T.c % uXuXuXuXuXuX",
"uXuXuXuXuXuXz ^.).XXOX#X@X#X@XOX+XOXoXoX X X X X'.].)./.W.K.L.g & uXuXuXuXuXuXuX",
"uXuXuXuXuXuXuX= = g Z.D.D.Z.Z.Z.Z.-.-.Z.=.=.=.=.=.=.=.=.h % % uXuXuXuXuXuXuXuXuX",
"uXuXuXuXuXuXuXuXuXuXuXuXuXuXuXuXuXuXuXuXuXuXuXuXuXuXuXuXuXuXuXuXuXuXuXuXuXuXuXuX",
"uXuXuXuXuXuXuXuXuXuXuXuXuXuXuXuXuXuXuXuXuXuXuXuXuXuXuXuXuXuXuXuXuXuXuXuXuXuXuXuX",
"uXuXuXuXuXuXuXuXuXuXuXuXuXuXuXuXuXuXuXuXuXuXuXuXuXuXuXuXuXuXuXuXuXuXuXuXuXuXuXuX",
"uXuXuXuXuXuXuXuXuXuXuXuXuXuXuXuXuXuXuXuXuXuXuXuXuXuXuXuXuXuXuXuXuXuXuXuXuXuXuXuX"
};
