/* XPM */
static char *result[] = {
/* columns rows colors chars-per-pixel */
"40 40 215 2 ",
"   c black",
".  c #0B0A08",
"X  c #151512",
"o  c #321A02",
"O  c #39280C",
"+  c #2B271D",
"@  c #353200",
"#  c #2D2B24",
"$  c #342C25",
"%  c #373528",
"&  c #3B3A32",
"*  c #401E00",
"=  c #422101",
"-  c #4B2501",
";  c #542600",
":  c #433B01",
">  c #583808",
",  c #402B14",
"<  c #643300",
"1  c #6D3700",
"2  c #783C00",
"3  c #453926",
"4  c #554602",
"5  c #505210",
"6  c #514901",
"7  c #694D06",
"8  c #704E00",
"9  c #6C4318",
"0  c #6C6706",
"q  c #7D780C",
"w  c #444234",
"e  c #4A4332",
"r  c #4C4939",
"t  c #474339",
"y  c #534933",
"u  c #544D3B",
"i  c #5A543A",
"p  c #594F2C",
"a  c #785622",
"s  c #625335",
"d  c #6B502E",
"f  c #7E6539",
"g  c #5B5541",
"h  c #595748",
"j  c #5E5550",
"k  c #625B45",
"l  c #605E51",
"z  c #6A634C",
"x  c #7A6C4B",
"c  c #796845",
"v  c #696657",
"b  c #746D53",
"n  c #716C5E",
"m  c #7A755B",
"M  c #75725A",
"N  c #706B60",
"B  c #8F3C00",
"V  c #844500",
"C  c #934B03",
"Z  c #904300",
"A  c #8E5811",
"S  c #AB4B00",
"D  c #A74600",
"F  c #AD5400",
"G  c #A45501",
"H  c #BC5500",
"J  c #B45C00",
"K  c #BD5B00",
"L  c #B45700",
"P  c #A75C11",
"I  c #937B00",
"U  c #85720A",
"Y  c #B56201",
"T  c #BD630A",
"R  c #B86304",
"E  c #A97807",
"W  c #A96615",
"Q  c #B76A19",
"!  c #B36F00",
"~  c #855927",
"^  c #815E30",
"/  c #9C6B25",
"(  c #8D632E",
")  c #A76B29",
"_  c #A27522",
"`  c #BC7123",
"'  c #C35D00",
"]  c #C56301",
"[  c #CB6501",
"{  c #CD6900",
"}  c #C76807",
"|  c #D46B00",
" . c #DA6D00",
".. c #D46700",
"X. c #C67800",
"o. c #D47600",
"O. c #DC7300",
"+. c #DC7D00",
"@. c #E17400",
"#. c #EB7A00",
"$. c #E17800",
"%. c #F57F00",
"&. c #85724D",
"*. c #867D64",
"=. c #8A7E67",
"-. c #827F76",
";. c #8F8600",
":. c #BC9600",
">. c #B4B31E",
",. c #A18A20",
"<. c #B9B425",
"1. c #C58804",
"2. c #DA8C00",
"3. c #CC9301",
"4. c #DB9900",
"5. c #EB8301",
"6. c #F38200",
"7. c #FC8400",
"8. c #FF8A01",
"9. c #FF9400",
"0. c #FF9D00",
"q. c #FF950B",
"w. c #F79817",
"e. c #CCA200",
"r. c #C5A804",
"t. c #D8A400",
"y. c #CDB701",
"u. c #DFB600",
"i. c #DAB900",
"p. c #FDA400",
"a. c #FDB402",
"s. c #EEB509",
"d. c #D2932A",
"f. c #FF9C22",
"g. c #FEB12F",
"h. c #DBCC00",
"j. c #D9C500",
"k. c #DED000",
"l. c #F8C900",
"z. c #E1D800",
"x. c #E8D700",
"c. c #FFD601",
"v. c #FFD712",
"b. c #F9CB11",
"n. c #F5E500",
"m. c #FFED04",
"M. c #FFF000",
"N. c #EFE810",
"B. c #C4C023",
"V. c #FFC530",
"C. c #89846A",
"Z. c #958B6C",
"A. c #8A8A72",
"S. c #928C72",
"D. c #969479",
"F. c #A39B79",
"G. c #AB9D7A",
"H. c #ACA17B",
"J. c #A4A07F",
"K. c #8D8A81",
"L. c #999484",
"P. c #918D83",
"I. c #A09B8A",
"U. c #ADA683",
"Y. c #ADAA83",
"T. c #B4A684",
"R. c #B4A986",
"E. c #B4AD8C",
"W. c #BAAB89",
"Q. c #B9AA86",
"!. c #B2AD96",
"~. c #BCB392",
"^. c #BDBA9A",
"/. c #B3B091",
"(. c #B3AF93",
"). c #BFB2A6",
"_. c #C1BC9A",
"`. c #C5BA98",
"'. c #C1B090",
"]. c #C6BEA5",
"[. c #C5C19F",
"{. c #CCC4A4",
"}. c #CBC8A5",
"|. c #CBC5AA",
" X c #D3CEAC",
".X c #D3C7A9",
"XX c #D8C9B4",
"oX c #D2C4B6",
"OX c #D9D3B6",
"+X c #DDD5BB",
"@X c #D7D6B9",
"#X c #D5D0AE",
"$X c #E2DCBF",
"%X c #DCD8C8",
"&X c #E3DDC2",
"*X c #E5D8C7",
"=X c #E4E1C2",
"-X c #ECE4CB",
";X c #EDEBCD",
":X c #E6E1C8",
">X c #F1E9CE",
",X c #EEEDD4",
"<X c #EEEEDC",
"1X c #EAE6D1",
"2X c #F3EEDC",
"3X c #FEEEDD",
"4X c #F3E9D3",
"5X c #FFF0DF",
"6X c #F0F0D7",
"7X c #FEEEE4",
"8X c #FFEEEC",
"9X c #FFF2E4",
"0X c #FFF4EC",
"qX c #FFFDEE",
"wX c None",
/* pixels */
"wXwXwXwXwXwXwXwXwXwXwXwXwXwXwXwXwXwXwXwXwXwXwXwXwXwXwXwXwXwXwXwXwXwXwXwXwXwXwXwX",
"wXwXwXwXwXwXwXwXwXwXwXwXwXwXwXwXwXwXwXwXwXwXwXwXwXwXwXwXwXwXwXwXwXwXwXwXwXwXwXwX",
"wXwXwXwXwXwXwXwXwXwXwXwXwXwXwXwXwXwXwXwXwXwXwXwXwXwXwXwXwXwXwXwXwXwXwXwXwXwXwXwX",
"wXwXwXwXwXwXwXwXwXwXwXwXwXwXwXwXwXwX0 0 0 8 1 < wXwXwXwXwXwXwXwXwXwXwXwXwXwXwXwX",
"wXwXwXwXwXwXwXwXwXwXwXwXwXwXO U <.B.N.m.m.0.8.6.J F 1 wXwXwXwXwXwXwXwXwXwXwXwXwX",
"wXwXwXwXwXwXwXwXwXwXwXwXwXa d.g.V.V.a.p.q.8.8.8.8.%.+.G < wXwXwXwXwXwXwXwXwXwXwX",
"wXwXwXwXwXwXwXwXwXwXwX5 ,.g.g.f.q.q.7.7.7.8.9.a.l.p.5.$.| 1 wXwXwXwXwXwXwXwXwXwX",
"wXwXwXwXwXwXwXwX$ q <.N.v.q.q.q.8.8.8.8.7.0.c.m.m.m.l.t.+.] ; wXwXwXwXwXwXwXwXwX",
"wXwXwXwXwXwX> W w.b.v.a.9.6.%.%.%.%.6.%.6.p.n.n.n.n.n.z.i.+.C wXwXwXwXwXwXwXwXwX",
"wXwXwXwX6 E #.8.6.8.6.#.#.$.@.@.@.@.@.@.O.2.u.k.z.z.k.k.z.4.| 2 wXwXwXwXwXwXwXwX",
"wXwXwXq x.0.%.#.$.$.+.O.O.+.2.2. ... . .| [ o.e.j.h.h.k.z.4...L - wXwXwXwXwXwXwX",
"wXwX@ h.l.#.@.|  . .o. .{ e.y.y.3...[ [ [ ..[ [ o.3.e.t.4.+. . .J 6 wXwXwXwXwXwX",
"wXwX;.n.4.| { { [ [ T R W _ _ _ / / ) ) Q } } } [ [ } ] [ ..O. .+.:.7 wXwXwXwXwX",
"wX: h.k.X.[ } J P ~ f f c y p i u e g s d p ~ ) Q } [ [ K K ] | +.4.i.;.wXwXwXwX",
"wX6 u.! K K A ~ c x u y & + r i u u u u u u y y 3 ( ` } [ ' K K R  .4.y.I wXwXwX",
"wX> O.H H C ^ c s g $ w *.S.H.H.H.H.H.H.G.H.H.C.m u s a W } [ K F L ] 1.3.8 wXwX",
"wX- [ H D 9 &.b e + z R.'.W.Y.Y.T.Y.U.Y.Y.R.R.T.H.F.M e &.) K } J P L K ..F o wX",
"wXwXV ' Z 9 x i + r W.*.z G.W.W.Q.Q.Q.Q.W.W.W.Q.Q.R.R.F.i i a P } K F S H ] = wX",
"wXwX= ' F - y z e m D..   u [. X X X{.{.`.W.b + k T.Q.W.L.3 x a E 3.Y D S ' * wX",
"wXwXwX8 } V o $ 3 E.!.& X D.oX!.,X1X-XI.*X|.#   X F.W.Q.W.t 3 s 7 r.1.S S H = wX",
"wXwXwXwXU r.Y - M |.+X@X+X<X%X-.K.K.P.L.2X<X!.h C.^.~.Q.~.A.g c 9 >.:.D S K = wX",
"wXwXwXwXwX4 C a ^.&X,X2X2X2X9X%XoXoX).4X3X2X6X;X=X#X[.~.W.U.j 3 > 1.L D H B wXwX",
"wXwXwXwXwXwXt ^.=X,X6X7X8X8X8X8X9X9X9X3X3X3X2X,X;X;XOX[.~.H.Z., G | ! ! L ; wXwX",
"wXwXwXwXwXj |.:X6X<X7X8X8X8X8XqX0X7X3X3X3X3X3X2X;X;X;XOX_.U.G.b 8 e.e.I > wXwXwX",
"wXwXwXwX& ].-X,X2X7X0X0X0X0X0XqX0X0X7X3X3X3X3X<X6X,X,X;X@X~.U.D.s 0 : wXwXwXwXwX",
"wXwXwXwXC.=X,X<X3X0XqXqXqXqXqXqXqXqX7X3X3X3X2X7X6X6X6X;X=X}.E.H.m wXwXwXwXwXwXwX",
"wXwXwX& ).;X<X3X7X0XqXqXqXqXqXqXqX0X9X3X3X3X7X<X6X6X<X,X;X@X_.Y.C.$ wXwXwXwXwXwX",
"wXwXwXv :X;X<X3X3X9XqXqXqXqXqX0X0X5X3X3X3X3X<X<X<X<X<X<X;X+X{.Y.D.r wXwXwXwXwXwX",
"wXwXwXv -X,X2X3X3X3X3X9X0X9X3X3X5X3X3X3X2X2X<X<X<X<X<X6X6X-X|.U.G.r wXwXwXwXwXwX",
"wXwXwXn >X6X2X3X3X3X3X3X5X3X3X3X3X3X3X2X7X<X<X<X<X<X<X6X;X=X{.U.D.r wXwXwXwXwXwX",
"wXwXwXv *X6X2X3X3X3X3X3X5X3X3X3X3X3X2X<X<X<X<X<X<X<X,X;X;X+X_.U.F.r wXwXwXwXwXwX",
"wXwXwXwX!.>X<X2X2X3X3X3X3X3X2X3X2X2X<X,X<X<X<X<X<X,X;X-X$X{.E.G.A.% wXwXwXwXwXwX",
"wXwXwXwXz %X-X;X;X4X<X,X2X,X<X<X<X,X,X;X>X>X-X;X:X:X%X@X|.~.T.D.v wXwXwXwXwXwXwX",
"wXwXwXwXwXL.OX&X+X&X:X-X-X:X=X=X=X=X$X$X$X$X&X+X#X X{.[.~.R.G.b wXwXwXwXwXwXwXwX",
"wXwXwXwXwXwXN (._.}.XXOXOXOXOXOXXXXX.X.X}.}.}.`.`.~.~.Q.F.Z.g wXwXwXwXwXwXwXwXwX",
"wXwXwXwXwXwXwX$ % j C.A.A.A.A.A.=.=.C.*.*.*.*.*.*.*.*.h # + wXwXwXwXwXwXwXwXwXwX",
"wXwXwXwXwXwXwXwXwXwXwXwXwXwXwXwXwXwXwXwXwXwXwXwXwXwXwXwXwXwXwXwXwXwXwXwXwXwXwXwX",
"wXwXwXwXwXwXwXwXwXwXwXwXwXwXwXwXwXwXwXwXwXwXwXwXwXwXwXwXwXwXwXwXwXwXwXwXwXwXwXwX",
"wXwXwXwXwXwXwXwXwXwXwXwXwXwXwXwXwXwXwXwXwXwXwXwXwXwXwXwXwXwXwXwXwXwXwXwXwXwXwXwX",
"wXwXwXwXwXwXwXwXwXwXwXwXwXwXwXwXwXwXwXwXwXwXwXwXwXwXwXwXwXwXwXwXwXwXwXwXwXwXwXwX"
};
