/* XPM */
static char *result[] = {
/* columns rows colors chars-per-pixel */
"40 40 29 1 ",
"  c #86847E",
". c #898780",
"X c #8D8C85",
"o c #908F88",
"O c #95938D",
"+ c #989790",
"@ c #9C9B94",
"# c #A09E97",
"$ c #A19F98",
"% c #A4A39C",
"& c #A8A7A0",
"* c #ADABA5",
"= c #B0AFA7",
"- c #B0AFA8",
"; c #B4B3AC",
": c #B8B7AF",
"> c #B7B6B0",
", c #B8B7B0",
"< c #BCBBB4",
"1 c #BFBFB8",
"2 c #C0BEB7",
"3 c #C0BFB8",
"4 c #C4C2BC",
"5 c #C8C6BF",
"6 c #C9C7C0",
"7 c #CCCBC4",
"8 c #D0CEC7",
"9 c #D0CEC8",
"0 c #D3D2CB",
/* pixels */
"XO+@%&&-=;<<11444456556755555511<<:;=&%$",
"OO@$%&&=;::11444446655756757654111<>==%%",
"O+@%%*;;::<144446667777777776554111<;=&%",
"OO$%***;:<143444566777770777755554<<;;*&",
"O@%%&*;;:<3344557777777997707766661<:;=&",
"+@%&*;;;<<33445577979779970777766661<;=*",
"+#%&*;;,<<444567779907799990977576611>;=",
"+%&&=;;,<1344567779999900090977777641>;=",
"@%%*=;;,<4245677797900000099977777544<:;",
"+%%**=;<<44455670909000000900977775411:=",
"@%&*;;,<<<4557777797000000000979775611<;",
"@%&*;;:<34457778770000000000999777754<<;",
"@%&*;;,<334677780770000000000079055641<;",
"%%&=;:,<244677777970000000000979777641<:",
"%%**;;,<345667777770000000000799875541<:",
"%%**;:<4345677890000000000000097775544<:",
"%&*=;:<<146677070990990000000977585541<:",
"$&**=;<<446770709990009000000997855541<;",
"%&*=;:<<146670779099909000000797755541<:",
"$&*=;><<146677709799999900000909857544<:",
"%&*=;:><114667977779999990900997755541<<",
"%&*=;:<<145677777779979979999977755411>>",
"%&*=;::<125667777799797999099077554111>;",
"$&**;;<<14456766767997999979907655441<>;",
"$%**-;;<<1455766677777777970997666511<>;",
"$%&*->;<<144555577779779997776666551<<;=",
"@%&*=;;<<114455556677777797977665541<>;=",
"+$%*===<,11144455667767777777666554<<;==",
"+$%&*--<,<11144456665567767766645511<;==",
"+@%&**=;:,<1111556677657676664441411,-=*",
"+@$%***-;::<11414555664767764444141<;-*%",
"O@#%%**-;::<1111444564556545441111<,;-*%",
"O+@$%&*==;;<<<<1441444455544441<1<,:==*%",
"oO@$%%&*=-;<><<111144144444431<<<,:;=*%%",
"oO+@$%&*--;;,<<<<<<1114444111<<<>:;=*&%$",
"Xo++@%%&**-;,,,<<<<<14111111<<::>;==&&$@",
"XoOO@$%%&*--;,,,<<><11111111<::;;==*%%#+",
"XXOO+@$%%*=--;;;>>><,,,1<<<1:;;===*&%#@O",
".XoO+@$$%***=--;>;>,<,,<:<:::;==**&%$#+O",
" XXo++@#%%&&*==-;;;>,,>;:::;;==*&%%$@+Oo"
};
