/* XPM */
static char *result[] = {
/* columns rows colors chars-per-pixel */
"134 33 152 2 ",
"   c #010101",
".  c #090705",
"X  c #0B0A06",
"o  c #0E0C09",
"O  c #110E07",
"+  c #120E0B",
"@  c #101305",
"#  c #181907",
"$  c #15120D",
"%  c #1A140F",
"&  c #1B1F0F",
"*  c #151412",
"=  c #1A1611",
"-  c #1E1914",
";  c #1D1C19",
":  c #221712",
">  c #221C15",
",  c #291E16",
"<  c #241E1A",
"1  c #2A1F1A",
"2  c #1E2E02",
"3  c #262016",
"4  c #2B2216",
"5  c #26211B",
"6  c #2B241C",
"7  c #2D281E",
"8  c #31261B",
"9  c #34291D",
"0  c #3B2D1E",
"q  c #34391A",
"w  c #252221",
"e  c #2B2620",
"r  c #2E2921",
"t  c #2E2B28",
"y  c #302621",
"u  c #332C23",
"i  c #392B24",
"p  c #332E29",
"a  c #363027",
"s  c #3C3125",
"d  c #373029",
"f  c #3C342B",
"g  c #3F392D",
"h  c #3E3932",
"j  c #40391E",
"k  c #433524",
"l  c #483626",
"z  c #463825",
"x  c #483925",
"c  c #41372C",
"v  c #423A2D",
"b  c #4D3D2C",
"n  c #513E2C",
"m  c #453D32",
"M  c #4A3F31",
"N  c #3B5114",
"B  c #4D412E",
"V  c #56412E",
"C  c #455722",
"Z  c #454036",
"A  c #4B4235",
"S  c #4C453A",
"D  c #4F483A",
"F  c #524534",
"G  c #5B4632",
"H  c #504B30",
"J  c #5B4A36",
"K  c #524739",
"L  c #584639",
"P  c #554B3C",
"I  c #5A4D3D",
"U  c #5D523E",
"Y  c #614F3A",
"T  c #63533E",
"R  c #635B3D",
"E  c #606438",
"W  c #68643F",
"Q  c #666D3F",
"!  c #544740",
"~  c #574E41",
"^  c #5B4E40",
"/  c #5C5242",
"(  c #575149",
")  c #625544",
"_  c #695742",
"`  c #645847",
"'  c #6B5B44",
"]  c #635648",
"[  c #655A49",
"{  c #6A5D4A",
"}  c #715E43",
"|  c #705E4A",
" . c #685F51",
".. c #6D624E",
"X. c #756347",
"o. c #73634D",
"O. c #79654D",
"+. c #7B694E",
"@. c #6D6352",
"#. c #736551",
"$. c #756854",
"%. c #7C6D55",
"&. c #716658",
"*. c #746B58",
"=. c #7B6E59",
"-. c #7D7257",
";. c #7C715C",
":. c #7F7460",
">. c #816E54",
",. c #867156",
"<. c #887156",
"1. c #82735C",
"2. c #8B755B",
"3. c #87785D",
"4. c #8C785D",
"5. c #907C5F",
"6. c #837660",
"7. c #8A7760",
"8. c #857962",
"9. c #8A7C65",
"0. c #887D6A",
"q. c #957D62",
"w. c #86835D",
"e. c #8F8169",
"r. c #938165",
"t. c #9D8666",
"y. c #94846B",
"u. c #98866A",
"i. c #9C8A6D",
"p. c #8F8370",
"a. c #908571",
"s. c #938873",
"d. c #9C947C",
"f. c #A48B6E",
"g. c #A8996E",
"h. c #A48F72",
"j. c #AA8F70",
"k. c #A19073",
"l. c #A89475",
"z. c #A1977D",
"x. c #AA9678",
"c. c #A7997B",
"v. c #AA997A",
"b. c #B6A17F",
"n. c #008080",
"m. c #AE9E80",
"M. c #B4A484",
"N. c #BAAA83",
"B. c #C7B28C",
"V. c #C3B495",
"C. c #FFFFFF",
"Z. c None",
/* pixels */
"n.n.n.n.n.n.n.n.n.n.n.n.n.n.n.n.n.n.n.n.n.n.n.n.n.n.n.n.n.n.n.n.n.n.n.n.n.n.n.n.n.n.n.n.n.n.n.n.n.n.n.n.n.n.n.n.n.n.n.n.n.n.n.n.n.n.n.n.n.n.n.n.n.n.n.n.n.n.n.n.n.n.n.n.n.n.n.n.n.n.n.n.n.n.n.n.n.n.n.n.n.n.n.n.n.n.n.n.n.n.n.n.n.n.n.n.n.n.n.n.n.n.n.n.n.n.n.n.n.n.n.n.n.n.",
"n.Z.Z.Z.Z.Z.Z.Z.Z.Z.Z.Z.Z.Z.Z.Z.Z.Z.Z.Z.Z.Z.Z.Z.Z.Z.Z.Z.Z.Z.Z.Z.Z.Z.Z.Z.Z.Z.Z.Z.Z.Z.Z.Z.Z.n.Z.Z.Z.Z.Z.Z.Z.Z.Z.Z.Z.Z.Z.Z.Z.Z.Z.Z.Z.Z.Z.Z.Z.Z.Z.Z.Z.Z.Z.Z.Z.Z.Z.Z.Z.Z.Z.Z.Z.Z.Z.Z.Z.Z.n.Z.Z.Z.Z.Z.Z.Z.Z.Z.Z.Z.Z.Z.Z.Z.Z.Z.Z.Z.Z.Z.Z.Z.Z.Z.Z.Z.Z.Z.Z.Z.Z.Z.Z.Z.Z.Z.Z.Z.Z.Z.Z.n.",
"n.Z.Z.Z.Z.Z.Z.Z.Z.Z.Z.Z.Z.Z.Z.Z.Z.Z.Z.Z.Z.Z.Z.Z.Z.Z.Z.Z.Z.Z.Z.Z.Z.Z.Z.Z.Z.Z.Z.Z.Z.Z.Z.Z.Z.n.Z.Z.Z.Z.Z.Z.Z.Z.Z.Z.Z.Z.Z.Z.Z.Z.Z.Z.Z.Z.Z.Z.Z.Z.Z.Z.Z.Z.Z.Z.Z.Z.Z.Z.Z.Z.Z.Z.Z.Z.Z.Z.Z.Z.n.Z.Z.Z.Z.Z.Z.Z.Z.Z.Z.Z.Z.Z.Z.Z.Z.Z.Z.Z.Z.Z.Z.Z.V : Z.Z.Z.Z.Z.Z.Z.Z.Z.Z.Z.Z.Z.Z.Z.Z.Z.n.",
"n.Z.Z.Z.Z.Z.Z.Z.Z.Z.Z.Z.Z.Z.Z.Z.Z.Z.Z.Z.Z.Z.Z.P / Z.Z.Z.Z.Z.Z.Z.Z.Z.Z.Z.Z.Z.Z.Z.Z.Z.Z.Z.Z.n.Z.Z.Z.Z.Z.Z.Z.Z.Z.Z.Z.Z.Z.Z.Z.Z.Z.Z.Z.Z.Z.Z.P / Z.Z.Z.Z.Z.Z.Z.Z.Z.Z.Z.Z.Z.Z.Z.Z.Z.Z.Z.Z.n.Z.Z.Z.Z.Z.Z.Z.Z.Z.Z.Z.Z.Z.Z.Z.Z.Z.% >   Z.z o % %.<._ Z.Z.Z.Z.Z.Z.Z.Z.Z.Z.Z.Z.Z.Z.Z.n.",
"n.Z.Z.Z.Z.Z.Z.Z.Z.Z.Z.Z.Z.Z.Z.Z.Z.Z./ 6 6 Z.Z.s 5 Z.Z.Z.Z.Z.Z.Z.Z.Z.Z.Z.Z.Z.Z.Z.Z.Z.Z.Z.Z.n.Z.Z.Z.Z.Z.Z.Z.Z.Z.Z.Z.Z.Z.Z.Z.Z.Z./ 6 6 Z.Z.f 5 Z.Z.Z.Z.Z.Z.Z.Z.Z.Z.Z.Z.Z.Z.Z.Z.Z.Z.Z.Z.n.Z.Z.Z.Z.Z.Z.Z.Z.Z.Z.Z.Z.Z.Z.O n Z.> o.Z.< T Z.  $ J >.+.X.Z.  8 T Z.Z.Z.Z.Z.Z.Z.Z.Z.n.",
"n.Z.Z.Z.Z.Z.Z.Z.Z.Z.Z.Z.Z.Z.Z.Z.Z.Z.m @.=.[ ] f Z.Z.Z.Z.Z.Z.Z.Z.Z.Z.Z.Z.Z.Z.Z.Z.Z.Z.Z.Z.Z.n.Z.Z.Z.Z.Z.Z.Z.Z.Z.Z.Z.Z.Z.Z.Z.Z.Z.m @.*.{ / f Z.Z.Z.Z.Z.Z.Z.Z.Z.Z.Z.Z.Z.Z.Z.Z.Z.Z.Z.Z.Z.n.Z.Z.Z.Z.Z.Z.Z.Z.Z.Z.Z.Z.Z.Z.Z.Z.  o =./ < Z.Z.k b Z.X.3 .   Z.k Z.Z.Z.Z.Z.Z.Z.Z.Z.Z.n.",
"n.Z.Z.Z.Z.Z.Z.Z.Z.Z.Z.Z.Z.Z.Z.Z.Z.D @.=.{ S 6.] F e = u ..9.u Z.Z.Z.Z.Z.Z.Z.Z.Z.Z.Z.Z.Z.Z.n.Z.Z.Z.Z.Z.Z.Z.Z.Z.Z.Z.Z.Z.Z.Z.Z.D @.=.{ P 6.[ S u m P o.1.u Z.Z.Z.Z.Z.Z.Z.Z.Z.Z.Z.Z.Z.Z.n.Z.Z.Z.Z.Z.Z.Z.Z.0 k % 0 b i T y.M i &.M - > + , > X .     Z.Z.Z.Z.3 _ Z.$ Z.Z.Z.Z.Z.n.",
"n.Z.Z.Z.Z.Z.Z.Z.Z.Z.Z.Z.Z.m Z.Z.P ] ~ y.9.e f f u s > 5 A @.I I 3./ Z.Z.Z.Z.Z.Z.Z.Z.Z.Z.Z.n.Z.Z.Z.Z.Z.Z.Z.Z.Z.Z.Z.Z.A Z.Z.P ] ^ y.1.6 r f s I u m ] @.U I 4./ Z.Z.Z.Z.Z.Z.Z.Z.Z.Z.Z.n.Z.Z.Z.Z.X Z.Z.Z.Z.T G G 4 8 ) &.&.n I y.M.=.> > R C .       . Z.Z.+.4.5 Z.Z.Z.Z.Z.Z.n.",
"n.Z.Z.Z.Z.Z.Z.Z.Z.Z.v m > f a Z.c K t S m - < f m M u 7 > t m  .@.$.A a Z.Z.Z.Z.Z.Z.Z.Z.Z.n.Z.Z.Z.Z.Z.Z.Z.Z.Z.v m 1.A v Z.v A u m p f f / P P a u 7 m / *.*.$.A u Z.Z.Z.Z.Z.Z.Z.Z.Z.n.Z.Z.Z.Z.Z.Z.Z.Z.6 ` 1 9 M ] v = : 4 q R h.t.x 9 9       z <.B.@ 8 T ' _ Z.Z.Z.Z.Z.Z.n.",
"n.Z.Z.Z.Z.Z.Z.Z.Z.m f s - > Z.s e < * = $ > u m m f i s s v v ( S ....A 5 Z.Z.Z.Z.Z.Z.Z.Z.n.Z.Z.Z.Z.Z.Z.Z.Z.m [ ) m s Z./ u f K v 6 [ M I v u f s > 5 h S h #.o.A 5 Z.Z.Z.Z.Z.Z.Z.Z.n.Z.Z.Z.Z.Z.% = f f y < h M x.M.c ^ N 2 O O + .   % > Z.  Z.0 X.9 % F 4 ) > Z.$ Z.$ Z.n.",
"n.Z.Z.Z.Z.Z.S i.M.%.A ;.I 5 v / f e > = ; e 1 y u u 6 5 a A S S ` v.r.A Z.Z.Z.Z.Z.Z.Z.Z.Z.n.Z.Z.Z.Z.Z.A i.N.3.P #.[ K A { P s { m s $.f f f #.' a m =./ ( f i.e.A Z.Z.Z.Z.Z.Z.Z.Z.Z.n.Z.Z.> X Z.Z.X = F { &.f M ^ ' O.B.C . X e x.w.# % 8 Z.Z.Z.  o O 8 ' > Z.Z.Z.Z.Z.Z.Z.n.",
"n.Z.Z.Z.Z.u $.;.{ $.P S S u c m u y e e w < e 5 r u i u f v A f A ` P v - 5 / f Z.Z.Z.Z.Z.n.Z.Z.Z.Z.u $.-.{ u./ m P u v h m s ^ ~ A / P m s m U f D P A d u B P v - 5 / f Z.Z.Z.Z.Z.n.Z.Z.X Z.Z.Z.Z.+ 8 1 K 6 : X 6 +.i . + Z.s =.& @ s 6 8 , Z.v U u > Y > Z.Z.Z.Z.Z.Z.Z.n.",
"n.Z.Z.Z.Z.Z.a f I 1.o.I A r > * > e 6 > w o < e e u y e s A m h / @.M.{ I r - Z.Z.Z.Z.Z.Z.n.Z.Z.Z.Z.Z.a f ~ =.[ 8.*.6 r > m ~ A ~ / I m s m A S u v Z :.@.7 g c.{ I r - Z.Z.Z.Z.Z.Z.n.Z.Z.Z.Z.G _ : X > n ^ M + .   $ n > Z.O O Z.$ q W F i k * / 4.r.,.4 - Z.Z.Z.Z.Z.Z.Z.n.",
"n.Z.Z.Z.Z.v #.I ..M...g ~ A r = e < < 1 * o * w 5 5 6 5 p u a Z I Z 0.M.M./ 7 c Z.Z.Z.Z.Z.n.Z.Z.Z.Z.v #.U @.m.I m D m r 5 a e u K I f I ! a ~ A t v ` { / ~ h @.z.9./ 6 v Z.Z.Z.Z.Z.n.Z.Z.Z.$ X.F > / { ' +.b @ ' k . : . 8 0 B o Y Q -.+.V k x _ O.O.+.F $ : % F = Z.Z.Z.n.",
"n.Z.Z.Z.Z.$.v.%.I -...A m g A f v i < > * < . : w = = ; 6 5 e ! A Z *.V.6.e Z.Z.Z.Z.Z.Z.Z.n.Z.Z.Z.Z.$.v.$.~ =.[ P r f / s s *.d f A / @.c s m u 8 g -.A P *.@.Z a...e Z.Z.Z.Z.Z.Z.Z.n.Z.= Z.= J T #.i.,., : b E g.%.6 = : 0 2.,.@ s H ' 6 V V k J J Z.: - Z.- % = Z.Z.Z.Z.n.",
"n.Z.Z.Z.Z.Z.f p ( y.o.v F v ] J v e * ; > p . $ $ * $ - - * > A h D p S Z u c A Z.Z.Z.Z.Z.n.Z.Z.Z.Z.Z.f a / =.g > m ~ { v f P / m v ] =.h f F f U U U f &.y.P t S A u c A Z.Z.Z.Z.Z.n.Z.Z.Z.z = J >.<.F 1 0 T X.t._ s > s F >.5.>.F Z.F Z.Z.Z.= @ l 9 Z.Z.Z.Z.$ Z.Z.Z.Z.Z.n.",
"n.Z.Z.Z.Z.Z.Z.Z.K { P ) +.x c v y > ; = * - ; % $ * o $ * = 5 r f S v.#.^ A Z.Z.Z.Z.@.Z.Z.n.Z.Z.Z.Z.Z.Z.Z.D { ] I { $.[ P u a Z P / ..{ f f h ;.;./ ` Z f A @.r.o.[ #.Z.Z.Z.Z.@.Z.Z.n.Z.Z.Z.Z.> % 5 U J b n J O.o._ $   s n J J T J A Z.Z.Z.Z.Z.Z.Z.Z.Z.Z.Z.Z.Z.Z.Z.Z.Z.Z.n.",
"n.Z.Z.Z.Z.Z.Z.Z...M.$.) s 6 u 8 - * + = * $ % + o o o o $ * 6 u f < m S @.M Z.Z.Z.Z.Z.Z.Z.n.Z.Z.Z.Z.Z.Z.Z...M.o.A v K K A m u a m K / P u u @.8.*.` ..P @.` ;.D A @.I Z.Z.Z.Z.Z.Z.Z.n.Z.Z.Z.F A Z.- % : n b Z.3 J 6 Z.  9 z n Z.Z.Z.= Z.Z.Z.Z.Z.Z.Z.Z.Z.Z.Z.Z.Z.Z.Z.Z.Z.Z.n.",
"n.Z.Z.Z.Z.Z.Z.Z.A 0./ X.I c i 6 ; 5 + o $ X X . . . . o X o - < e f M ) v Z.6 / u Z.Z.Z.Z.n.Z.Z.Z.Z.Z.Z.Z.A 0.I I s v A P P g A m *.I P S a A I *.Z P / y./ S D P f Z.6 / u Z.Z.Z.Z.n.Z.Z.Z.Z.Z.Z.Z.% Z.0 Z.Z.Z.= > Z.Z.Z.Z.Z.Z.Z.Z.Z.Z.Z.Z.Z.Z.Z.Z.Z.Z.Z.Z.Z.Z.Z.Z.Z.Z.Z.n.",
"n.Z.Z.Z.Z.Z.Z.Z.> m r ) <.q.I c = o   . . . . . .           $ < M u.h.o.f u 6 { $.Z.Z.Z.Z.n.Z.Z.Z.Z.Z.Z.Z.5 m o.$.>.-.U ] ' v ) A f P D g *./ f @.6.r.$.y./ 1.u.l.s u 7 ' $.Z.Z.Z.Z.n.Z.Z.Z.Z.Z.Z.Z.Z.Z.Z.Z.Z.$ > % > % J : Z.Z.Z.Z.Z.Z.Z.Z.Z.Z.Z.Z.Z.Z.Z.Z.Z.Z.Z.Z.Z.Z.Z.n.",
"n.Z.Z.Z.Z.Z.Z.Z.Z.Z.Z.{ >.l.j.<.K $   .       . .   .       X ~ ) 1.h.` u g e Z.Z.Z.Z.Z.Z.n.Z.Z.Z.Z.Z.Z.Z.Z.Z.Z.y.>.f.4.I A ) #.m / *./ P A [ / S 6.8.D @.) ;.d.` a f r Z.Z.Z.Z.Z.Z.n.Z.Z.Z.Z.Z.Z.Z.Z.Z.Z.Z.Z.Z.Z.Z.Z.Z.Z.Z.Z.Z.Z.Z.Z.Z.Z.Z.Z.Z.Z.Z.Z.Z.Z.Z.Z.Z.Z.Z.Z.Z.Z.n.",
"n.Z.Z.Z.Z.Z.Z.Z.Z.Z.[ 0.A / <.2.q.,.J 6                   X m y.#.h ! M Z.Z.Z.Z.Z.Z.Z.Z.Z.n.Z.Z.Z.Z.Z.Z.Z.Z.Z.[ 9.A T ,.,.9.] K I -.$.[ S I 8.*.0.1.r.S y.<.h P A Z.Z.Z.Z.Z.Z.Z.Z.Z.n.n.n.n.n.n.n.n.n.n.n.n.n.n.n.n.n.n.n.n.n.n.n.n.n.n.n.n.n.n.n.n.n.n.n.n.n.n.n.n.n.n.n.n.",
"n.Z.Z.Z.Z.Z.Z.Z.Z.Z.A ] / o.i.4.$.q.q.>.f .   $ o   . + w ^ c.[ I K ~ Z.Z.Z.Z.Z.Z.Z.Z.Z.Z.n.Z.Z.Z.Z.Z.Z.Z.Z.Z.A [ / o.x.y.=.1.| [ I @.[ U ;...Z S { ~ d.{ =.=.I Z.Z.Z.Z.Z.Z.Z.Z.Z.Z.n.n.n.n.n.n.n.n.n.n.n.n.n.n.n.n.n.n.n.n.n.n.n.n.n.n.n.n.n.n.n.n.n.n.n.n.n.n.n.n.n.n.n.n.",
"n.Z.Z.Z.Z.Z.Z.Z.Z.Z.Z.Z.a [ p.i.[ #.v.[ #.9.&.V.V.) v.h.t.h ( D ) F ) Z.Z.Z.Z.Z.Z.Z.Z.Z.Z.n.Z.Z.Z.Z.Z.Z.Z.Z.Z.Z.Z.u [ s.h.+.1.x.` $.y.@.v.i...i.q.9.h ~ S =.%.) Z.Z.Z.Z.Z.Z.Z.Z.Z.Z.n.n.n.n.n.n.n.n.n.n.n.n.n.n.n.n.n.n.n.n.n.n.n.n.n.n.n.n.n.n.n.n.n.n.n.n.n.n.n.n.n.n.n.n.",
"n.Z.Z.Z.Z.Z.Z.Z.Z.Z.Z.Z.Z.Z.Z K m / =.) 2.[ ..*.9.f *.$.o.' 9.a./ Z.Z.Z.Z.Z.Z.Z.Z.Z.Z.Z.Z.n.Z.Z.Z.Z.Z.Z.Z.Z.Z.Z.Z.Z.Z.Z / %.y.;.) ,.-.h.e.e.P =.$.f.` 9.a./ Z.Z.Z.Z.Z.Z.Z.Z.Z.Z.Z.Z.n.n.n.n.n.n.n.n.n.n.n.                                                                n.",
"n.Z.Z.Z.Z.Z.Z.Z.Z.Z.Z.Z.Z.Z.Z.Z.Z.f v M v K / ~ $./ ~ I c f s Z.Z.Z.Z.Z.Z.Z.Z.Z.Z.Z.Z.Z.Z.n.Z.Z.Z.Z.Z.Z.Z.Z.Z.Z.Z.Z.Z.Z.Z.Z.f f v P 1.$.u.u.1.` I f f s Z.Z.Z.Z.Z.Z.Z.Z.Z.Z.Z.Z.Z.Z.n.n.n.n.n.n.n.n.n.n.  C.C.C.C.C.C.C.C.C.C.C.C.C.C.C.C.C.C.C.C.C.C.C.C.C.C.C.C.C.C.C.C.  ",
"n.Z.Z.Z.Z.Z.Z.Z.Z.Z.Z.Z.Z.Z.Z.Z.Z.Z.Z.#.u u %.;.A u > Z.Z.Z.Z.Z.Z.Z.Z.Z.Z.Z.Z.Z.Z.Z.Z.Z.Z.n.Z.Z.Z.Z.Z.Z.Z.Z.Z.Z.Z.Z.Z.Z.Z.Z.Z.Z.o.u u $.;.Z u > Z.Z.Z.Z.Z.Z.Z.Z.Z.Z.Z.Z.Z.Z.Z.Z.Z.Z.n.n.n.n.n.n.n.n.n.n.  C.      C.  C.  C.      C.  C.  C.C.  C.      C.      C.    C.C.  ",
"n.Z.Z.Z.Z.Z.Z.Z.Z.Z.Z.Z.Z.Z.Z.Z.Z.Z.Z.Z.Z.u ~ S Z.Z.Z.Z.Z.Z.Z.Z.Z.Z.Z.Z.Z.Z.Z.Z.Z.Z.Z.Z.Z.n.Z.Z.Z.Z.Z.Z.Z.Z.Z.Z.Z.Z.Z.Z.Z.Z.Z.Z.Z.Z.r I S Z.Z.Z.Z.Z.Z.Z.Z.Z.Z.Z.Z.Z.Z.Z.Z.Z.Z.Z.Z.Z.n.n.n.n.n.n.n.n.n.n.  C.  C.C.C.  C.  C.C.  C.C.C.C.    C.  C.  C.  C.  C.C.C.  C.  C.  ",
"n.Z.Z.Z.Z.Z.Z.Z.Z.Z.Z.Z.Z.Z.Z.Z.Z.Z.Z.Z.Z.Z.Z.Z.Z.Z.Z.Z.Z.Z.Z.Z.Z.Z.Z.Z.Z.Z.Z.Z.Z.Z.Z.Z.Z.n.Z.Z.Z.Z.Z.Z.Z.Z.Z.Z.Z.Z.Z.Z.Z.Z.Z.Z.Z.Z.Z.Z.Z.Z.Z.Z.Z.Z.Z.Z.Z.Z.Z.Z.Z.Z.Z.Z.Z.Z.Z.Z.Z.Z.n.n.n.n.n.n.n.n.n.n.  C.      C.  C.  C.C.  C.C.  C.  C.    C.  C.  C.    C.C.    C.C.  ",
"n.Z.Z.Z.Z.Z.Z.Z.Z.Z.Z.Z.Z.Z.Z.Z.Z.Z.Z.Z.Z.Z.Z.Z.Z.Z.Z.Z.Z.Z.Z.Z.Z.Z.Z.Z.Z.Z.Z.Z.Z.Z.Z.Z.Z.n.Z.Z.Z.Z.Z.Z.Z.Z.Z.Z.Z.Z.Z.Z.Z.Z.Z.Z.Z.Z.Z.Z.Z.Z.Z.Z.Z.Z.Z.Z.Z.Z.Z.Z.Z.Z.Z.Z.Z.Z.Z.Z.Z.Z.n.n.n.n.n.n.n.n.n.n.  C.C.C.  C.  C.  C.C.  C.C.  C.  C.C.  C.  C.  C.  C.C.C.  C.  C.  ",
"n.Z.Z.Z.Z.Z.Z.Z.Z.Z.Z.Z.Z.Z.Z.Z.Z.Z.Z.Z.Z.Z.Z.Z.Z.Z.Z.Z.Z.Z.Z.Z.Z.Z.Z.Z.Z.Z.Z.Z.Z.Z.Z.Z.Z.n.Z.Z.Z.Z.Z.Z.Z.Z.Z.Z.Z.Z.Z.Z.Z.Z.Z.Z.Z.Z.Z.Z.Z.Z.Z.Z.Z.Z.Z.Z.Z.Z.Z.Z.Z.Z.Z.Z.Z.Z.Z.Z.Z.Z.n.n.n.n.n.n.n.n.n.n.  C.      C.      C.C.  C.C.  C.  C.C.  C.      C.      C.  C.  C.  ",
"n.Z.Z.Z.Z.Z.Z.Z.Z.Z.Z.Z.Z.Z.Z.Z.Z.Z.Z.Z.Z.Z.Z.Z.Z.Z.Z.Z.Z.Z.Z.Z.Z.Z.Z.Z.Z.Z.Z.Z.Z.Z.Z.Z.Z.n.Z.Z.Z.Z.Z.Z.Z.Z.Z.Z.Z.Z.Z.Z.Z.Z.Z.Z.Z.Z.Z.Z.Z.Z.Z.Z.Z.Z.Z.Z.Z.Z.Z.Z.Z.Z.Z.Z.Z.Z.Z.Z.Z.Z.n.n.n.n.n.n.n.n.n.n.  C.C.C.C.C.C.C.C.C.C.C.C.C.C.C.C.C.C.C.C.C.C.C.C.C.C.C.C.C.C.C.C.  ",
"n.n.n.n.n.n.n.n.n.n.n.n.n.n.n.n.n.n.n.n.n.n.n.n.n.n.n.n.n.n.n.n.n.n.n.n.n.n.n.n.n.n.n.n.n.n.n.n.n.n.n.n.n.n.n.n.n.n.n.n.n.n.n.n.n.n.n.n.n.n.n.n.n.n.n.n.n.n.n.n.n.n.n.n.n.n.n.n.n.n.n.n.n.n.n.n.n.n.n.n.n.                                                                n."
};
