/* XPM */
static char *result[] = {
/* columns rows colors chars-per-pixel */
"40 40 63 1 ",
"  c #236AAF",
". c #2670B3",
"X c #2D74B4",
"o c #2F78B7",
"O c #3278B7",
"+ c #347CBA",
"@ c #3481BE",
"# c #3B83BF",
"$ c #4285BE",
"% c #3683C0",
"& c #3C85C1",
"* c #3E89C3",
"= c #4187C1",
"- c #438CC4",
"; c #4A8DC4",
": c #4790C7",
"> c #4A90C6",
", c #4791C8",
"< c #4B93C9",
"1 c #4D9BCF",
"2 c #5093C7",
"3 c #5196CA",
"4 c #559BCD",
"5 c #5B9DCE",
"6 c #609FCE",
"7 c #55A0D0",
"8 c #5DA2D1",
"9 c #5AA8D6",
"0 c #60A0CE",
"q c #64A4D2",
"w c #66A9D6",
"e c #6AAAD6",
"r c #66AEDA",
"t c #70AED7",
"y c #72AFD8",
"u c #75B4DB",
"i c #7DB6DC",
"p c #7CBADF",
"a c #7FBBE0",
"s c #80B6DB",
"d c #83B9DD",
"f c #8BBDDE",
"g c #83BDE0",
"h c #87C0E1",
"j c #8EC1E1",
"k c #94C4E3",
"l c #9AC7E4",
"z c #9CCAE6",
"x c #A0CBE6",
"c c #A6CFE8",
"v c #ACD2EA",
"b c #B2D5EB",
"n c #B6D8ED",
"m c #BBDAEE",
"M c #BDDCF0",
"N c #C1DDEF",
"B c #C1DFF0",
"V c #C6E1F1",
"C c #CBE4F2",
"Z c #D3E7F4",
"A c #D5E8F4",
"S c #DAEBF6",
"D c None",
/* pixels */
"DDDDDDDDDDDDDDDDDDDDDDDDDDDDDDDDDDDDDDDD",
"DDDDDDDDDDDDDDDDDDDDDDSDDDDDDDDDDDDDDDDD",
"DDDDDDDDDDDDDDDDDDDDDDDCMDDDDDDDDDDDDDDD",
"DDDDDDDDDDDDMzhgaDDDDSCCbvVDDDDDDDDDDDDD",
"DDDDDDDDDCVncjitewuaDZVnvljzDDDDDDDDDDDD",
"DDDDDDDDSZVbxjiuq4<-7ubbxfiuaDDDDDDDDDDD",
"DDDDDDDDDACnckduq43<-*8plfuetuDDDDDDDDDD",
"DDDDDDDDDSCmblstw53<,:*-edtw4uDDDDDDDDDD",
"DDDDDDDDDDkue4<,<><<-,<-*8e54,pDDDSDDDDD",
"DDDDDDDDpw-*=-,<23><&-,2,*451-wDSAZCDDDD",
"DDDDDDay,,,,<<<<<3662&#;42-<<,-kCCVNDDDD",
"DDDDDae543,,--#+O+OO$52O=5<:,,*uNnbnDDDD",
"DDDDzieq55<:=-;53;==+O;>O;3=-,-evvzcMDDD",
"DDDVjiute4-<2q;OOO+&-=O=$Oq=-<-4llgkzDDD",
"DDDvkjfs8*34;++#;6uff5q+=+;;&<,,ddpihDDD",
"DDMbvzle*,4;O==;ebNBmBfs==O5+<,,tuttgDDD",
"DDCCnba--42O;;+dlNDDDDAz0;X2O23,qqqeaDDD",
"DSDCBb5*,2+2;X6fADDDDDDNv5O2+33,854wDDDD",
"DDDSAa*:<:#5 #5NDDDDDDDDBu+=+63,31<uDDDD",
"DDDDD4:,<=2$.=fnDDDDDDDDmf#=O0<,<<-uDDDD",
"DDDDa*,,3:6X+%gNDDDDDDDDnf-+$3$;,-5DDDDD",
"DDDDu,34336X%+uNDDDDDDDDN5=O5+-,-&pZSDDD",
"DDDDe446<33X&O5vNDDDDDDZfqo;2#:,*8bCCDSD",
"DDDaeqqw:32.;O-qzZDDDDNzs+-;o;3--pbnCCDD",
"DDDgttut-<<o3O$=skNnNNv0===O=4<*elzvbmDD",
"DDDhipdd:-<&;;+=+05ffy5-&+O;52-8sfflvDDD",
"DDDzkfkl<%,--q+==O&-#++OO;62<*3etupjVDDD",
"DDDMclvv7%,:-2;+>;O+=-;35;;=,<58qeizDDDD",
"DDDDnbnB9+*,,<5=+25$OOO++&--,,<44rgDDDDD",
"DDDDBBCCg@*<<-<4>$=3662<,,**---:yaDDDDDD",
"DDDDCZASD1&,54*<2<;=,,,-*%@+%%wuDDDDDDDD",
"DDDDDSDDD9%,8e8*-<,-<,,**-1wulDDDDDDDDDD",
"DDDDDDDDDD9<8ede---,<38wtszvMCSDDDDDDDDD",
"DDDDDDDDDDrwqudlp8*-<34quskvnVADDDDDDDDD",
"DDDDDDDDDDDuuikzbbp4-,4qtsjzbVASDDDDDDDD",
"DDDDDDDDDDDDljkvnVZDauwwypjcnBZDDDDDDDDD",
"DDDDDDDDDDDDDVvvCCSDDDDpdhzMDDDDDDDDDDDD",
"DDDDDDDDDDDDDDDMCDDDDDDDDDDDDDDDDDDDDDDD",
"DDDDDDDDDDDDDDDDDSDDDDDDDDDDDDDDDDDDDDDD",
"DDDDDDDDDDDDDDDDDDDDDDDDDDDDDDDDDDDDDDDD"
};
