/* XPM */
static char *result[] = {
/* columns rows colors chars-per-pixel */
"52 52 12 1 ",
"  c #F4BDB0",
". c #383828",
"X c #686850",
"o c #585840",
"O c #484830",
"+ c #605808",
"@ c #787858",
"# c #585008",
"$ c #888870",
"% c #707038",
"& c #504810",
"* c white",
/* pixels */
"                                                    ",
"                                                    ",
"                                                    ",
"                                                    ",
"                                                    ",
"                                                    ",
"                                                    ",
"                                                    ",
"                                                    ",
"                ..................                  ",
"              ..XXXXXXooOOoooOoooO..                ",
"            ..oooXXoooXXXoXXXooXXXoO..              ",
"          ..Oo+oXXXoooooXoXXXXoooXXXoO..            ",
"        ..OOooXXXXXooO.oO.@oooX@@@oOoX@O..          ",
"      ..XXoooX@XXXXXooooOOXoXX@@@@XoX@@XoO..        ",
"    ..XooOoooX@@@XXoXXXXoOXXXX@@@XXXX@@@XXoo..      ",
"  ..@@oOOoXXXoXXXXoXXXXXXoXoXXXXXXXXoXXXXXXoOO..    ",
"  OOXXoOOoXXXX#####XXooXoooOoooXoXooOoXXXXXXooOO..  ",
"  OOoXooXX$OX#%%%%%##XXXXoOOOoX%%X%XXXXXXX@@@ooOO.  ",
"  OoXXXXXXXX&&%%%%%%##oooooOoXX@XXX%XXXXXX&&&&Xoo.  ",
"  OXXX$$OoXXo@&%%#####XXXoXoOoo@@XX%XXXoX&&&&&&Xo.  ",
"  OoXX$$OXoo@@X&&&&#XXXXoO@oOOoX@@@@XXooX&&&&&&X&.  ",
"  OOoXXXXXoO@@@XXXX#%%%#OO@XoooOooXXXooOX@@&&&X&&.  ",
"  OOOoXX$oXX$@@@@X&#%%%##oooooooXXXXXXXooX@@@X&&&.  ",
"  O@XX####XXX$@@XX&####&XXOOOOOOX@@X@@@XooXXXoo&O.  ",
"  O$ooX@XoX@$@@@&&&&&$$$$$@@@@@@@@&&@&&&&&&@@@@@$o  ",
"  O$oX@@@@@$$&&@&&&&&&$$$$$$$$@X@@@@@&&&&&@$$$@@$o  ",
"  O$X@@@@@@&&&&&@@&&&&&$@$$$$$@X@@@@X&&@@X@$$$$@$o  ",
"  O$X@$$@@&&&&&&&&@@@$$&&@$&&&&&@@@&XXXXX@@$$$@@@o  ",
"  O$@@$$$$@@&&&&@@X&&&&@@&&&#%%%&@&XXXooX@@@@@X@$o  ",
"  O$X@$$$@@@@@@Xo&&&&&&&&@&&%%%%%&&oooXoXX@@@X@$$O  ",
"  O$oX@@X@@@$$$@X&&&&&&&&@X&&%%##&ooooX@@$@XXX@$$O  ",
"  O$ooX&&&&$$$$$@@&&&&&&&&&&&&&&&&XXXX@$$$$@XX@$$O  ",
"  O$ooX&&&&&$$$$@@&&&&&&&&%%&@$&&@@@@@@$$$$@&&&@$O  ",
"  O$$$@X&&&&&$$@X@$&&&&&&@#&&X@@@X@@XXX@$$$@&&&$$o  ",
"   OO@$$@X&&@@@XX@$$$$@@XX&@@XXXX@@@@X@$$@XXX$$OO   ",
"     OO@$$@XXXXooX@@$$@@Xo@@@oo@@$$$$@@$$XX$$OO     ",
"       OO@$$@XoOOoXXXooX@@@@@XX@$$$$$$@XX$$OO       ",
"         OO@$$@ooXX@XXX@@@@XX&&X$$$$$@@$$OO         ",
"           OO@$$@@$$$@X@@@XX&&&&XX@@@$$OO           ",
"             OO@$$$$$$$$$$@$$$$$$$$$$OO             ",
"                                                    ",
"                                                    ",
"                                                    ",
"                                                    ",
"                                                    ",
"                                                    ",
"                                                    ",
"                                                    ",
"                                                    ",
"                                                    ",
"                                                    "
};
