/* XPM */
static char *result[] = {
/* columns rows colors chars-per-pixel */
"40 40 181 2 ",
"   c #0D0B01",
".  c #070609",
"X  c #120F03",
"o  c #110F0E",
"O  c #141101",
"+  c #1A1603",
"@  c #1E1904",
"#  c #12100B",
"$  c #0D0B16",
"%  c #1D1917",
"&  c #141118",
"*  c #241E04",
"=  c #251E0C",
"-  c #211C18",
";  c #2C2404",
":  c #27210B",
">  c #2C240A",
",  c #2E280A",
"<  c #352C05",
"1  c #332B09",
"2  c #3C330D",
"3  c #2F2611",
"4  c #392F14",
"5  c #332A18",
"6  c #3D3219",
"7  c #120F24",
"8  c #191627",
"9  c #1A163C",
"0  c #201B2B",
"q  c #211C31",
"w  c #2C2529",
"e  c #302834",
"r  c #473A0A",
"t  c #443914",
"y  c #4A3E1A",
"u  c #433818",
"i  c #4C3F31",
"p  c #51420D",
"a  c #5B4A0A",
"s  c #4F411E",
"d  c #534513",
"f  c #5A4A1C",
"g  c #574816",
"h  c #6B540F",
"j  c #634F1C",
"k  c #655313",
"l  c #6E591D",
"z  c #6C5819",
"x  c #735D1D",
"c  c #755E14",
"v  c #7C6416",
"b  c #77601A",
"n  c #7B631A",
"m  c #544524",
"M  c #5E4D26",
"N  c #5B4B29",
"B  c #574827",
"V  c #604F25",
"C  c #645224",
"Z  c #695621",
"A  c #6D5923",
"S  c #675428",
"D  c #725D23",
"F  c #745D28",
"G  c #7E6721",
"H  c #7D6428",
"J  c #1D1942",
"K  c #221D46",
"L  c #221E53",
"P  c #262142",
"I  c #282246",
"U  c #292357",
"Y  c #322A56",
"T  c #2F296D",
"R  c #2C2666",
"E  c #322B6D",
"W  c #332C74",
"Q  c #352E7A",
"!  c #3B3377",
"~  c #836A17",
"^  c #836B18",
"/  c #896F1C",
"(  c #806718",
")  c #8C7219",
"_  c #92761B",
"`  c #95791B",
"'  c #9C7D1D",
"]  c #A07F1D",
"[  c #856D23",
"{  c #896F26",
"}  c #846F2A",
"|  c #8E7222",
" . c #86702B",
".. c #897226",
"X. c #907522",
"o. c #9C7D22",
"O. c #987C29",
"+. c #8E7A3C",
"@. c #937D39",
"#. c #8E7D43",
"$. c #9F801F",
"%. c #A0811F",
"&. c #9E8128",
"*. c #A48321",
"=. c #AA8722",
"-. c #AD8924",
";. c #A2832A",
":. c #AA892A",
">. c #B28D25",
",. c #B38F2A",
"<. c #B79027",
"1. c #B89027",
"2. c #B5922B",
"3. c #BC9429",
"4. c #BD982D",
"5. c #AC8E36",
"6. c #BD9930",
"7. c #C0962A",
"8. c #C49B2D",
"9. c #C59D33",
"0. c #C79E35",
"q. c #C7A133",
"w. c #CBA333",
"e. c #CBA239",
"r. c #D1A636",
"t. c #D3A937",
"y. c #D6AC39",
"u. c #D9AE3B",
"i. c #DCB23D",
"p. c #998547",
"a. c #9E8D58",
"s. c #8F846E",
"d. c #968C77",
"f. c #A59769",
"g. c #AA9D72",
"h. c #AEA177",
"j. c #B2A373",
"k. c #B4A26C",
"l. c #D7AC40",
"z. c #DEB141",
"x. c #E2B642",
"c. c #E8BA47",
"v. c #EDBD4A",
"b. c #E7B949",
"n. c #EEC04A",
"m. c #F1C24E",
"M. c #F6C551",
"N. c #F8C753",
"B. c #FAC854",
"V. c #3A3283",
"C. c #433A97",
"Z. c #483EA3",
"A. c #4D43AD",
"S. c #5045AD",
"D. c #5348B7",
"F. c #584CC2",
"G. c #7565FF",
"H. c #B4AC8E",
"J. c #BEB189",
"K. c #AFA899",
"L. c #BDB8A5",
"P. c #C1BDB1",
"I. c #C3BEA8",
"U. c #CBC7B9",
"Y. c #D2CCB6",
"T. c #C9C2A9",
"R. c #D0CEC1",
"E. c #D5D3C6",
"W. c #DEDDD6",
"Q. c #E3DECF",
"!. c #E0DDDA",
"~. c #E6E2D3",
"^. c #E9E6DC",
"/. c #EDEBE6",
"(. c #EEF0EF",
"). c #F3F2EF",
"_. c #EFF0F0",
"`. c #F4F4F3",
"'. c #FDFDFD",
"]. c #F9F9F6",
"[. c None",
/* pixels */
"[.[.[.[.[.[.[.[.[.[.[.[.[.[.[.[.[.[.[.[.[.[.[.[.[.[.[.[.[.[.[.[.[.[.[.[.[.[.[.[.",
"[.[.[.[.[.[.[.[.[.[.[.[.[.[.[.[.[.[.9 J J J J L [.[.[.[.[.[.[.[.[.[.[.[.[.[.[.[.",
"[.[.[.[.[.[.[.[.[.[.[.[.[.[.[.[.R % * > 3 3 * * I E [.[.[.[.[.[.[.[.[.[.[.[.[.[.",
"[.[.[.[.[.[.[.[.[.[.[.[.[.C.e < r z G H A A l d > O O ! [.[.[.[.[.[.[.[.[.[.[.[.",
"[.[.[.[.[.[.[.[.[.[.[.Y O > z :.w.y.y.8._ ^ / / D M 2 O U [.[.[.[.[.[.[.[.[.[.[.",
"[.[.[.[.[.[.[.[.[.[.q r o.0.r.4.&.w.c.v.0.X./ >.$.n N t * 8 [.[.[.[.[.[.[.[.[.[.",
"[.[.[.[.[.[.[.[.[.w O.u.z.8.3.e.c.n.m.M.m.2._ 3.w.2.^ V t ; 7 [.[.[.[.[.[.[.[.[.",
"[.[.[.[.[.[.[.[.i ;.b.n.u.3.l.l.,.9.x.N.B.r.>.w.y.w.=./ l y ; 0 [.[.[.[.[.[.[.[.",
"[.[.[.[.[.[.[.5 [ m.B.z.w.u.e.2.2.w.c.N.B.z.w.y.y.t.w.>._ l s ; % [.[.[.[.[.[.[.",
"[.[.[.[.[.[.  h 0.M.c.r.r.v.0.6.x.m.N.M.N.c.z.y.y.y.y.8.-.' G f < . [.[.[.[.[.[.",
"[.[.[.[.[.[.= _ x.v.8.w.x.M.N.N.B.N.N.N.N.N.n.z.i.y.y.8.<.-.) A u o [.[.[.[.[.[.",
"[.[.[.[.[.= n 9.c.v.9.u.M.M.M.M.M.n.M.m.M.N.M.M.M.n.y.4.;.[ G A m 2 O [.[.[.[.[.",
"[.[.[.[.L ; o.w.r.8.7.z.m.z.:.) | | 2.z.M.N.N.N.N.n.t.` a.U.W.f.c v * [.[.[.[.[.",
"[.[.[.[.e j <.t.w.7.w.r.9.o.f.H.H.T.k.*.u.n.N.M.N.l.;.g.Y.].'.^.J.{ r % [.[.[.[.",
"[.[.[.. r | >.8.8.8.t.1.O.f.R._.(.].E.j.5.l.N.N.B.e.} L.`.`.L.!.~.} g ; . [.[.[.",
"[.[.[.$ a ' *.>.1.7.r.*.#.E.].'.].P.E./.+.2.m.v.M.0.} L._./.d.U.Q.} l 6 $ [.[.[.",
"[.[.[.& a ' *.%.>.8.t.] #.R.`.'.`.s.K.^.+.=.i.y.i.<...H.^.].'.].Y...v p o [.[.[.",
"[.[.o 1 c ` *._ -.t.y.&.#.Y.).'.'._.].~.@.=.y.y.y.w.>.X.g.W.`.J.[ ) ~ k 1 o V.[.",
"[.W   s n _ _ ( o.8.t.8.;.p.I._.'.'.Y.p.&.4.i.u.y.y.r.<.;.#.p.&.$.-.` n s X W [.",
"[.W   t c ^ ) v ' 7.t.t.8.*.p.f.h.j.p._ -.-.2.u.i.r.>.4.>.' $.;.3.3.&.G m X W [.",
"[.W   < k ^ ) ( _ ,.w.w.w.7.%.] ' ' -.3.<.| b X.X.[ G *.<.3.7.3.>.>.' n m X W [.",
"[.W   < k ^ ) n ) =.1.3.3.3.w.t.t.t.t.w.-.{ Z g p f F o.,.<.<.-.*.*.` n m X W [.",
"[.W   2 k ^ / ( / *.1.4.7.3.3.7.3.7.3.7.3.3.1.1.3.<.1.3.>.*.*.*.*.*./ D m X W G.",
"[.W X s x n v v ^ ` *.>.3.3.3.3.3.3.3.3.3.3.4.3.3.<.=.*.=.*.*.=.%.) ~ D m X W G.",
"[.W X B D n n Z A ^ *.=.=.-.1.4.4.3.4.4.4.4.4.-.-.=.*.*.*.=.*.=.%.) ~ D m X W G.",
"[.W   t z v n V Z v ` $.*.*.-.>.-.' $.*.-.>.-.=.*.*.=.*.*.*.%.$.` ) ~ x m X W G.",
"[.[.P : g b x C Z n ) ' *.*.*.*.%.) n G ^ $.=.%.*.*.*.*.%.%.$.` ) ^ ~ z y   E G.",
"[.[.[.$ 3 j n V Z v ^ ` *.*.*.*.%.` n S S [ %.$.*.*.*.*.=.$.) ) ^ v n g , 8 C.G.",
"[.[.[.7 * p x C Z n n ^ ` *.*.*.=.*.*.*.$.$.=.$.%.$.$._ ) ) ) ~ n v C 4 & D.G.G.",
"[.[.[.[.I = M l Z Z b v ^ ) ) ` %.=.*.*.$.$.$.$._ _ _ _ ) ) v v n n d ; $ F.[.[.",
"[.[.[.[.U + B C M N b v b Z ^ ` ` ` ` ` $.$.$.) ^ ^ _ ^ ^ v v v b Z ; q S.[.[.[.",
"[.[.[.[.L O y B N N Z b b Z A b ~ ~ ~ ~ ^ v v ) v v v x Z A n n f 5 Y A.[.[.[.[.",
"[.[.[.[.[.0 ; s N N N C x n Z A n n n x l A x v n x x M N C l j 4 . A.[.[.[.[.[.",
"[.[.[.[.[.[.8 6 m B N N V x n n ) ( l M V M Z x v x V M l x N t : 8 D.[.[.[.[.[.",
"[.[.[.[.[.[.[.K + 2 m N N N N Z b n n x x x v n n v x x l m 2 + J [.[.[.[.[.[.[.",
"[.[.[.[.[.[.[.[.W       % N V s r r d C C C S V d d V p ,     ! [.[.[.[.[.[.[.[.",
"[.[.[.[.[.[.[.[.[.[.[.Z.! - @ + X   O @ @ @ @ @ X X + X P C.[.[.[.[.[.[.[.[.[.[.",
"[.[.[.[.[.[.[.[.[.[.[.[.[.Q R E T W E T T T T T E E T T [.[.[.[.[.[.[.[.[.[.[.[.",
"[.[.[.[.[.[.[.[.[.[.[.[.[.[.[.[.[.[.[.[.[.[.[.[.[.[.[.[.[.[.[.[.[.[.[.[.[.[.[.[.",
"[.[.[.[.[.[.[.[.[.[.[.[.[.[.[.[.[.[.[.[.[.[.[.[.[.[.[.[.[.[.[.[.[.[.[.[.[.[.[.[."
};
