/* XPM */
static char *result[] = {
/* columns rows colors chars-per-pixel */
"17 17 6 1 ",
"  c #4470EA",
". c #A05008",
"X c #803008",
"o c #C07020",
"O c #E09020",
"+ c white",
/* pixels */
"                 ",
" .XXXXXXXXXXXXXX.",
" XXoOOOOoXXXoOOoX",
" XoOOOOo..XoOOooX",
" XoOOOOo..Xoooo.X",
" XoOOOoo..X.....X",
" Xoooooo..XX.X.XX",
" Xoooooo..XXXXX.X",
" X.oooo..XXoOo.XX",
" X.......XoOOooXX",
" X......XXoOooo.X",
" XXXX..XX.OOoo..X",
" XOOoXXX.oOooo..X",
" XoOOoXX.ooo...XX",
" X.ooo..X.....XXX",
" XX...X.XX..XXXXX",
" .XXXXXXXXXXXXXX."
};
