/* XPM */
static char *result[] = {
/* columns rows colors chars-per-pixel */
"40 40 212 2 ",
"   c #020202",
".  c #0C0C0C",
"X  c #080708",
"o  c #140D04",
"O  c #1B1207",
"+  c #131213",
"@  c #1C1C1C",
"#  c #191816",
"$  c #281B0A",
"%  c #1E210B",
"&  c #302811",
"*  c #252424",
"=  c #2B2A2B",
"-  c #333434",
";  c #383738",
":  c #3B3C3C",
">  c #383635",
",  c #34312B",
"<  c #432D13",
"1  c #4B3314",
"2  c #483C2D",
"3  c #3D4C1B",
"4  c #3D4C32",
"5  c #4D483D",
"6  c #51463B",
"7  c #6C5431",
"8  c #566226",
"9  c #403F40",
"0  c #3D4447",
"q  c #424243",
"w  c #494744",
"e  c #4A4B4A",
"r  c #41494C",
"t  c #5A5348",
"y  c #504F50",
"u  c #495255",
"i  c #535353",
"p  c #575A5B",
"a  c #635748",
"s  c #645C55",
"d  c #66645B",
"f  c #7A6A59",
"g  c #545D64",
"h  c #475661",
"j  c #605F60",
"k  c #556263",
"l  c #5E6568",
"z  c #5B6872",
"x  c #636464",
"c  c #6C6C6C",
"v  c #63686B",
"b  c #666E74",
"n  c #6B7272",
"m  c #6B757D",
"M  c #6E7A7D",
"N  c #737373",
"B  c #7B7C7C",
"V  c #787A78",
"C  c #7C7360",
"Z  c #8A5D24",
"A  c #99692D",
"S  c #85643D",
"D  c #9B5B13",
"F  c #856A45",
"G  c #897556",
"H  c #8D704C",
"J  c #A67B4C",
"K  c #847664",
"L  c #877A6A",
"P  c #927E66",
"I  c #867E73",
"U  c #D56551",
"Y  c #E87574",
"T  c #C98936",
"R  c #A8865A",
"E  c #B58753",
"W  c #B8894A",
"Q  c #8B867B",
"!  c #998975",
"~  c #B88D65",
"^  c #AA957B",
"/  c #B6997A",
"(  c #A28C71",
")  c #D29351",
"_  c #E19B4D",
"`  c #DAA55B",
"'  c #FFAD49",
"]  c #C49A63",
"[  c #E6887A",
"{  c #E8976A",
"}  c #D8AB6B",
"|  c #EBB56E",
" . c #FFC77E",
".. c #003FBC",
"X. c #0243BE",
"o. c #0B4ABF",
"O. c #687682",
"+. c #787E84",
"@. c #0B4CC1",
"#. c #1352C2",
"$. c #104DC2",
"%. c #245CC8",
"&. c #356CCC",
"*. c #507FD1",
"=. c #457DD0",
"-. c #807F80",
";. c #7D8184",
":. c #778388",
">. c #758594",
",. c #4C81D5",
"<. c #5785D7",
"1. c #4C81CE",
"2. c #739ADC",
"3. c #6B91DA",
"4. c #838484",
"5. c #878788",
"6. c #848B8C",
"7. c #8C8C8C",
"8. c #948C83",
"9. c #999288",
"0. c #838E98",
"q. c #8D9192",
"w. c #84949D",
"e. c #8D979B",
"r. c #939393",
"t. c #939B9B",
"y. c #9B9B9B",
"u. c #969799",
"i. c #A39B92",
"p. c #A6A196",
"a. c #B6A58E",
"s. c #8D9CA4",
"d. c #8997A5",
"f. c #929BA3",
"g. c #99A4AA",
"h. c #9DACB3",
"j. c #99A8B5",
"k. c #A3A3A3",
"l. c #A4AAAB",
"z. c #AAAAA9",
"x. c #BBB6AE",
"c. c #A1AAB1",
"v. c #ACB6BA",
"b. c #B4B4B4",
"n. c #BBBBBB",
"m. c #B2B9BA",
"M. c #B0A8A0",
"N. c #E8948F",
"B. c #C1AD95",
"V. c #C6B795",
"C. c #C6AB87",
"Z. c #EDBA89",
"A. c #C9BFB4",
"S. c #C6B9A9",
"D. c #F6BFA2",
"F. c #FCD599",
"G. c #F0C893",
"H. c #FFD9A8",
"J. c #EBD3BA",
"K. c #F9DCB9",
"L. c #FFE6BB",
"P. c #82A9DF",
"I. c #AABAC4",
"U. c #A5B5C2",
"Y. c #B6BEC4",
"T. c #8BABE3",
"R. c #85A9E0",
"E. c #95B5E6",
"W. c #A5BDE9",
"Q. c #AFC1C4",
"!. c #B3C3C9",
"~. c #BCCCCC",
"^. c #B7C5C5",
"/. c #BECDD3",
"(. c #BFD1D2",
"). c #A7C3EA",
"_. c #B7CCEE",
"`. c #B7CFEE",
"'. c #C5C5C5",
"]. c #C2CCCC",
"[. c #CCCCCC",
"{. c #CBDDDD",
"}. c #C5D4D5",
"|. c #D4D4D4",
" X c #DADBDB",
".X c #D5DCDD",
"XX c #EADFD0",
"oX c #FEE4C4",
"OX c #FFEBCC",
"+X c #FAE5CA",
"@X c #FFEDD5",
"#X c #FFF1D7",
"$X c #C7D8EC",
"%X c #CEE0E0",
"&X c #D3E4E4",
"*X c #DAE4E4",
"=X c #DCEBEB",
"-X c #DAE5F8",
";X c #DFF0F0",
":X c #E3E4E4",
">X c #E2EEED",
",X c #ECECEC",
"<X c #FFF6E2",
"1X c #E3ECF6",
"2X c #E5F2F1",
"3X c #EBF3F4",
"4X c #EEF4FE",
"5X c #F3F3F3",
"6X c #F4FAFB",
"7X c #FFFFFF",
"8X c #F1F4FC",
"9X c #E5F0EF",
/* pixels */
"7X7X7X7X7X7X7X7X7X7X7X7X7X7X7X7X7X7X7X7X7X7X7X7X7X7X7X7X7X7X7X7X7X7X7X7X7X7X7X7X",
"7X7X7X7X7X7X7X7X7X7X7X7X7X7X7X7X7X7X7X7X7X7X7X7X7X7X7X7X7X7X7X7X7X7X7X7X7X7X7X7X",
"7X7X7X7X7X7X7X7X7X:X X Xl.q.r.r.q.l. X X X X5X7X7X7X7X7X7X7X7X7X7X7X7X7X7X7X7X7X",
"7X7X7X7X7X,X[.u.u.6.u.t.m.~.~.~.~.m.t.r.q.6.q.u.q.n. X:X7X7X7X7X7X7X7X7X7X7X7X7X",
"7X7X7X7Xn.6.y.}..X3X7X7X7X7X7X7X7X7X7X7X6X6X*X.X}.c.6.6.q.'.:X7X7X7X7X7X7X7X7X7X",
"7X7X6X4.g.*X7X7X7X7X7X7X7X7X7X7X7X7X7X7X7X7X7X7X7X6X6X&X~.t.6.7.^.7X7X7X7X7X7X7X",
"7X7X Xp 9X7X_.R.`.7X-XR.R.`.7X-XT.W.6X7X7X7X7X7X7X7X7X7X7X2X&X^.t.4.k.5X7X7X7X7X",
"7X7Xx m.6X7XE.X.&.-XE.X.@.<.7X2.X.3.7X7X7X7X7X7X7X7X7X7X7X7X2X;X&XI.s.;.[.7X7X7X",
"7X7Xp ].7X7X1X%.@.).*.@.@.%.`.&.@.$X7X7X7X7X7X7X7X7X7X7X7X7X6X=X;X%X/.h.p |.7X7X",
"7X7Xp ~.6X7X6X2...,.@.<.,.#.1.o.1.6X7X7X7X7X7X7X7X7X7X6X6X2X2X=X=X{./.U.>.k 7X7X",
"7X7Xn.n =X6X7X`.@...X.E.).o.X.X.).7X7X7X7X7X6X3X>X=X=X=X&X%X{.(./.U.h.>.b b.7X7X",
"7X7X5Xq ~.9X7X6XW.R.E.1X4XE.R.E.4X7X7X6X6X3X2X%X}.~.Q.I.U.I.h.>.>.O.b q.,X7X7X7X",
"7X7X,Xe *X>X:X>X>X9X;X>X9X2X;X9X>X>X>X>X=X>X>X=X&X%X(.~.!.U.j.>.0 4.5X7X7X7X7X7X",
"7X7X6Xg.u p V Q y.p.8.:.M Q b b q.e.:.:.e.:.k k M w.s.s.s.I.!.U.d.m e.,X7X7X7X7X",
"7X7X7Xx.$ 7 E 6 H H T E 5 f Z o 9 y.-.: 4.k.*   r y.x B n 0 C j v O.h i :X7X7X7X",
"7X7X5Xt G 1 & # > . < T ) G | T O * i - @ x *   X V z.i n + _ } d f.b.z.,X7X7X7X",
"7X7X5Xt !   l : v 3 4 C.F.H.G. .p.v   # . = @ k   * 7.* = & T F.t :X7X7X7X7X7X7X",
"7X7X7Xp.t 9 i.K % 8 V.oXoX+X@XL.@XXXa % X X X V t   e +   D ' E 7.6X7X7X7X7X7X7X",
"7X7X7X5X4.x 2 J.A.A.oXoXoX@X@XoX+XOXJ.S.a.7 o 2 ` 1 +   * A W 9.,X7X7X7X7X7X7X7X",
"7X7X7X7X,Xg # S.<X<X@X{ U [ [ U Z.#X<X#XoXF.) < _ 7 .   x c w 7X7X7X7X7X7X7X7X7X",
"7X7X7X7X7X|.i # L V.J.G.N.Y Y N.H.L.H.F.G.| W a !  X; x 7.Q '.7X7X7X7X7X7X7X7X7X",
"7X7X7X7X7X7X6Xu.d l.8.( E ) ) } } ` T A S t B :X7Xn.n.7X7X6X7X7X7X7X7X7X7X7X7X7X",
"7X7X7X7X7X7X7X7X X5X7X:X4.5 d 8.G ] R k.e.g w.6.[.7X7X7X7X7X7X7X7X7X7X7X7X7X7X7X",
"7X7X7X7X7X7X7X7X7X7X7X Xl M }.t.i.n..X*Xs.:.(.~.b b.7X7X7X7X7X7X7X7X7X7X7X7X7X7X",
"7X7X7X7X5X5X5X7X7X8X:X-.u g.s.:.f.c.s.f.g.d.m *Xv.k |.7X7X7X7X7X7X7X7X7X7X7X7X7X",
"7X7X7Xb.I Q 9.z.b.y.5.Y.s.Y.e.k g.!..X2X%Xw.g V ~.h.x ,X7X7X7X7X7X7X7X7X7X7X7X7X",
"7X7X5XQ R G.+X/ L  X}.v.0.g g.w.%X6X6X=X}.z y.B x t.M B 7X7X7X7X7X7X7X7X7X7X7X7X",
"7X7XV B.OXOXH.| H O.:.+.n n g.h.&X6X4X%XI.B Q B.S.C.P 0 k.7X7X7X7X7X7X7X7X7X7X7X",
"7X7Xr.( ^ R R P M.[.|.7Xj '.b.v.3X5X5X=XI.K J E @XL.| Z 4.7X7X7X7X7X7X7X7X7X7X7X",
"7X7X7X|.[.].|.7X7X7X7X7X|.p j.v.l.f.f.:.z x s C ^ ( ) Z c ,X7X7X7X7X7X7X7X7X7X7X",
"7X7X7X7X7X7X7X7X7X7X7X7X8Xi :X3X%X!.0.z u y - +.c N d , = V k.'.7X7X7X7X7X7X7X7X",
"7X7X7X7X7X7X7X7X7X7X7X7X7Xn.a a.P = c c q.p 2 : w 5 ; 0 e : > * n.7X7X7X7X7X7X7X",
"7X7X7X7X7X7X7X7X7X7X7X7X7X[.a H._   y i V q 9 j :X-.N B :Xc ; . z.7X7X7X7X7X7X7X",
"7X7X7X7X7X7X7X7X7X7X7X7X7Xr.i.K.J w = > e q 9 x 6Xi.n.r.7Xn > . b.7X7X7X7X7X7X7X",
"7X7X7X7X7X7X7X7X7X7X,X,Xb.8.+XZ.6 y.* - e : 9 9 B y.v r.-.q ; . z.7X7X7X7X7X7X7X",
"7X7X7X7X7X7X7X7X7Xk.v > w Q f $ * '.i = * + + + # = = = = = * e |.7X7X7X7X7X7X7X",
"7X7X7X7X7X7X7X7X7Xy.7.B N 4. Xy.4.7X,X|.B N N n i. X X X X X X,X7X7X7X7X7X7X7X7X",
"7X7X7X7X7X7X7X7X7X7X7X7X7X7X7X7X7X7X7X7X7X7X7X7X7X7X7X7X7X7X7X7X7X7X7X7X7X7X7X7X",
"7X7X7X7X7X7X7X7X7X7X7X7X7X7X7X7X7X7X7X7X7X7X7X7X7X7X7X7X7X7X7X7X7X7X7X7X7X7X7X7X",
"7X7X7X7X7X7X7X7X7X7X7X7X7X7X7X7X7X7X7X7X7X7X7X7X7X7X7X7X7X7X7X7X7X7X7X7X7X7X7X7X"
};
